<?xml version="1.0" encoding="utf-8"?>
<!-- Generator: Adobe Illustrator 18.0.0, SVG Export Plug-In . SVG Version: 6.00 Build 0)  -->
<!DOCTYPE svg PUBLIC "-//W3C//DTD SVG 1.1//EN" "http://www.w3.org/Graphics/SVG/1.1/DTD/svg11.dtd">
<svg version="1.1" id="Layer_1" xmlns="http://www.w3.org/2000/svg" xmlns:xlink="http://www.w3.org/1999/xlink" x="0px" y="0px"
	 viewBox="-0.2 0 27.2 30.3" enable-background="new -0.2 0 27.2 30.3" xml:space="preserve">
<g>
	<circle fill="#FFFFFF" cx="1.6" cy="7.8" r="0.8"/>
	<path fill="#605643" d="M1.6,9.6c-1,0-1.8-0.8-1.8-1.8s0.8-1.8,1.8-1.8s1.8,0.8,1.8,1.8S2.6,9.6,1.6,9.6z M1.6,7.6
		c-0.1,0-0.2,0.1-0.2,0.2c0,0.3,0.5,0.3,0.5,0C1.8,7.7,1.7,7.6,1.6,7.6z"/>
</g>
<path fill="#605643" d="M17.3,19.4H13c-4.6,0-8.6-3.3-9.5-7.8C3.4,11,3.3,10.4,3.3,9.7c0-0.6,0.4-1,1-1s1,0.4,1,1
	c0,0.5,0.1,1,0.2,1.6c0.7,3.5,3.9,6.1,7.5,6.1h4.3c4.3,0,7.7-3.5,7.7-7.7S21.6,2,17.3,2h-2.8c-0.6,0-1-0.4-1-1s0.4-1,1-1h2.8
	C22.7,0,27,4.4,27,9.7C27,15.1,22.7,19.4,17.3,19.4z"/>
<path fill="#605643" d="M11.5,10.7H4.3c-0.6,0-1-0.4-1-1s0.4-1,1-1h7.2c0.6,0,1,0.4,1,1S12.1,10.7,11.5,10.7z"/>
<path fill="#605643" d="M14.5,10.7c-0.6,0-1-0.4-1-1V1c0-0.6,0.4-1,1-1s1,0.4,1,1v8.7C15.5,10.3,15.1,10.7,14.5,10.7z"/>
<path fill="#605643" d="M10.4,30.3c-2.2,0-4-1.8-4-4c0-2.2,1.8-4,4-4c2.2,0,4,1.8,4,4C14.3,28.5,12.5,30.3,10.4,30.3z M10.4,24.4
	c-1.1,0-2,0.9-2,2c0,1.1,0.9,2,2,2s2-0.9,2-2C12.3,25.2,11.4,24.4,10.4,24.4z"/>
<path fill="#605643" d="M19.9,30.3c-2.2,0-4-1.8-4-4c0-2.2,1.8-4,4-4c2.2,0,4,1.8,4,4C23.9,28.5,22.1,30.3,19.9,30.3z M19.9,24.4
	c-1.1,0-2,0.9-2,2c0,1.1,0.9,2,2,2s2-0.9,2-2C21.9,25.2,21,24.4,19.9,24.4z"/>
<path fill="#605643" d="M10.4,27.3c-0.3,0-0.5-0.1-0.7-0.3c-0.4-0.4-0.4-1,0-1.4l7.9-7.9c0.4-0.4,1-0.4,1.4,0s0.4,1,0,1.4L11.1,27
	C10.9,27.2,10.6,27.3,10.4,27.3z"/>
<path fill="#605643" d="M20.1,27.3c-0.3,0-0.5-0.1-0.7-0.3l-7.9-7.9c-0.4-0.4-0.4-1,0-1.4s1-0.4,1.4,0l7.9,7.9c0.4,0.4,0.4,1,0,1.4
	C20.6,27.2,20.4,27.3,20.1,27.3z"/>
</svg>
