<?xml version="1.0" encoding="utf-8"?>
<!-- Generator: Adobe Illustrator 18.0.0, SVG Export Plug-In . SVG Version: 6.00 Build 0)  -->
<!DOCTYPE svg PUBLIC "-//W3C//DTD SVG 1.1//EN" "http://www.w3.org/Graphics/SVG/1.1/DTD/svg11.dtd">
<svg version="1.1" id="Layer_1" xmlns="http://www.w3.org/2000/svg" xmlns:xlink="http://www.w3.org/1999/xlink" x="0px" y="0px"
	 viewBox="-196.4 -194.7 36.5 15.3" enable-background="new -196.4 -194.7 36.5 15.3" xml:space="preserve">
<g>
	<path fill="#FFFFFF" d="M-189-184.3c0,0.4-0.3,0.7-0.7,0.7l0,0c-0.4,0-0.7-0.3-0.7-0.7v-6.2c0-0.4,0.3-0.7,0.7-0.7l0,0
		c0.4,0,0.7,0.3,0.7,0.7V-184.3z"/>
	<path fill="#5F5543" d="M-189.6-182.6c-0.9,0-1.7-0.7-1.7-1.7v-6.2c0-0.9,0.7-1.7,1.7-1.7s1.7,0.7,1.7,1.7v6.2
		C-188-183.4-188.7-182.6-189.6-182.6z"/>
</g>
<g>
	<path fill="#FFFFFF" d="M-184.3-181.6c0,0.7-0.3,1.2-0.7,1.2l0,0c-0.4,0-0.7-0.5-0.7-1.2v-10.9c0-0.7,0.3-1.2,0.7-1.2l0,0
		c0.4,0,0.7,0.5,0.7,1.2V-181.6z"/>
	<path fill="#5F5543" d="M-184.9-179.4c-1,0-1.7-0.9-1.7-2.2v-10.9c0-1.3,0.7-2.2,1.7-2.2c1,0,1.7,0.9,1.7,2.2v10.9
		C-183.3-180.3-184-179.4-184.9-179.4z"/>
</g>
<g>
	<path fill="#FFFFFF" d="M-170.6-181.6c0,0.7-0.3,1.2-0.7,1.2l0,0c-0.4,0-0.7-0.5-0.7-1.2v-10.9c0-0.7,0.3-1.2,0.7-1.2l0,0
		c0.4,0,0.7,0.5,0.7,1.2V-181.6z"/>
	<path fill="#5F5543" d="M-171.3-179.4c-1,0-1.7-0.9-1.7-2.2v-10.9c0-1.3,0.7-2.2,1.7-2.2c1,0,1.7,0.9,1.7,2.2v10.9
		C-169.6-180.3-170.3-179.4-171.3-179.4z"/>
</g>
<g>
	<path fill="#FFFFFF" d="M-167.4-184.3c0,0.4,0.3,0.7,0.7,0.7l0,0c0.4,0,0.7-0.3,0.7-0.7v-6.2c0-0.4-0.3-0.7-0.7-0.7l0,0
		c-0.4,0-0.7,0.3-0.7,0.7V-184.3z"/>
	<path fill="#5F5543" d="M-166.7-182.6c-0.9,0-1.7-0.7-1.7-1.7v-6.2c0-0.9,0.7-1.7,1.7-1.7s1.7,0.7,1.7,1.7v6.2
		C-165.1-183.4-165.8-182.6-166.7-182.6z"/>
</g>
<path fill="#5F5543" d="M-161-186.4h-2.4c-0.6,0-1-0.4-1-1s0.4-1,1-1h2.4c0.6,0,1,0.4,1,1S-160.4-186.4-161-186.4z"/>
<path fill="#5F5543" d="M-174.8-186.4h-6.8c-0.6,0-1-0.4-1-1s0.4-1,1-1h6.8c0.6,0,1,0.4,1,1S-174.3-186.4-174.8-186.4z"/>
<path fill="#5F5543" d="M-193.1-186.4h-2.4c-0.6,0-1-0.4-1-1s0.4-1,1-1h2.4c0.6,0,1,0.4,1,1S-192.5-186.4-193.1-186.4z"/>
</svg>
