<?xml version="1.0" encoding="utf-8"?>
<!-- Generator: Adobe Illustrator 18.0.0, SVG Export Plug-In . SVG Version: 6.00 Build 0)  -->
<!DOCTYPE svg PUBLIC "-//W3C//DTD SVG 1.1//EN" "http://www.w3.org/Graphics/SVG/1.1/DTD/svg11.dtd">
<svg version="1.1" id="Layer_1" xmlns="http://www.w3.org/2000/svg" xmlns:xlink="http://www.w3.org/1999/xlink" x="0px" y="0px"
	 viewBox="0 0 36.4 26.4" enable-background="new 0 0 36.4 26.4" xml:space="preserve">
<path fill="#5F5543" d="M14,25.3h-2v-3.5c0-0.4-0.3-0.7-0.7-0.7s-0.7,0.3-0.7,0.7v3.4h-2v-3.4c0-1.5,1.2-2.7,2.7-2.7
	s2.7,1.2,2.7,2.7V25.3z"/>
<path fill="#5F5543" d="M20.7,25.3h-2v-3.5c0-0.4-0.3-0.7-0.7-0.7s-0.7,0.3-0.7,0.7v3.4h-2v-3.4c0-1.5,1.2-2.7,2.7-2.7
	s2.7,1.2,2.7,2.7V25.3z"/>
<path fill="#5F5543" d="M27.4,25.3h-2v-3.5c0-0.4-0.3-0.7-0.7-0.7c-0.4,0-0.7,0.3-0.7,0.7v3.4h-2v-3.4c0-1.5,1.2-2.7,2.7-2.7
	s2.7,1.2,2.7,2.7V25.3z"/>
<path fill="#5F5543" d="M31.7,25.4h-2v-9.5L6.4,16l0.1,9.3h-2v-9.3c0-1.1,0.9-1.9,1.9-1.9h23.4c1.1,0,1.9,0.9,1.9,1.9V25.4z"/>
<g>
	<path fill="#5F5543" d="M18,1.9l12.4,8.2H5.7L18,1.9 M18,0c-0.4,0-0.7,0.1-1,0.3L4.6,8.5c-0.7,0.5-1,1.3-0.8,2.1
		c0.2,0.8,1,1.3,1.8,1.3h24.7c0.8,0,1.6-0.6,1.8-1.3c0.2-0.8,0-1.6-0.8-2.1L19,0.3C18.7,0.1,18.4,0,18,0L18,0z"/>
</g>
<path fill="#5F5543" d="M7.7,15.6c-0.6,0-1-0.4-1-1v-2.9c0-0.6,0.4-1,1-1s1,0.4,1,1v2.9C8.7,15.1,8.3,15.6,7.7,15.6z"/>
<path fill="#5F5543" d="M17.9,15.6c-0.6,0-1-0.4-1-1v-2.9c0-0.6,0.4-1,1-1s1,0.4,1,1v2.9C18.9,15.1,18.5,15.6,17.9,15.6z"/>
<path fill="#5F5543" d="M28.2,15.6c-0.6,0-1-0.4-1-1v-2.9c0-0.6,0.4-1,1-1s1,0.4,1,1v2.9C29.2,15.1,28.7,15.6,28.2,15.6z"/>
<path fill="#5F5543" d="M35.4,26.4H1c-0.6,0-1-0.4-1-1s0.4-1,1-1h34.4c0.6,0,1,0.4,1,1S36,26.4,35.4,26.4z"/>
</svg>
