<?xml version="1.0" encoding="utf-8"?>
<!-- Generator: Adobe Illustrator 18.0.0, SVG Export Plug-In . SVG Version: 6.00 Build 0)  -->
<!DOCTYPE svg PUBLIC "-//W3C//DTD SVG 1.1//EN" "http://www.w3.org/Graphics/SVG/1.1/DTD/svg11.dtd">
<svg version="1.1" id="Layer_1" xmlns="http://www.w3.org/2000/svg" xmlns:xlink="http://www.w3.org/1999/xlink" x="0px" y="0px"
	 viewBox="0.6 0 36.8 31.5" enable-background="new 0.6 0 36.8 31.5" xml:space="preserve">
<path fill="#605643" d="M16.6,4.9c-0.1,0-0.2,0-0.3,0c-0.5-0.1-0.8-0.6-0.7-1.1c-0.2-0.4-1.4-1.6-2.9-1.8c-1.4-0.2-2.6,0.6-3.5,2.4
	C8.9,4.9,8.3,5.1,7.8,4.8C7.3,4.5,7.1,3.9,7.4,3.4c1.7-3,4.3-4.2,7.1-3c1.8,0.8,3.4,2.4,3,3.8C17.4,4.6,17,4.9,16.6,4.9z"/>
<path fill="#605643" d="M19.8,11.3c-0.4,0-0.7-0.2-0.9-0.6c-0.2-0.5,0-0.8,0.1-1.1c0.8-1.6,0.9-2.8,0.5-3.5c-0.5-0.9-1.9-1.2-3-1.3
	c-0.6,0-1-0.5-0.9-1.1c0-0.6,0.5-1,1.1-0.9c2.3,0.2,3.8,0.9,4.6,2.3c0.8,1.4,0.6,3.2-0.4,5.4l0,0.1c-0.1,0.2-0.3,0.5-0.5,0.6
	C20.1,11.3,20,11.3,19.8,11.3z"/>
<path fill="#605643" d="M2.6,12.8c-0.3,0-0.5-0.1-0.7-0.3c-1.6-1.6-1.8-4.8-0.5-7c1.3-2.3,3.8-3.1,6.7-2.3C8.7,3.4,9,3.9,8.9,4.5
	C8.7,5,8.2,5.3,7.6,5.2C5.6,4.6,4,5.1,3.2,6.5c-0.9,1.6-0.7,3.8,0.2,4.6c0.4,0.4,0.4,1,0,1.4C3.1,12.7,2.9,12.8,2.6,12.8z"/>
<path fill="#605643" d="M7.6,20c-1.1,0-2.2-0.2-3.2-0.9c-1.9-1.3-2.8-3.8-2.7-7.4c0-0.6,0.5-1,1-0.9c0.6,0,1,0.5,0.9,1
	c-0.1,2.9,0.4,4.8,1.7,5.6c2,1.3,5.4,0,6.5-0.6c0.2-0.1,0.5-0.1,0.8-0.1c0.8,0.3,3.2,0.8,4.6-0.2c2-1.5,2.6-3.7,1.6-5.8
	c-0.2-0.5,0-1.1,0.5-1.3c0.5-0.2,1.1,0,1.3,0.5c1.5,3.1,0.6,6.2-2.2,8.3c-2,1.5-4.9,0.9-6,0.6C11.7,19.2,9.7,20,7.6,20z"/>
<path fill="#605643" d="M13.3,26.3c-0.3,0-0.5-0.1-0.7-0.3l-3.2-3.4c-0.4-0.4-0.4-1,0-1.4c0.4-0.4,1-0.4,1.4,0l3.2,3.4
	c0.4,0.4,0.4,1,0,1.4C13.8,26.2,13.5,26.3,13.3,26.3z"/>
<path fill="#605643" d="M13.3,31.5c-0.6,0-1-0.4-1-1v-9.3c0-0.6,0.4-1,1-1s1,0.4,1,1v9.3C14.3,31.1,13.8,31.5,13.3,31.5z"/>
<path fill="#605643" d="M34.8,23.5H19.6c-0.6,0-1-0.4-1-1s0.4-1,1-1h15.2c0.6,0,1,0.4,1,1S35.4,23.5,34.8,23.5z"/>
<path fill="#605643" d="M34.8,26H19.6c-0.6,0-1-0.4-1-1s0.4-1,1-1h15.2c0.6,0,1,0.4,1,1S35.4,26,34.8,26z"/>
<path fill="#605643" d="M36.3,28.5H18.5c-0.6,0-1-0.4-1-1s0.4-1,1-1h17.9c0.6,0,1,0.4,1,1S36.9,28.5,36.3,28.5z"/>
<path fill="#605643" d="M20.4,31.5c-0.6,0-1-0.4-1-1V28c0-0.6,0.4-1,1-1s1,0.4,1,1v2.5C21.4,31.1,21,31.5,20.4,31.5z"/>
<path fill="#605643" d="M34.3,31.5c-0.6,0-1-0.4-1-1v-3.1c0-0.6,0.4-1,1-1s1,0.4,1,1v3.1C35.3,31.1,34.9,31.5,34.3,31.5z"/>
</svg>
