<?xml version="1.0" encoding="utf-8"?>
<!-- Generator: Adobe Illustrator 18.0.0, SVG Export Plug-In . SVG Version: 6.00 Build 0)  -->
<!DOCTYPE svg PUBLIC "-//W3C//DTD SVG 1.1//EN" "http://www.w3.org/Graphics/SVG/1.1/DTD/svg11.dtd">
<svg version="1.1" id="Layer_1" xmlns="http://www.w3.org/2000/svg" xmlns:xlink="http://www.w3.org/1999/xlink" x="0px" y="0px"
	 viewBox="0 0 29.9 25.9" enable-background="new 0 0 29.9 25.9" xml:space="preserve">
<g>
	<path fill="#FFFFFF" d="M2.7,1C1.7,2.6,1,5,1,7.7c0,4.8,2.2,8.8,4.8,8.8c2.6,0,4.8-3.9,4.8-8.8C10.6,5,9.9,2.6,8.9,1"/>
	<path fill="#605643" d="M5.8,17.5C2.5,17.5,0,13.2,0,7.7c0-2.8,0.7-5.5,1.9-7.3C2.2,0,2.8-0.1,3.3,0.2c0.5,0.3,0.6,0.9,0.3,1.4
		C2.6,3,2,5.3,2,7.7c0,4.6,2,7.8,3.8,7.8s3.8-3.2,3.8-7.8C9.6,5.3,9,3,8,1.6C7.7,1.1,7.8,0.5,8.3,0.2C8.8-0.1,9.4,0,9.7,0.4
		c1.2,1.8,1.9,4.4,1.9,7.3C11.6,13.2,9.1,17.5,5.8,17.5z"/>
</g>
<path fill="#605643" d="M17.9,12.8c-4.7,0-4.7-5.8-4.7-9.7c0-0.6,0-1.2,0.1-1.7c0.1-0.5,0.5-1,1.1-0.9c0.5,0,1,0.5,0.9,1.1
	c0,0.5,0,1,0,1.6c0,5.8,0.7,7.7,2.7,7.7c2.4,0,2.7-2.2,2.7-7.7c0-0.5,0-0.9,0-1.4c0-0.6,0.4-1,0.9-1.1c0.6,0,1,0.4,1.1,0.9
	c0.1,0.6,0.1,1.1,0.1,1.6C22.6,7.8,22.6,12.8,17.9,12.8z"/>
<path fill="#605643" d="M5.8,25.4c-0.6,0-1-0.4-1-1v-5c0-0.6,0.4-1,1-1s1,0.4,1,1v5C6.8,24.9,6.4,25.4,5.8,25.4z"/>
<path fill="#605643" d="M9.5,25.4H2.1c-0.6,0-1-0.4-1-1s0.4-1,1-1h7.4c0.6,0,1,0.4,1,1S10.1,25.4,9.5,25.4z"/>
<path fill="#605643" d="M17.9,9.7c-0.6,0-1-0.4-1-1V1.4c0-0.6,0.4-1,1-1s1,0.4,1,1v7.3C18.9,9.3,18.5,9.7,17.9,9.7z"/>
<path fill="#605643" d="M17.9,25.9c-0.6,0-1-0.4-1-1V14.7c0-0.6,0.4-1,1-1s1,0.4,1,1v10.2C18.9,25.5,18.5,25.9,17.9,25.9z"/>
<path fill="#605643" d="M28.9,25.4c-0.6,0-1-0.4-1-1V4.3c-1.5,2-3.1,5.7-0.6,10.6c0.2,0.5,0,1.1-0.5,1.3c-0.5,0.2-1.1,0-1.3-0.5
	C21,6.7,28.2,1,28.3,1c0.3-0.2,0.7-0.3,1.1-0.1c0.3,0.2,0.6,0.5,0.6,0.9v22.6C29.9,24.9,29.4,25.4,28.9,25.4z"/>
<path fill="#605643" d="M10.6,7.6H4.2c-0.6,0-1-0.4-1-1s0.4-1,1-1h6.4c0.6,0,1,0.4,1,1S11.2,7.6,10.6,7.6z"/>
</svg>
