<?xml version="1.0" encoding="utf-8"?>
<!-- Generator: Adobe Illustrator 18.0.0, SVG Export Plug-In . SVG Version: 6.00 Build 0)  -->
<!DOCTYPE svg PUBLIC "-//W3C//DTD SVG 1.1//EN" "http://www.w3.org/Graphics/SVG/1.1/DTD/svg11.dtd">
<svg version="1.1" id="Layer_1" xmlns="http://www.w3.org/2000/svg" xmlns:xlink="http://www.w3.org/1999/xlink" x="0px" y="0px"
	 viewBox="0 0 29.4 25.8" enable-background="new 0 0 29.4 25.8" xml:space="preserve">
<g>
	<circle fill="#FFFFFF" cx="1.9" cy="1.8" r="0.8"/>
	<path fill="#605643" d="M1.9,3.5c-1,0-1.8-0.8-1.8-1.8S0.9,0,1.9,0s1.8,0.8,1.8,1.8S2.9,3.5,1.9,3.5z M1.9,1.5
		c-0.1,0-0.2,0.1-0.2,0.2c0,0.3,0.5,0.3,0.5,0C2.1,1.6,2,1.5,1.9,1.5z"/>
</g>
<path fill="#605643" d="M7.7,17.8c-0.5,0-0.9-0.3-1-0.8L3.7,4C3.5,3.5,3.9,2.9,4.4,2.8C4.9,2.7,5.5,3,5.6,3.5l3.1,13
	c0.1,0.5-0.2,1.1-0.7,1.2C7.8,17.8,7.8,17.8,7.7,17.8z"/>
<path fill="#605643" d="M25.4,17.8H7.7c-0.6,0-1-0.4-1-1s0.4-1,1-1h17.7c0.6,0,1,0.4,1,1S26,17.8,25.4,17.8z"/>
<path fill="#605643" d="M25.4,17.8c-0.1,0-0.2,0-0.3,0c-0.5-0.2-0.8-0.7-0.7-1.2l3-9.9c0.2-0.5,0.7-0.8,1.2-0.7
	c0.5,0.2,0.8,0.7,0.7,1.2l-3,9.9C26.3,17.5,25.9,17.8,25.4,17.8z"/>
<path fill="#605643" d="M28,9.2H8.7c-0.6,0-1-0.4-1-1s0.4-1,1-1H28c0.6,0,1,0.4,1,1S28.6,9.2,28,9.2z"/>
<path fill="#605643" d="M8.7,21c-0.2,0-0.4,0-0.5-0.1c-0.5-0.3-0.6-0.9-0.3-1.4l1.9-3.2c0.3-0.5,0.9-0.6,1.4-0.3
	c0.5,0.3,0.6,0.9,0.3,1.4l-1.9,3.2C9.3,20.8,9,21,8.7,21z"/>
<path fill="#605643" d="M8.3,25.8c-1.9,0-3.4-1.5-3.4-3.4c0-1.9,1.5-3.4,3.4-3.4c1.9,0,3.4,1.5,3.4,3.4
	C11.7,24.3,10.2,25.8,8.3,25.8z M8.3,20.9c-0.8,0-1.4,0.6-1.4,1.4s0.6,1.4,1.4,1.4s1.4-0.6,1.4-1.4S9.1,20.9,8.3,20.9z"/>
<path fill="#605643" d="M24.1,25.8c-1.9,0-3.4-1.5-3.4-3.4c0-1.9,1.5-3.4,3.4-3.4c1.9,0,3.4,1.5,3.4,3.4
	C27.6,24.3,26,25.8,24.1,25.8z M24.1,20.9c-0.8,0-1.4,0.6-1.4,1.4s0.6,1.4,1.4,1.4s1.4-0.6,1.4-1.4S24.9,20.9,24.1,20.9z"/>
<path fill="#605643" d="M21.3,23.4H11.1c-0.6,0-1-0.4-1-1s0.4-1,1-1h10.3c0.6,0,1,0.4,1,1S21.9,23.4,21.3,23.4z"/>
</svg>
