<?xml version="1.0" encoding="utf-8"?>
<!-- Generator: Adobe Illustrator 18.0.0, SVG Export Plug-In . SVG Version: 6.00 Build 0)  -->
<!DOCTYPE svg PUBLIC "-//W3C//DTD SVG 1.1//EN" "http://www.w3.org/Graphics/SVG/1.1/DTD/svg11.dtd">
<svg version="1.1" id="Layer_1" xmlns="http://www.w3.org/2000/svg" xmlns:xlink="http://www.w3.org/1999/xlink" x="0px" y="0px"
	 viewBox="143.8 502.8 105.4 65.4" enable-background="new 143.8 502.8 105.4 65.4" xml:space="preserve">
<path fill="#605443" d="M166.2,521c-0.2,0-0.3,0-0.4-0.1l-0.5-0.2l-0.1-0.5c0,0,0-0.1-0.1-0.1c-0.1-0.3-0.3-0.7-0.3-1.2
	c0-0.3,0-0.6,0.1-1.1c0.4-2,0.3-2.6,0.2-2.7c-3.3-1.1-5.6,1.4-5.8,1.8c-0.3,0.5-0.9,0.7-1.4,0.4c-0.5-0.3-0.7-0.9-0.4-1.4
	c0.7-1.3,3.9-4.3,8.2-2.8c2.1,0.7,1.5,3.5,1.2,5c0,0.2-0.1,0.3-0.1,0.4c0.1-0.1,0.2-0.1,0.4-0.2c0.4-1.1,2-4.7,2.6-6.1
	c0-0.1,3.4-7.2,6.4-7.8c4-0.7,11.9-1.8,20.3-1.8c0.6,0,1,0.5,1,1c0,0.6-0.4,1-1,1c-0.2,0-0.3,0-0.4,0c-8.1,0-15.7,1.1-19.5,1.8
	c-1.2,0.2-4,4.6-4.9,6.6c-0.7,1.6-2.7,6.4-2.7,6.4l-0.1,0.3l-0.3,0.2C167.2,520.8,166.6,521,166.2,521z"/>
<path fill="#605443" d="M227,521c-0.4,0-1-0.3-2.3-1.1l-0.3-0.2l-0.1-0.3c0,0-2-4.8-2.7-6.4c-0.9-2-3.7-6.4-4.9-6.6
	c-3.9-0.7-11.6-1.8-20-1.8c-0.6,0-1-0.4-1-1c0-0.6,0.4-1,1-1c8.5,0,16.4,1.1,20.3,1.8c2.9,0.5,6.3,7.7,6.3,7.7
	c0.6,1.3,2.1,5,2.6,6.1c0.1,0.1,0.2,0.1,0.4,0.2c0-0.1-0.1-0.2-0.1-0.5c-0.3-1.5-0.9-4.4,1.2-5c4.3-1.5,7.5,1.5,8.2,2.8
	c0.3,0.5,0.1,1.1-0.4,1.4c-0.5,0.3-1.1,0.1-1.4-0.4c-0.2-0.4-2.5-3-5.8-1.8c-0.2,0.2-0.3,0.8,0.2,2.7c0.1,0.5,0.2,0.8,0.1,1.1
	c0,0.5-0.2,0.9-0.3,1.2c0,0.1-0.1,0.1-0.1,0.2l-0.1,0.5l-0.5,0.2C227.3,521,227.2,521,227,521z"/>
<path fill="#605443" d="M172.5,550.6c-11.7,0-12.1-0.3-12.3-0.5c-1.1-0.9-1.2-2-1.1-2.5c0-0.1,0-0.6-0.2-1.9
	c0-0.1-0.8-17.2-0.1-18.7c0.5-1,3.3-4.4,4.3-5.6v-1.2c-0.4-0.1-1-0.2-1.7-0.3c-1.6-0.2-2.3-0.8-3-1.5c-0.2-0.1-0.3-0.3-0.5-0.4
	c-0.4-0.4-0.5-1-0.1-1.4c0.4-0.4,1-0.5,1.4-0.1c0.2,0.2,0.4,0.3,0.6,0.5c0.7,0.6,1,0.8,2,1c1.7,0.2,2.6,0.4,2.6,0.4l0.8,0.2v3.6
	l-0.2,0.3c-1.9,2.2-4,4.8-4.3,5.4c-0.3,1.3,0.1,16.3,0.3,17.5c0.2,1.1,0.3,1.9,0.2,2.5c0,0.1,0,0.3,0.2,0.6
	c2.5,0.3,24.2,0.1,38.5-0.1c0,0,0,0,0,0c0.5,0,1,0.4,1,1c0,0.6-0.4,1-1,1C186.9,550.5,178.3,550.6,172.5,550.6z"/>
<path fill="#605443" d="M220.8,550.6c-5.8,0-14.5-0.1-27.3-0.3c-0.6,0-1-0.5-1-1c0-0.6,0.5-1,1-1c14.3,0.2,35.9,0.4,38.5,0.1
	c0.3-0.3,0.3-0.5,0.2-0.6c-0.1-0.5,0-1.3,0.2-2.5c0.2-1.2,0.6-16.2,0.2-17.6c-0.2-0.5-2.3-3.1-4.2-5.3l-0.2-0.3v-3.6l0.8-0.2
	c0,0,1-0.2,2.6-0.4c1.1-0.1,1.3-0.4,2-1c0.2-0.1,0.3-0.3,0.6-0.5c0.4-0.4,1.1-0.3,1.4,0.1c0.4,0.4,0.3,1.1-0.1,1.4
	c-0.2,0.2-0.4,0.3-0.5,0.4c-0.8,0.7-1.4,1.2-3,1.5c-0.7,0.1-1.3,0.2-1.7,0.3v1.2c1,1.2,3.9,4.6,4.3,5.6c0.7,1.5-0.1,18.6-0.1,18.7
	c-0.2,1.3-0.2,1.8-0.2,1.9c0.1,0.6,0,1.6-1.1,2.5C232.9,550.2,232.5,550.6,220.8,550.6z"/>
<path fill="#605443" d="M223.5,521C223.4,521,223.4,521,223.5,521c-0.3,0-26.2-2.1-53-0.6c-0.6,0-1-0.4-1.1-0.9c0-0.6,0.4-1,0.9-1.1
	c27-1.5,53,0.6,53.2,0.6c0.6,0,1,0.5,0.9,1.1C224.4,520.6,224,521,223.5,521z"/>
<g>
	<path fill="#605443" d="M164.9,529.2c3.7,0.4,7.3,1,8.1,1.5c0.2,0.1,0.5,0.6,0.8,1.1l-8.6-0.5L164.9,529.2 M162.7,527.1
		c0.6,6,0.6,6,0.6,6l12.9,0.8c0,0-0.7-3.8-2.4-4.8S162.7,527.1,162.7,527.1L162.7,527.1z"/>
</g>
<g>
	<path fill="#605443" d="M228.1,529.2l-0.2,2.1l-8.6,0.5c0.2-0.6,0.5-1,0.8-1.1C220.8,530.3,224.5,529.6,228.1,529.2 M230.2,527.1
		c0,0-9.4,0.9-11.2,2s-2.4,4.8-2.4,4.8l12.9-0.8C229.6,533,229.6,533,230.2,527.1L230.2,527.1z"/>
</g>
<path fill="#605443" d="M196.3,547.6C196.3,547.6,196.3,547.6,196.3,547.6c-3.8-0.1-10-0.4-10.5-0.3c-1.3,0.1-1.6,0-2.4-1
	c-0.1-0.1-4.1-12.3-2.7-13.9c0.7-0.8,1.4-0.8,6.7-0.9c2.1,0,5-0.1,8.9-0.2c0.6,0,1,0.4,1,1c0,0.6-0.4,1-1,1c-4,0.1-6.9,0.2-9,0.2
	c-2.7,0.1-4.5,0.1-5.1,0.2c0,2,2.1,10.4,2.7,11.4c0.1,0.1,0.1,0.2,0.2,0.2c0.1,0,0.3,0,0.5,0c0.6-0.1,8.4,0.2,10.7,0.3
	c0.6,0,1,0.5,1,1C197.3,547.2,196.9,547.6,196.3,547.6z"/>
<path fill="#605443" d="M196.4,547.6c-0.5,0-1-0.4-1-1c0-0.6,0.4-1,1-1c2.4-0.1,10.1-0.4,10.7-0.3c0.2,0,0.4,0,0.5,0
	c0.1-0.1,0.1-0.1,0.2-0.2c0.4-0.9,2.6-9.4,2.6-11.4c-0.6-0.1-2.3-0.1-5.1-0.2c-2.1,0-5-0.1-9-0.2c-0.6,0-1-0.5-1-1s0.5-1,1-1
	c4,0.1,6.8,0.2,8.9,0.2c5.3,0.1,6,0.1,6.7,0.9c0.4,0.4,0.8,0.9-0.7,7.2c-0.1,0.6-1.4,5.9-2,6.7c-0.8,1-1.2,1.1-2.5,1
	C206.4,547.3,200.3,547.5,196.4,547.6C196.5,547.6,196.5,547.6,196.4,547.6z"/>
<path fill="#605443" d="M166.8,557.9c-2.4,0-5.5,0-6.3-0.1c-1.3-0.2-1.8-0.3-2.2-18c0-0.6,0.4-1,1-1c0.5,0,1,0.4,1,1
	c0.1,3.6,0.3,14,0.9,16.1c1.3,0.1,5,0.1,7.8,0.1c0.5-1.6,0.5-3.3,0.5-5.6c0-0.6,0.4-1,1-1s1,0.4,1,1c0,2.8,0,4.7-0.8,6.9l-0.2,0.6
	l-0.7,0C169.4,557.9,168.2,557.9,166.8,557.9z"/>
<path fill="#605443" d="M173.8,555.6h-3.4c-0.6,0-1-0.4-1-1s0.4-1,1-1h2c0.4-1.2,0.4-1.7,0.4-3.9c0-0.6,0.4-1,1-1s1,0.4,1,1
	c0,2.6,0,3.2-0.8,5.3L173.8,555.6z"/>
<path fill="#605443" d="M226.4,558.1c-1.4,0-2.5,0-2.8,0l-0.7,0l-0.2-0.6c-0.8-2.2-0.8-4.2-0.8-6.9c0-0.6,0.4-1,1-1s1,0.4,1,1
	c0,2.3,0,4,0.5,5.6c2.7,0,6.4,0,7.8-0.1c0.6-2.1,0.8-12.5,0.9-16.1c0-0.6,0.5-1,1-1c0.6,0,1,0.5,1,1c-0.4,17.7-0.9,17.8-2.2,18
	C232.1,558.1,228.9,558.1,226.4,558.1z"/>
<path fill="#605443" d="M223,555.8h-3.4l-0.2-0.6c-0.8-2.1-0.8-2.7-0.8-5.3c0-0.6,0.4-1,1-1s1,0.4,1,1c0,2.3,0,2.7,0.4,3.9h2
	c0.6,0,1,0.4,1,1S223.6,555.8,223,555.8z"/>
<path fill="#605443" d="M195.2,547c-0.6,0-1-0.4-1-1v-12.7c0-0.6,0.4-1,1-1s1,0.4,1,1V546C196.2,546.6,195.7,547,195.2,547z"/>
<path fill="#605443" d="M197.9,547c-0.6,0-1-0.4-1-1v-12.7c0-0.6,0.4-1,1-1s1,0.4,1,1V546C198.9,546.6,198.5,547,197.9,547z"/>
<path fill="#605443" d="M200.7,547c-0.6,0-1-0.4-1-1v-12.7c0-0.6,0.4-1,1-1s1,0.4,1,1V546C201.7,546.6,201.3,547,200.7,547z"/>
<path fill="#605443" d="M203.5,547c-0.6,0-1-0.4-1-1v-12.7c0-0.6,0.4-1,1-1s1,0.4,1,1V546C204.5,546.6,204.1,547,203.5,547z"/>
<path fill="#605443" d="M206.2,547c-0.6,0-1-0.4-1-1v-12.7c0-0.6,0.4-1,1-1s1,0.4,1,1V546C207.2,546.6,206.8,547,206.2,547z"/>
<path fill="#605443" d="M209,545.5c-0.6,0-1-0.4-1-1v-11.6c0-0.6,0.4-1,1-1s1,0.4,1,1v11.6C210,545.1,209.6,545.5,209,545.5z"/>
<path fill="#605443" d="M184.1,545.5c-0.6,0-1-0.4-1-1v-11.6c0-0.6,0.4-1,1-1s1,0.4,1,1v11.6C185.1,545.1,184.6,545.5,184.1,545.5z"
	/>
<path fill="#605443" d="M192.4,547c-0.6,0-1-0.4-1-1v-12.7c0-0.6,0.4-1,1-1s1,0.4,1,1V546C193.4,546.6,192.9,547,192.4,547z"/>
<path fill="#605443" d="M189.6,547c-0.6,0-1-0.4-1-1v-12.7c0-0.6,0.4-1,1-1s1,0.4,1,1V546C190.6,546.6,190.2,547,189.6,547z"/>
<path fill="#605443" d="M186.8,547c-0.6,0-1-0.4-1-1v-12.7c0-0.6,0.4-1,1-1s1,0.4,1,1V546C187.8,546.6,187.4,547,186.8,547z"/>
<path fill="#605443" d="M173.4,509.2c-0.5,0-0.9-0.4-1-0.9c-0.1-0.5,0.3-1.1,0.8-1.1c18.6-2.7,46,0,46.3,0c0.5,0.1,1,0.5,0.9,1.1
	s-0.5,0.9-1.1,0.9c-0.3,0-27.4-2.6-45.8,0C173.5,509.2,173.4,509.2,173.4,509.2z"/>
<g>
	<path fill="#605443" d="M166.6,541.4h1.5c0,1,0,2,0,2.7c-0.5-0.2-1-0.6-1.2-0.8C166.7,542.8,166.6,542.1,166.6,541.4 M164.6,539.4
		c0.1,1.6-0.1,3.4,0.7,4.8c0.6,1,2.3,1.9,3.4,1.9c0.3,0,0.6,0,0.8-0.2c0.9-0.7,0.3-6.4,0.3-6.4L164.6,539.4L164.6,539.4z"/>
</g>
<g>
	<path fill="#605443" d="M226.2,541.4c0,0.8-0.1,1.5-0.4,1.9c-0.2,0.3-0.7,0.7-1.2,0.8c0-0.7,0-1.6,0-2.7H226.2 M228.2,539.4
		l-5.3,0.1c0,0-0.6,5.7,0.3,6.4c0.2,0.1,0.5,0.2,0.8,0.2c1.1,0,2.8-0.9,3.4-1.9C228.3,542.9,228,541,228.2,539.4L228.2,539.4z"/>
</g>
<path fill="#605443" d="M181.8,547.1c-0.5,0-0.9-0.3-1-0.8c-1.8-7.6-4.7-20.3-12.1-24.4c-0.5-0.3-0.6-0.9-0.4-1.4
	c0.3-0.5,0.9-0.6,1.4-0.4c8.1,4.6,11.2,17.8,13.1,25.7c0.1,0.5-0.2,1.1-0.7,1.2C181.9,547.1,181.8,547.1,181.8,547.1z"/>
<path fill="#605443" d="M211.4,547.1c-0.1,0-0.2,0-0.2,0c-0.5-0.1-0.9-0.7-0.7-1.2c1.8-7.9,4.9-21.1,13-25.7
	c0.5-0.3,1.1-0.1,1.4,0.4c0.3,0.5,0.1,1.1-0.4,1.4c-7.4,4.2-10.3,16.9-12.1,24.4C212.2,546.8,211.8,547.1,211.4,547.1z"/>
<g>
	<path fill="#605443" d="M199.8,508.9h-6.6c-0.8,0-1.5,0.7-1.5,1.5c0,0.8,0.7,1.5,1.5,1.5h6.6c0.8,0,1.5-0.7,1.5-1.5
		C201.2,509.6,200.6,508.9,199.8,508.9L199.8,508.9z"/>
</g>
<path fill="#605443" d="M144.8,565.4c-0.2,0-0.5-0.1-0.7-0.2c-0.4-0.4-0.5-1-0.1-1.4l11.9-13.7c0.4-0.4,1-0.5,1.4-0.1
	c0.4,0.4,0.5,1,0.1,1.4l-11.9,13.7C145.4,565.3,145.1,565.4,144.8,565.4z"/>
<path fill="#605443" d="M248.2,565.4c-0.3,0-0.6-0.1-0.8-0.3l-11.9-13.7c-0.4-0.4-0.3-1,0.1-1.4s1-0.3,1.4,0.1l11.9,13.7
	c0.4,0.4,0.3,1-0.1,1.4C248.7,565.3,248.5,565.4,248.2,565.4z"/>
<path fill="#605443" d="M213,568.2h-29.3l3.4-6.7h22.6L213,568.2z M187,566.2h22.8l-1.4-2.7h-20.1L187,566.2z"/>
</svg>
