<?xml version="1.0" encoding="utf-8"?>
<!-- Generator: Adobe Illustrator 18.0.0, SVG Export Plug-In . SVG Version: 6.00 Build 0)  -->
<!DOCTYPE svg PUBLIC "-//W3C//DTD SVG 1.1//EN" "http://www.w3.org/Graphics/SVG/1.1/DTD/svg11.dtd">
<svg version="1.1" id="Layer_1" xmlns="http://www.w3.org/2000/svg" xmlns:xlink="http://www.w3.org/1999/xlink" x="0px" y="0px"
	 viewBox="78.3 278.2 78.5 69.3" enable-background="new 78.3 278.2 78.5 69.3" xml:space="preserve">
<path fill="#605443" d="M145.4,312.8c-3.8,0-7.5-2.1-9.5-5.7c-2.2-4.3-0.6-9.5,3.7-11.8c1.7-0.9,3.6-1.1,5.5-0.5
	c1.8,0.6,3.3,1.8,4.2,3.5c0.7,1.4,0.9,3,0.4,4.5c-0.5,1.5-1.5,2.8-2.9,3.5c-1.2,0.6-2.5,0.8-3.8,0.4c-1.3-0.4-2.3-1.3-2.9-2.4
	c-1.1-2-0.3-4.5,1.7-5.6c0.8-0.4,1.8-0.5,2.7-0.3c0.9,0.3,1.7,0.9,2.1,1.8c0.4,0.7,0.4,1.5,0.2,2.3c-0.2,0.8-0.8,1.4-1.5,1.8
	c-0.5,0.3-1.1,0.1-1.3-0.4c-0.3-0.5-0.1-1.1,0.4-1.3c0.5-0.3,0.7-0.9,0.4-1.4c-0.2-0.4-0.5-0.7-0.9-0.8c-0.4-0.1-0.8-0.1-1.2,0.1
	c-1.1,0.6-1.5,1.9-0.9,2.9c0.4,0.7,1,1.2,1.7,1.4c0.8,0.2,1.6,0.2,2.2-0.2c1.9-1,2.7-3.4,1.7-5.3c-0.7-1.2-1.7-2.1-3.1-2.5
	c-1.3-0.4-2.7-0.3-3.9,0.4c-3.3,1.7-4.5,5.8-2.8,9.1c2.2,4.2,7.5,5.9,11.7,3.6c2.6-1.4,4.6-4.3,5.2-7.7c0.7-3.7-0.4-7.3-2.8-10
	c-1.5-1.7-6.8-4.1-11-4.1c-4,0-7.1,0-9.8,0c-4.3,0-7.9,0-13.2,0.1c-0.6,0-1-0.4-1-1s0.4-1,1-1c5.3-0.1,8.8-0.1,13.2-0.1
	c2.7,0,5.8,0,9.8,0c4.6,0,10.5,2.6,12.5,4.8c2.8,3.1,4,7.4,3.3,11.6c-0.7,4.1-3.1,7.5-6.2,9.1C148.8,312.4,147.1,312.8,145.4,312.8z
	"/>
<path fill="#605443" d="M89.7,312.8c-1.7,0-3.4-0.4-4.9-1.2c-3.2-1.6-5.5-5.1-6.2-9.1c-0.8-4.3,0.4-8.5,3.3-11.6
	c2-2.2,7.9-4.8,12.5-4.8c4,0,7.1,0,9.8,0c4.4,0,7.9,0,13.2,0.1c0.6,0,1,0.5,1,1s-0.5,1-1,1c-5.3-0.1-8.8-0.1-13.2-0.1
	c-2.7,0-5.8,0-9.8,0c-4.3,0-9.5,2.4-11,4.1c-2.4,2.7-3.4,6.3-2.8,10c0.6,3.4,2.6,6.3,5.2,7.7c2,1.1,4.4,1.3,6.6,0.6
	c2.2-0.7,4-2.2,5.1-4.2c1.7-3.3,0.4-7.3-2.8-9.1c-2.5-1.3-5.6-0.4-7,2.2c-1,1.9-0.3,4.3,1.7,5.3c0.7,0.4,1.5,0.5,2.3,0.2
	c0.7-0.2,1.4-0.7,1.7-1.4c0.6-1.1,0.2-2.4-0.9-2.9c-0.3-0.2-0.8-0.2-1.2-0.1c-0.4,0.1-0.7,0.4-0.9,0.8c-0.1,0.2-0.2,0.5-0.1,0.8
	c0.1,0.3,0.3,0.5,0.5,0.6c0.5,0.3,0.7,0.9,0.4,1.3c-0.3,0.5-0.9,0.7-1.3,0.4c-0.7-0.4-1.2-1-1.5-1.8c-0.2-0.8-0.2-1.6,0.2-2.3
	c0.4-0.9,1.2-1.5,2.1-1.8c0.9-0.3,1.9-0.2,2.7,0.3c2,1.1,2.8,3.6,1.7,5.6c-0.6,1.2-1.6,2-2.9,2.4c-1.3,0.4-2.6,0.3-3.8-0.4
	c-1.4-0.7-2.4-2-2.9-3.5c-0.5-1.5-0.3-3.1,0.4-4.5c1.9-3.5,6.2-4.9,9.7-3c4.2,2.2,5.9,7.5,3.7,11.8c-1.3,2.5-3.6,4.4-6.3,5.2
	C91.9,312.6,90.8,312.8,89.7,312.8z"/>
<path fill="#605443" d="M91.4,287.7c-0.6,0-1.5-0.9-4.9-4.3c-0.4-0.4-0.4-1,0-1.4s1-0.4,1.4,0c2.7,2.7,3.6,3.4,3.8,3.7
	c0.3,0.1,0.5,0.3,0.6,0.6c0.2,0.4,0,1-0.4,1.2C91.8,287.6,91.6,287.7,91.4,287.7z"/>
<path fill="#605443" d="M143.6,287.7c-0.2,0-0.4-0.1-0.5-0.2c-0.4-0.3-0.6-0.8-0.4-1.2c0.1-0.3,0.3-0.5,0.6-0.6
	c0.3-0.2,1.2-1,3.8-3.7c0.4-0.4,1-0.4,1.4,0s0.4,1,0,1.4C145.1,286.9,144.2,287.7,143.6,287.7z"/>
<path fill="#605443" d="M138.9,294.5H95.8c-0.6,0-1-0.4-1-1s0.4-1,1-1h43.1c0.6,0,1,0.4,1,1S139.5,294.5,138.9,294.5z"/>
<g>
	<path fill="#605443" d="M101.2,347.6c-0.6,0-1-0.4-1-1v-36.1c0-2,1.4-3.6,3.2-3.6s3.2,1.6,3.2,3.6c0,0.6-0.4,1-1,1s-1-0.4-1-1
		c0-0.9-0.6-1.6-1.2-1.6s-1.2,0.7-1.2,1.6v36.1C102.2,347.1,101.8,347.6,101.2,347.6z"/>
</g>
<path fill="#605443" d="M132.4,301.3h-30c-0.6,0-1-0.4-1-1s0.4-1,1-1h30c0.6,0,1,0.4,1,1S132.9,301.3,132.4,301.3z"/>
<path fill="#605443" d="M132.9,305h-31c-0.6,0-1-0.4-1-1s0.4-1,1-1h31c0.6,0,1,0.4,1,1S133.4,305,132.9,305z"/>
<path fill="#605443" d="M105.6,347.6c-0.6,0-1-0.4-1-1v-35.6c0-0.6,0.4-1,1-1s1,0.4,1,1v35.6C106.6,347.1,106.2,347.6,105.6,347.6z"
	/>
<g>
	<path fill="#605443" d="M109.7,347.6c-0.6,0-1-0.4-1-1v-36.1c0-2,1.7-3.6,3.9-3.6s3.9,1.6,3.9,3.6c0,0.6-0.4,1-1,1s-1-0.4-1-1
		c0-0.9-0.8-1.6-1.9-1.6s-1.9,0.7-1.9,1.6v36.1C110.7,347.1,110.2,347.6,109.7,347.6z"/>
</g>
<path fill="#605443" d="M115.4,347.6c-0.6,0-1-0.4-1-1v-35.6c0-0.6,0.4-1,1-1s1,0.4,1,1v35.6C116.4,347.1,116,347.6,115.4,347.6z"/>
<g>
	<path fill="#605443" d="M119.6,347.6c-0.6,0-1-0.4-1-1v-36.1c0-2,1.7-3.6,3.9-3.6c2.1,0,3.9,1.6,3.9,3.6c0,0.6-0.4,1-1,1
		s-1-0.4-1-1c0-0.9-0.8-1.6-1.9-1.6s-1.9,0.7-1.9,1.6v36.1C120.6,347.1,120.1,347.6,119.6,347.6z"/>
</g>
<path fill="#605443" d="M125.3,347.6c-0.6,0-1-0.4-1-1v-35.6c0-0.6,0.4-1,1-1s1,0.4,1,1v35.6C126.3,347.1,125.9,347.6,125.3,347.6z"
	/>
<g>
	<path fill="#605443" d="M129.6,347.6c-0.6,0-1-0.4-1-1v-36.1c0-2,1.4-3.6,3.2-3.6s3.2,1.6,3.2,3.6c0,0.6-0.4,1-1,1s-1-0.4-1-1
		c0-0.9-0.6-1.6-1.2-1.6s-1.2,0.7-1.2,1.6v36.1C130.6,347.1,130.2,347.6,129.6,347.6z"/>
</g>
<path fill="#605443" d="M134,347.6c-0.6,0-1-0.4-1-1v-35.6c0-0.6,0.4-1,1-1s1,0.4,1,1v35.6C135,347.1,134.6,347.6,134,347.6z"/>
<path fill="#605443" d="M96.3,347.6c-0.6,0-1-0.4-1-1v-32.5c0-0.6,0.4-1,1-1s1,0.4,1,1v32.5C97.3,347.1,96.9,347.6,96.3,347.6z"/>
<path fill="#605443" d="M139.2,347.6c-0.6,0-1-0.4-1-1v-32.5c0-0.6,0.4-1,1-1s1,0.4,1,1v32.5C140.2,347.1,139.7,347.6,139.2,347.6z"
	/>
<path fill="#605443" d="M147.7,283.5H87c-0.6,0-1-0.4-1-1s0.4-1,1-1h60.6c0.6,0,1,0.4,1,1S148.2,283.5,147.7,283.5z"/>
<path fill="#605443" d="M147.7,280.2H87c-0.6,0-1-0.4-1-1s0.4-1,1-1h60.6c0.6,0,1,0.4,1,1S148.2,280.2,147.7,280.2z"/>
<path fill="#605443" d="M87,283.7c-0.6,0-1-0.4-1-1v-3.5c0-0.6,0.4-1,1-1s1,0.4,1,1v3.5C88,283.3,87.6,283.7,87,283.7z"/>
<path fill="#605443" d="M147.7,283.7c-0.6,0-1-0.4-1-1v-3.5c0-0.6,0.4-1,1-1s1,0.4,1,1v3.5C148.7,283.3,148.2,283.7,147.7,283.7z"/>
</svg>
