<?xml version="1.0" encoding="utf-8"?>
<!-- Generator: Adobe Illustrator 18.0.0, SVG Export Plug-In . SVG Version: 6.00 Build 0)  -->
<!DOCTYPE svg PUBLIC "-//W3C//DTD SVG 1.1//EN" "http://www.w3.org/Graphics/SVG/1.1/DTD/svg11.dtd">
<svg version="1.1" id="Layer_1" xmlns="http://www.w3.org/2000/svg" xmlns:xlink="http://www.w3.org/1999/xlink" x="0px" y="0px"
	 viewBox="103.3 219 45.8 64.6" enable-background="new 103.3 219 45.8 64.6" xml:space="preserve">
<g>
	<rect x="104.3" y="225.6" fill="#FFFFFF" width="20.7" height="27.2"/>
	<path fill="#605443" d="M126,253.8h-22.7v-29.2H126V253.8z M105.3,251.8H124v-25.2h-18.7V251.8z"/>
</g>
<g>
	<rect x="104.3" y="255.4" fill="#FFFFFF" width="20.7" height="27.2"/>
	<path fill="#605443" d="M126,283.5h-22.7v-29.2H126V283.5z M105.3,281.5H124v-25.2h-18.7V281.5z"/>
</g>
<g>
	<polygon fill="#FFFFFF" points="148.1,282.6 127.4,282.6 127.4,255.4 136.1,255.4 148.1,268.7 	"/>
	<path fill="#605443" d="M149.1,283.6h-22.7v-29.2h10.2l12.6,14V283.6z M128.4,281.6h18.7v-12.5l-11.5-12.8h-7.3V281.6z"/>
</g>
<path fill="#605443" d="M104.3,223.8c-0.6,0-1-0.4-1-1V220c0-0.6,0.4-1,1-1s1,0.4,1,1v2.8C105.3,223.4,104.9,223.8,104.3,223.8z"/>
<path fill="#605443" d="M122.7,222.4h-15.3c-0.6,0-1-0.4-1-1s0.4-1,1-1h15.3c0.6,0,1,0.4,1,1S123.2,222.4,122.7,222.4z"/>
<path fill="#605443" d="M148.1,233.6h-9.8c-0.6,0-1-0.4-1-1s0.4-1,1-1h9.8c0.6,0,1,0.4,1,1S148.7,233.6,148.1,233.6z"/>
<path fill="#605443" d="M148.1,226.6h-9.8c-0.6,0-1-0.4-1-1s0.4-1,1-1h9.8c0.6,0,1,0.4,1,1S148.7,226.6,148.1,226.6z"/>
<path fill="#605443" d="M148.1,240.6h-9.8c-0.6,0-1-0.4-1-1s0.4-1,1-1h9.8c0.6,0,1,0.4,1,1S148.7,240.6,148.1,240.6z"/>
<path fill="#605443" d="M148.1,247.5h-6.6c-0.6,0-1-0.4-1-1s0.4-1,1-1h6.6c0.6,0,1,0.4,1,1S148.7,247.5,148.1,247.5z"/>
<path fill="#605443" d="M148.1,254.5h-1.9c-0.6,0-1-0.4-1-1s0.4-1,1-1h1.9c0.6,0,1,0.4,1,1S148.7,254.5,148.1,254.5z"/>
<path fill="#605443" d="M139.2,222.4h-10.6c-0.6,0-1-0.4-1-1s0.4-1,1-1h10.6c0.6,0,1,0.4,1,1S139.7,222.4,139.2,222.4z"/>
<path fill="#605443" d="M125.5,223.8c-0.6,0-1-0.4-1-1V220c0-0.6,0.4-1,1-1s1,0.4,1,1v2.8C126.5,223.4,126.1,223.8,125.5,223.8z"/>
<path fill="#605443" d="M142.9,231.4c-0.6,0-1-0.4-1-1v-2.8c0-0.6,0.4-1,1-1s1,0.4,1,1v2.8C143.9,230.9,143.5,231.4,142.9,231.4z"/>
<path fill="#605443" d="M142.9,245.5c-0.6,0-1-0.4-1-1v-2.8c0-0.6,0.4-1,1-1s1,0.4,1,1v2.8C143.9,245,143.5,245.5,142.9,245.5z"/>
<path fill="#605443" d="M147.6,266c-0.6,0-1-0.4-1-1v-4.3l-12.2-16.2v-17.8h-6.9c-0.6,0-1-0.4-1-1s0.4-1,1-1h8.9v19.2l12.2,16.2v4.9
	C148.6,265.5,148.2,266,147.6,266z"/>
</svg>
