<?xml version="1.0" encoding="utf-8"?>
<!-- Generator: Adobe Illustrator 18.0.0, SVG Export Plug-In . SVG Version: 6.00 Build 0)  -->
<!DOCTYPE svg PUBLIC "-//W3C//DTD SVG 1.1//EN" "http://www.w3.org/Graphics/SVG/1.1/DTD/svg11.dtd">
<svg version="1.1" id="Слой_1" xmlns="http://www.w3.org/2000/svg" xmlns:xlink="http://www.w3.org/1999/xlink" x="0px" y="0px"
	 viewBox="162 16.6 292.1 755.8" enable-background="new 162 16.6 292.1 755.8" xml:space="preserve">
<g>
	<path fill="#715D4B" d="M179.3,768.9h-13.5V16.6h137.9v56.5h-43.2v15.4h-81.2V768.9z M168.8,765.9h7.5V85.4h81.2V70.1h43.2V19.6
		H168.8V765.9z"/>
	<path fill="#715D4B" d="M259,768.1c-0.6,0-1-0.4-1-1v-78.8c0-0.6,0.4-1,1-1s1,0.4,1,1v78.8C260,767.7,259.6,768.1,259,768.1z"/>
	<path fill="#715D4B" d="M269.3,768.3c-0.6,0-1-0.4-1-1v-79c0-0.6,0.4-1,1-1s1,0.4,1,1v79C270.3,767.8,269.8,768.3,269.3,768.3z"/>
	<path fill="#715D4B" d="M215.7,768.1c-0.6,0-1-0.4-1-1v-78.8c0-0.6,0.4-1,1-1s1,0.4,1,1v78.8C216.7,767.7,216.2,768.1,215.7,768.1z
		"/>
	<path fill="#715D4B" d="M226.1,768.3c-0.6,0-1-0.4-1-1v-79c0-0.6,0.4-1,1-1s1,0.4,1,1v79C227.1,767.8,226.6,768.3,226.1,768.3z"/>
	<path fill="#715D4B" d="M178.6,767.6c-0.3,0-0.5-0.2-0.5-0.5v-78.8c0-0.3,0.2-0.5,0.5-0.5s0.5,0.2,0.5,0.5v78.8
		C179.1,767.4,178.9,767.6,178.6,767.6z"/>
	<path fill="#715D4B" d="M188.9,768.3c-0.6,0-1-0.4-1-1v-79c0-0.6,0.4-1,1-1s1,0.4,1,1v79C189.9,767.8,189.5,768.3,188.9,768.3z"/>
	<path fill="#715D4B" d="M336.7,768.4c-0.6,0-1-0.4-1-1v-79.1c0-0.6,0.4-1,1-1s1,0.4,1,1v79.1C337.7,767.9,337.3,768.4,336.7,768.4z
		"/>
	<path fill="#715D4B" d="M347.1,768.5c-0.6,0-1-0.4-1-1v-79.2c0-0.6,0.4-1,1-1s1,0.4,1,1v79.2C348.1,768.1,347.7,768.5,347.1,768.5z
		"/>
	<path fill="#715D4B" d="M407.6,768.5c-0.6,0-1-0.4-1-1v-79.3c0-0.6,0.4-1,1-1s1,0.4,1,1v79.3C408.6,768.1,408.1,768.5,407.6,768.5z
		"/>
	<path fill="#715D4B" d="M417.9,768.6c-0.6,0-1-0.4-1-1v-79.3c0-0.6,0.4-1,1-1s1,0.4,1,1v79.3C418.9,768.2,418.5,768.6,417.9,768.6z
		"/>
	<path fill="#715D4B" d="M259,688.8h-32.9c-0.3,0-0.5-0.2-0.5-0.5s0.2-0.5,0.5-0.5H259c0.3,0,0.5,0.2,0.5,0.5S259.3,688.8,259,688.8
		z"/>
	<path fill="#715D4B" d="M336.7,688.8h-67.5c-0.3,0-0.5-0.2-0.5-0.5s0.2-0.5,0.5-0.5h67.5c0.3,0,0.5,0.2,0.5,0.5
		S337,688.8,336.7,688.8z"/>
	<rect x="162" y="762.4" fill="#5E5340" width="261" height="10"/>
	<path fill="#715D4B" d="M407.6,688.8h-60.5c-0.3,0-0.5-0.2-0.5-0.5s0.2-0.5,0.5-0.5h60.5c0.3,0,0.5,0.2,0.5,0.5
		S407.8,688.8,407.6,688.8z"/>
	<rect x="258" y="84.9" fill="#715D4B" width="2" height="541.9"/>
	<rect x="441" y="430.9" fill="#715D4B" width="2" height="2.4"/>
	<rect x="441.5" y="308.1" fill="#715D4B" width="3" height="125.7"/>
	<rect x="442" y="559.1" fill="#715D4B" width="2" height="122.8"/>
	<rect x="416.9" y="687.3" fill="#715D4B" width="27.1" height="2"/>
	<path fill="#715D4B" d="M407.6,626.4H259c-0.3,0-0.5-0.2-0.5-0.5s0.2-0.5,0.5-0.5h148.5c0.3,0,0.5,0.2,0.5,0.5
		S407.8,626.4,407.6,626.4z"/>
	<rect x="416.9" y="99.1" fill="#715D4B" width="2" height="582.6"/>
	<path fill="#715D4B" d="M259,660.2c-0.3,0-0.5-0.2-0.5-0.5v-36.4c0-0.3,0.2-0.5,0.5-0.5s0.5,0.2,0.5,0.5v36.4
		C259.5,660,259.3,660.2,259,660.2z"/>
	<path fill="#715D4B" d="M259,597.7c-0.3,0-0.5-0.2-0.5-0.5v-36.7c0-0.3,0.2-0.5,0.5-0.5s0.5,0.2,0.5,0.5v36.7
		C259.5,597.5,259.3,597.7,259,597.7z"/>
	<path fill="#715D4B" d="M259,535.3c-0.3,0-0.5-0.2-0.5-0.5v-36.7c0-0.3,0.2-0.5,0.5-0.5s0.5,0.2,0.5,0.5v36.7
		C259.5,535.1,259.3,535.3,259,535.3z"/>
	<path fill="#715D4B" d="M259,472.8c-0.3,0-0.5-0.2-0.5-0.5v-36.7c0-0.3,0.2-0.5,0.5-0.5s0.5,0.2,0.5,0.5v36.7
		C259.5,472.6,259.3,472.8,259,472.8z"/>
	<path fill="#715D4B" d="M259,410.5c-0.3,0-0.5-0.2-0.5-0.5v-36.7c0-0.3,0.2-0.5,0.5-0.5s0.5,0.2,0.5,0.5V410
		C259.5,410.3,259.3,410.5,259,410.5z"/>
	<path fill="#715D4B" d="M259,348c-0.3,0-0.5-0.2-0.5-0.5v-36.7c0-0.3,0.2-0.5,0.5-0.5s0.5,0.2,0.5,0.5v36.7
		C259.5,347.8,259.3,348,259,348z"/>
	<path fill="#715D4B" d="M259,285.6c-0.3,0-0.5-0.2-0.5-0.5v-36.7c0-0.3,0.2-0.5,0.5-0.5s0.5,0.2,0.5,0.5v36.7
		C259.5,285.3,259.3,285.6,259,285.6z"/>
	<path fill="#715D4B" d="M259,223.1c-0.3,0-0.5-0.2-0.5-0.5v-36.7c0-0.3,0.2-0.5,0.5-0.5s0.5,0.2,0.5,0.5v36.7
		C259.5,222.9,259.3,223.1,259,223.1z"/>
	<path fill="#715D4B" d="M259,160.8c-0.3,0-0.5-0.2-0.5-0.5v-36.9c0-0.3,0.2-0.5,0.5-0.5s0.5,0.2,0.5,0.5v36.9
		C259.5,160.6,259.3,160.8,259,160.8z"/>
	<path fill="#715D4B" d="M446.3,682.5l-1.8-0.9l0.4-0.9c0.2-0.5,0.8-1.1,1.5-1.1h1v2h-0.7L446.3,682.5z"/>
	<path fill="#715D4B" d="M445.3,682.8h-1v-2h0.6v-0.7h2v1C446.9,682,446.2,682.8,445.3,682.8z"/>
	<path fill="#715D4B" d="M445.8,687.4h-2v-0.6c-0.2-0.2-0.4-0.5-0.4-0.8v-2.7c0-0.3,0.2-0.6,0.4-0.8c0,0,0.1-0.1,0.1-0.1l0.1-0.1
		c0-0.1,0.1-0.2,0.2-0.3v-1h2v1.5c0,0.3-0.1,0.5-0.3,0.7c-0.1,0.2-0.2,0.4-0.4,0.5c0,0.1-0.1,0.2-0.2,0.3v1.3
		c0.2,0.2,0.4,0.5,0.4,0.8V687.4z"/>
	<path fill="#715D4B" d="M445.4,687.6h-2v-1c0-0.4,0.3-1.1,1.2-1.1h1v2h-0.2V687.6z M444.7,686.4l0,1c0,0,0,0,0,0V686.4z"/>
	<path fill="#715D4B" d="M444.4,689.3H442v-2h1.4v-1.7h2v2.7C445.4,688.9,445,689.3,444.4,689.3z"/>
	<rect x="176.8" y="687.3" fill="#715D4B" width="267.2" height="2"/>
	<rect x="176.8" y="679.7" fill="#715D4B" width="270.6" height="2"/>
	<path fill="#715D4B" d="M258.9,714C258.9,714,258.9,714,258.9,714c-0.3,0-0.5-0.2-0.5-0.5c0.1-8.3-6-15.1-14.2-16
		c-0.3,0-0.5-0.3-0.4-0.5c0-0.3,0.3-0.5,0.5-0.4c8.7,0.9,15.2,8.2,15.1,17C259.4,713.8,259.2,714,258.9,714z"/>
	<path fill="#715D4B" d="M226.2,714c-0.3,0-0.5-0.2-0.5-0.5c-0.1-8.6,6.5-16.1,15.1-17c0.3,0,0.5,0.2,0.5,0.4s-0.2,0.5-0.4,0.5
		c-8.1,0.8-14.3,7.9-14.2,16C226.7,713.8,226.5,714,226.2,714C226.2,714,226.2,714,226.2,714z"/>
	<path fill="#715D4B" d="M258.9,702.4c-0.2,0-0.3-0.1-0.4-0.2c-3.3-4.7-8.4-7.7-14-8.3c-0.3,0-0.5-0.3-0.4-0.6
		c0-0.3,0.3-0.5,0.6-0.4c5.9,0.6,11.2,3.8,14.7,8.7c0.2,0.2,0.1,0.5-0.1,0.7C259.1,702.4,259,702.4,258.9,702.4z"/>
	<path fill="#715D4B" d="M226.2,702.4c-0.1,0-0.2,0-0.3-0.1c-0.2-0.2-0.3-0.5-0.1-0.7c3.2-4.9,8.6-8.1,14.7-8.7
		c0.3,0,0.5,0.2,0.6,0.4c0,0.3-0.2,0.5-0.4,0.6c-5.8,0.6-10.9,3.6-14,8.3C226.5,702.4,226.3,702.4,226.2,702.4z"/>
	<path fill="#715D4B" d="M258.9,701.9c-0.2,0-0.3-0.1-0.4-0.2c-3.3-4.5-8.3-7.4-13.6-8c-0.3,0-0.5-0.3-0.4-0.6
		c0-0.3,0.3-0.5,0.6-0.4c5.7,0.6,10.9,3.7,14.3,8.4c0.2,0.2,0.1,0.5-0.1,0.7C259.1,701.9,259,701.9,258.9,701.9z"/>
	<path fill="#715D4B" d="M226.2,701.9c-0.1,0-0.2,0-0.3-0.1c-0.2-0.2-0.3-0.5-0.1-0.7c3.3-4.7,8.6-7.8,14.3-8.5
		c0.3,0,0.5,0.2,0.6,0.4s-0.2,0.5-0.4,0.6c-5.5,0.6-10.5,3.5-13.6,8C226.5,701.9,226.3,701.9,226.2,701.9z"/>
	<path fill="#715D4B" d="M336.7,714.2c-0.2,0-0.5-0.2-0.5-0.4c-1.1-6.4-5.8-11.7-12.1-13.3c-0.3-0.1-0.4-0.3-0.4-0.6
		c0.1-0.3,0.3-0.4,0.6-0.4c6.7,1.8,11.7,7.3,12.9,14.1C337.3,713.9,337.1,714.1,336.7,714.2C336.8,714.2,336.8,714.2,336.7,714.2z"
		/>
	<path fill="#715D4B" d="M324.2,700.3c0,0-0.1,0-0.1,0c-6.1-1.7-12.7-2.6-19.4-2.7c-0.3,0-0.5-0.2-0.5-0.5c0-0.3,0.2-0.5,0.5-0.5
		c6.8,0.1,13.4,1.1,19.6,2.8c0.3,0.1,0.4,0.3,0.3,0.6C324.7,700.2,324.5,700.3,324.2,700.3z"/>
	<path fill="#715D4B" d="M281.8,700.3c-0.2,0-0.4-0.2-0.5-0.4c-0.1-0.3,0.1-0.5,0.4-0.6c6.8-1.7,13.2-2.6,19.6-2.8
		c0.3,0,0.5,0.2,0.5,0.5c0,0.3-0.2,0.5-0.5,0.5c-6.3,0.1-12.6,1-19.4,2.7C281.8,700.3,281.8,700.3,281.8,700.3z"/>
	<path fill="#715D4B" d="M269.3,714.2C269.2,714.2,269.2,714.2,269.3,714.2c-0.4-0.1-0.5-0.3-0.5-0.6c1.3-6.9,6.2-12.3,12.9-14.1
		c0.3-0.1,0.5,0.1,0.6,0.4c0.1,0.3-0.1,0.5-0.4,0.6c-6.2,1.7-10.9,6.8-12.1,13.4C269.7,714,269.5,714.2,269.3,714.2z"/>
	<path fill="#715D4B" d="M336.7,714.2c-0.3,0-0.5-0.2-0.5-0.5v-24.9h-66.5v24.9c0,0.3-0.2,0.5-0.5,0.5s-0.5-0.2-0.5-0.5v-25.4
		c0-0.3,0.2-0.5,0.5-0.5h67.5c0.3,0,0.5,0.2,0.5,0.5v25.4C337.2,714,337,714.2,336.7,714.2z"/>
	<path fill="#715D4B" d="M336.7,704.9c-0.2,0-0.3-0.1-0.4-0.2c-2.6-3.8-6.5-6.5-11.2-7.9c-0.3-0.1-0.4-0.4-0.3-0.6
		c0.1-0.3,0.4-0.4,0.6-0.3c4.9,1.5,9.1,4.4,11.8,8.3c0.2,0.2,0.1,0.5-0.1,0.7C336.9,704.9,336.8,704.9,336.7,704.9z"/>
	<path fill="#715D4B" d="M325.2,696.8c0,0-0.1,0-0.1,0c-6.7-1.8-13.5-2.7-20.1-2.9c-0.3,0-0.5-0.2-0.5-0.5c0-0.3,0.2-0.5,0.5-0.5
		c0,0,0,0,0,0c6.7,0.1,13.6,1.1,20.4,2.9c0.3,0.1,0.4,0.3,0.4,0.6C325.7,696.7,325.5,696.8,325.2,696.8z"/>
	<path fill="#715D4B" d="M280.8,696.8c-0.2,0-0.4-0.1-0.5-0.4c-0.1-0.3,0.1-0.5,0.4-0.6c6.8-1.8,13.6-2.8,20.4-2.9c0,0,0,0,0,0
		c0.3,0,0.5,0.2,0.5,0.5c0,0.3-0.2,0.5-0.5,0.5c-6.6,0.1-13.4,1.1-20.1,2.9C280.9,696.8,280.8,696.8,280.8,696.8z"/>
	<path fill="#715D4B" d="M269.3,704.9c-0.1,0-0.2,0-0.3-0.1c-0.2-0.2-0.3-0.5-0.1-0.7c2.8-4.1,7-7,11.8-8.3c0.3-0.1,0.5,0.1,0.6,0.4
		c0.1,0.3-0.1,0.5-0.4,0.6c-4.6,1.2-8.5,4-11.2,7.9C269.6,704.9,269.4,704.9,269.3,704.9z"/>
	<path fill="#715D4B" d="M336.7,704.6c-0.2,0-0.3-0.1-0.4-0.2c-2.8-3.7-6.7-6.5-11.1-7.7c-0.3-0.1-0.4-0.3-0.3-0.6
		c0.1-0.3,0.3-0.4,0.6-0.3c4.6,1.3,8.7,4.1,11.6,8.1c0.2,0.2,0.1,0.5-0.1,0.7C336.9,704.5,336.8,704.6,336.7,704.6z"/>
	<path fill="#715D4B" d="M325.2,696.6c0,0-0.1,0-0.1,0c-6.6-1.8-13.2-2.7-19.7-2.9c-0.3,0-0.5-0.2-0.5-0.5c0-0.3,0.2-0.5,0.5-0.5
		c6.6,0.1,13.3,1.1,20,2.9c0.3,0.1,0.4,0.3,0.4,0.6C325.7,696.4,325.5,696.6,325.2,696.6z"/>
	<path fill="#715D4B" d="M280.8,696.6c-0.2,0-0.4-0.1-0.5-0.4c-0.1-0.3,0.1-0.5,0.4-0.6c6.2-1.7,12.8-2.6,20-2.9
		c0.3,0,0.5,0.2,0.5,0.5s-0.2,0.5-0.5,0.5c-7.1,0.3-13.6,1.2-19.8,2.9C280.9,696.6,280.8,696.6,280.8,696.6z"/>
	<path fill="#715D4B" d="M269.3,704.4c-0.1,0-0.2,0-0.3-0.1c-0.2-0.2-0.3-0.5-0.1-0.7c3-4,7-6.8,11.8-8.1c0.3-0.1,0.5,0.1,0.6,0.4
		c0.1,0.3-0.1,0.5-0.4,0.6c-4.5,1.2-8.4,3.9-11.2,7.7C269.6,704.4,269.4,704.4,269.3,704.4z"/>
	<path fill="#715D4B" d="M407.6,714.2c-0.2,0-0.5-0.2-0.5-0.4c-1.1-6.4-5.8-11.7-12.1-13.3c-0.3-0.1-0.4-0.3-0.4-0.6
		c0.1-0.3,0.4-0.4,0.6-0.4c6.7,1.8,11.7,7.3,12.9,14.1C408.1,713.9,407.9,714.1,407.6,714.2C407.6,714.2,407.6,714.2,407.6,714.2z"
		/>
	<path fill="#715D4B" d="M395.1,700.3c-0.1,0-0.1,0-0.2,0c-5.1-1.6-10.3-2.6-15.5-2.9c-0.3,0-0.5-0.2-0.5-0.5c0-0.3,0.2-0.5,0.5-0.5
		c5.3,0.2,10.6,1.2,15.7,2.9c0.3,0.1,0.4,0.4,0.3,0.6C395.5,700.2,395.3,700.3,395.1,700.3z"/>
	<path fill="#715D4B" d="M359.6,700.3c-0.2,0-0.4-0.1-0.5-0.3c-0.1-0.3,0.1-0.5,0.3-0.6c5.4-1.8,11-2.8,16.5-2.9c0,0,0,0,0,0
		c0.3,0,0.5,0.2,0.5,0.5c0,0.3-0.2,0.5-0.5,0.5c-5.5,0.1-10.9,1.1-16.2,2.8C359.7,700.3,359.6,700.3,359.6,700.3z"/>
	<path fill="#715D4B" d="M347.1,714.2C347.1,714.2,347,714.2,347.1,714.2c-0.4-0.1-0.5-0.3-0.5-0.6c1.3-6.8,6.3-12.3,12.9-14.1
		c0.3-0.1,0.5,0.1,0.6,0.3c0.1,0.3-0.1,0.5-0.3,0.6c-6.2,1.7-10.9,6.9-12.1,13.4C347.5,714,347.3,714.2,347.1,714.2z"/>
	<path fill="#715D4B" d="M407.6,714.2c-0.3,0-0.5-0.2-0.5-0.5v-24.9h-59.5v24.9c0,0.3-0.2,0.5-0.5,0.5s-0.5-0.2-0.5-0.5v-25.4
		c0-0.3,0.2-0.5,0.5-0.5h60.5c0.3,0,0.5,0.2,0.5,0.5v25.4C408.1,714,407.8,714.2,407.6,714.2z"/>
	<path fill="#715D4B" d="M407.6,704.6c-0.2,0-0.3-0.1-0.4-0.2c-2.7-3.6-6.6-6.3-11.1-7.7c-0.3-0.1-0.4-0.4-0.3-0.6
		c0.1-0.3,0.4-0.4,0.6-0.3c4.7,1.4,8.8,4.3,11.6,8.1c0.2,0.2,0.1,0.5-0.1,0.7C407.8,704.5,407.7,704.6,407.6,704.6z"/>
	<path fill="#715D4B" d="M396.2,696.7c-0.1,0-0.1,0-0.2,0c-5.2-1.7-10.6-2.7-16-3c-0.3,0-0.5-0.2-0.5-0.5c0-0.3,0.2-0.5,0.5-0.5
		c5.5,0.2,11,1.3,16.3,3c0.3,0.1,0.4,0.4,0.3,0.6C396.6,696.6,396.4,696.7,396.2,696.7z"/>
	<path fill="#715D4B" d="M358.3,696.6c-0.2,0-0.4-0.1-0.5-0.3c-0.1-0.3,0.1-0.5,0.3-0.6c5.9-1.9,11.7-2.9,17.1-3
		c0.3,0,0.5,0.2,0.5,0.5s-0.2,0.5-0.5,0.5c-5.3,0.1-11,1.1-16.8,3C358.4,696.6,358.4,696.6,358.3,696.6z"/>
	<path fill="#715D4B" d="M347.2,704.6c-0.1,0-0.2,0-0.3-0.1c-0.2-0.2-0.3-0.5-0.1-0.7c2.8-3.9,6.9-6.8,11.5-8.1
		c0.3-0.1,0.5,0.1,0.6,0.3s-0.1,0.5-0.3,0.6c-4.4,1.2-8.3,4-11,7.7C347.5,704.5,347.4,704.6,347.2,704.6z"/>
	<path fill="#715D4B" d="M407.6,704.9c-0.2,0-0.3-0.1-0.4-0.2c-2.7-3.8-6.7-6.6-11.1-7.8c-0.3-0.1-0.4-0.3-0.4-0.6
		c0.1-0.3,0.3-0.4,0.6-0.4c4.7,1.3,8.8,4.2,11.6,8.2c0.2,0.2,0.1,0.5-0.1,0.7C407.8,704.9,407.7,704.9,407.6,704.9z"/>
	<path fill="#715D4B" d="M396.2,696.9c-0.1,0-0.1,0-0.2,0c-5.3-1.7-10.8-2.7-16.4-3c-0.3,0-0.5-0.2-0.5-0.5c0-0.3,0.2-0.5,0.5-0.5
		c5.6,0.2,11.2,1.3,16.6,3c0.3,0.1,0.4,0.4,0.3,0.6C396.6,696.8,396.4,696.9,396.2,696.9z"/>
	<path fill="#715D4B" d="M358.5,696.9c-0.2,0-0.4-0.1-0.5-0.3c-0.1-0.3,0.1-0.5,0.3-0.6c5.9-1.9,11.8-2.9,17.4-3c0,0,0,0,0,0
		c0.3,0,0.5,0.2,0.5,0.5c0,0.3-0.2,0.5-0.5,0.5c-5.5,0.1-11.3,1.1-17.1,3C358.6,696.9,358.5,696.9,358.5,696.9z"/>
	<path fill="#715D4B" d="M347.1,704.9c-0.1,0-0.2,0-0.3-0.1c-0.2-0.2-0.3-0.5-0.1-0.7c2.9-4,7-6.9,11.6-8.2c0.3-0.1,0.5,0.1,0.6,0.4
		c0.1,0.3-0.1,0.5-0.4,0.6c-4.4,1.2-8.4,4-11.1,7.8C347.4,704.9,347.3,704.9,347.1,704.9z"/>
	<path fill="#715D4B" d="M376.2,697.9c-0.1,0-0.3,0-0.4-0.1l-0.2-0.2c-0.1-0.1-0.1-0.2-0.1-0.4v-0.6c0-0.1,0-0.2,0.1-0.3l-0.3-2.5
		c-0.1-0.1-0.2-0.2-0.3-0.4l-0.1-0.9c0-0.1,0-0.2,0-0.3l0.1-0.1v-0.3c0-0.3,0.2-0.5,0.5-0.5h0.1c0.3,0,0.5,0.2,0.5,0.5
		c0,0.1,0,0.2-0.1,0.3v0c0,0.1,0,0.2-0.1,0.2l-0.1,0.1l0.1,0.5c0.2,0.1,0.3,0.2,0.3,0.4l0.4,3.1c0,0.1,0,0.3-0.1,0.4v0.1l0.1,0.1
		c0.2,0.2,0.2,0.5,0,0.7C376.5,697.9,376.3,697.9,376.2,697.9z"/>
	<path fill="#715D4B" d="M376.4,697.9c-0.2,0-0.4-0.1-0.5-0.2c-0.2-0.2-0.2-0.5,0-0.7c0.1-0.1,0.4-0.2,0.5-0.1
		c0.2-0.1,0.4,0,0.5,0.1c0.2,0.2,0.2,0.5,0,0.7C376.8,697.8,376.6,697.9,376.4,697.9z"/>
	<path fill="#715D4B" d="M377,697.9h-0.2c-0.3,0-0.5-0.2-0.5-0.5s0.2-0.5,0.5-0.5h0.2c0.3,0,0.5,0.2,0.5,0.5S377.2,697.9,377,697.9z
		"/>
	<path fill="#715D4B" d="M377.3,698.1c-0.2,0-0.5,0-0.7-0.3c-0.2-0.2-0.2-0.5,0-0.7c0.2-0.2,0.5-0.2,0.7,0c0,0,0.1-0.1,0.1-0.1
		c0.2-0.2,0.5-0.2,0.7,0s0.2,0.5,0,0.7C377.9,697.8,377.7,698.1,377.3,698.1z"/>
	<path fill="#715D4B" d="M377.8,697.9h-0.2c-0.3,0-0.5-0.2-0.5-0.5s0.2-0.5,0.5-0.5h0.2c0.3,0,0.5,0.2,0.5,0.5
		S378.1,697.9,377.8,697.9z"/>
	<path fill="#715D4B" d="M378.1,698.1c-0.4,0-0.7-0.4-0.7-0.8c0-0.4,0.5-0.6,0.7-0.4c0.3-0.2,0.8,0.1,0.8,0.4
		C378.8,697.7,378.5,698.1,378.1,698.1z"/>
	<path fill="#715D4B" d="M378.7,697.9h-0.2c-0.3,0-0.5-0.2-0.5-0.5s0.2-0.5,0.5-0.5h0.2c0.3,0,0.5,0.2,0.5,0.5
		S379,697.9,378.7,697.9z"/>
	<path fill="#715D4B" d="M379,697.9c-0.7,0-0.8-0.5-0.8-0.6c0-0.4,0.5-0.6,0.8-0.4c0.3-0.2,0.8,0.1,0.8,0.4
		C379.7,697.4,379.7,697.9,379,697.9z"/>
	<path fill="#715D4B" d="M379.2,697.9c-0.2,0-0.3-0.1-0.4-0.2c-0.2-0.2-0.1-0.5,0.1-0.7l0.1-0.1c0,0-0.1,0-0.1-0.1
		c-0.1-0.1-0.1-0.3-0.1-0.4l0.5-3.1c0-0.2,0.1-0.3,0.3-0.4l0,0l0.1-0.4l-0.1-0.1c-0.1-0.1-0.1-0.2-0.1-0.4V692
		c-0.2-0.2-0.2-0.5,0-0.7c0.2-0.2,0.5-0.2,0.7,0l0.1,0.1c0.1,0.1,0.1,0.2,0.1,0.4v0.2l0.1,0.1c0.1,0.1,0.2,0.3,0.1,0.4l-0.1,0.9
		c0,0.2-0.1,0.3-0.3,0.4l0,0l-0.4,2.4c0.1,0.1,0.2,0.2,0.2,0.4v0.6c0,0.2-0.1,0.3-0.2,0.4l-0.4,0.2
		C379.4,697.9,379.3,697.9,379.2,697.9z"/>
	<path fill="#715D4B" d="M379.8,692.2c-0.1,0-0.3,0-0.4-0.1c0,0,0,0-0.1-0.1c-0.2,0.2-0.5,0.1-0.7,0c-0.2-0.2-0.2-0.5,0-0.7
		c0.3-0.3,0.6-0.3,0.7-0.3c0.3,0,0.6,0.2,0.7,0.4c0.2,0.2,0.2,0.5,0,0.7C380.1,692.1,380,692.2,379.8,692.2z"/>
	<path fill="#715D4B" d="M379.1,692.1h-0.2c-0.3,0-0.5-0.2-0.5-0.5s0.2-0.5,0.5-0.5h0.2c0.3,0,0.5,0.2,0.5,0.5
		S379.4,692.1,379.1,692.1z"/>
	<path fill="#715D4B" d="M378.8,692.1c-0.2,0-0.4-0.2-0.5-0.4c0,0,0,0,0,0c-0.1,0.2-0.3,0.4-0.5,0.4c-0.3,0-0.5-0.2-0.5-0.5
		c0-0.5,0.4-0.9,1-0.9c0.6,0,1,0.4,1,0.9C379.3,691.8,379.1,692.1,378.8,692.1z"/>
	<path fill="#715D4B" d="M377.8,692.1h-0.2c-0.3,0-0.5-0.2-0.5-0.5s0.2-0.5,0.5-0.5h0.2c0.3,0,0.5,0.2,0.5,0.5
		S378.1,692.1,377.8,692.1z"/>
	<path fill="#715D4B" d="M377.6,692.1c-0.2,0-0.4-0.1-0.4-0.3c0,0,0-0.1,0-0.1c0,0,0,0,0,0.1c0,0.1-0.1,0.1-0.1,0.1
		c-0.2,0.2-0.5,0.2-0.7,0s-0.2-0.5,0-0.7c0.2-0.2,0.4-0.5,0.9-0.5c0.6,0,0.9,0.5,0.9,0.7c0.1,0.2,0,0.5-0.2,0.7
		C377.7,692,377.7,692.1,377.6,692.1z"/>
	<path fill="#715D4B" d="M376.6,692.2h-0.2c-0.3,0-0.5-0.2-0.5-0.5s0.2-0.5,0.5-0.5h0.2c0.3,0,0.5,0.2,0.5,0.5
		S376.9,692.2,376.6,692.2z"/>
	<path fill="#715D4B" d="M375.6,692.2c-0.1,0-0.3,0-0.4-0.1c-0.2-0.2-0.2-0.5,0-0.7c0.2-0.2,0.4-0.4,0.7-0.4c0.2,0,0.5,0,0.7,0.3
		c0.2,0.2,0.2,0.5,0,0.7c-0.2,0.2-0.5,0.2-0.7,0c0,0-0.1,0.1-0.1,0.1C375.8,692.1,375.7,692.2,375.6,692.2z"/>
	<path fill="#715D4B" d="M376.8,697.9c-0.3,0-0.5-0.2-0.5-0.5l-0.4-5.7c0-0.3,0.2-0.5,0.5-0.5c0.3,0,0.5,0.2,0.5,0.5l0.4,5.7
		C377.3,697.7,377.1,697.9,376.8,697.9C376.9,697.9,376.8,697.9,376.8,697.9z"/>
	<path fill="#715D4B" d="M377.7,697.9c-0.3,0-0.5-0.2-0.5-0.5v-5.9c0-0.3,0.2-0.5,0.5-0.5s0.5,0.2,0.5,0.5v5.9
		C378.2,697.7,378,697.9,377.7,697.9z"/>
	<path fill="#715D4B" d="M378.6,697.9C378.6,697.9,378.6,697.9,378.6,697.9c-0.3,0-0.5-0.3-0.5-0.5l0.4-5.9c0-0.3,0.2-0.5,0.5-0.5
		c0.3,0,0.5,0.3,0.5,0.5l-0.4,5.9C379.1,697.7,378.8,697.9,378.6,697.9z"/>
	<path fill="#715D4B" d="M375.7,693.9c-0.2,0-0.4-0.2-0.5-0.4l-0.2-1.2c-0.1-0.3,0.1-0.5,0.4-0.6c0.3-0.1,0.5,0.1,0.6,0.4l0.2,1.2
		C376.3,693.6,376.1,693.9,375.7,693.9C375.8,693.9,375.7,693.9,375.7,693.9z"/>
	<path fill="#715D4B" d="M376.2,697.9c-0.2,0-0.5-0.2-0.5-0.4l-0.1-0.9c0-0.3,0.2-0.5,0.4-0.6c0.3,0,0.5,0.2,0.6,0.4l0.1,0.9
		C376.7,697.6,376.5,697.9,376.2,697.9C376.3,697.9,376.2,697.9,376.2,697.9z"/>
	<path fill="#715D4B" d="M379.2,697.9C379.2,697.9,379.2,697.9,379.2,697.9c-0.3,0-0.5-0.3-0.5-0.6l0.1-0.9c0-0.3,0.3-0.5,0.6-0.4
		c0.3,0,0.5,0.3,0.4,0.6l-0.1,0.9C379.7,697.8,379.4,697.9,379.2,697.9z"/>
	<path fill="#715D4B" d="M379.8,693.9C379.8,693.9,379.8,693.9,379.8,693.9c-0.3,0-0.5-0.3-0.5-0.5l0.1-1.2c0-0.3,0.3-0.5,0.5-0.4
		c0.3,0,0.5,0.3,0.4,0.5l-0.1,1.2C380.3,693.7,380.1,693.9,379.8,693.9z"/>
	<path fill="#715D4B" d="M301.5,697.9c-0.1,0-0.3,0-0.4-0.1l-0.2-0.2c-0.1-0.1-0.1-0.2-0.1-0.4v-0.6c0-0.1,0-0.2,0.1-0.3l-0.2-2.5
		l-0.1,0c-0.2-0.1-0.3-0.2-0.3-0.4l-0.1-0.9c0-0.1,0-0.2,0-0.3l0.1-0.1v-0.3c0-0.3,0.2-0.5,0.5-0.5h0.1c0.3,0,0.5,0.2,0.5,0.5
		c0,0.1,0,0.2-0.1,0.3v0c0,0.1,0,0.2-0.1,0.2l-0.1,0.1l0.1,0.4l0.1,0c0.2,0.1,0.3,0.2,0.3,0.4l0.2,3.1c0,0.1,0,0.3-0.1,0.4v0.1
		l0.1,0.1c0.2,0.2,0.2,0.5,0,0.7C301.8,697.9,301.6,697.9,301.5,697.9z"/>
	<path fill="#715D4B" d="M301.7,697.9c-0.2,0-0.4-0.1-0.5-0.2c-0.2-0.2-0.2-0.5,0-0.7c0.1-0.1,0.4-0.2,0.5-0.1
		c0.2-0.1,0.4,0,0.5,0.1c0.2,0.2,0.2,0.5,0,0.7C302.1,697.8,301.9,697.9,301.7,697.9z"/>
	<path fill="#715D4B" d="M302.3,697.9H302c-0.3,0-0.5-0.2-0.5-0.5s0.2-0.5,0.5-0.5h0.2c0.3,0,0.5,0.2,0.5,0.5
		S302.5,697.9,302.3,697.9z"/>
	<path fill="#715D4B" d="M302.6,698.1c-0.2,0-0.5,0-0.7-0.3c-0.2-0.2-0.2-0.5,0-0.7c0.2-0.2,0.5-0.2,0.7,0c0,0,0.1-0.1,0.1-0.1
		c0.2-0.2,0.5-0.2,0.7,0s0.2,0.5,0,0.7C303.2,697.8,303,698.1,302.6,698.1z"/>
	<path fill="#715D4B" d="M303.1,697.9h-0.2c-0.3,0-0.5-0.2-0.5-0.5s0.2-0.5,0.5-0.5h0.2c0.3,0,0.5,0.2,0.5,0.5
		S303.4,697.9,303.1,697.9z"/>
	<path fill="#715D4B" d="M303.4,698.1c-0.4,0-0.7-0.4-0.7-0.8c0-0.4,0.5-0.6,0.7-0.4c0.3-0.2,0.8,0.1,0.8,0.4
		C304.1,697.7,303.8,698.1,303.4,698.1z"/>
	<path fill="#715D4B" d="M304,697.9h-0.2c-0.3,0-0.5-0.2-0.5-0.5s0.2-0.5,0.5-0.5h0.2c0.3,0,0.5,0.2,0.5,0.5S304.3,697.9,304,697.9z
		"/>
	<path fill="#715D4B" d="M304.1,697.9c-0.3,0-0.6-0.2-0.6-0.6c0-0.3,0.4-0.6,0.7-0.5c0.3-0.1,0.7,0.1,0.7,0.5
		C304.9,697.4,304.8,697.9,304.1,697.9z"/>
	<path fill="#715D4B" d="M304.5,697.9c-0.2,0-0.3-0.1-0.4-0.2c-0.2-0.2-0.1-0.5,0.1-0.7l0.1-0.1c0,0,0,0-0.1-0.1
		c-0.1-0.1-0.1-0.2-0.1-0.4l0.4-3.1c0-0.2,0.2-0.4,0.3-0.4l0.1,0l0-0.3l-0.1-0.1c-0.1-0.1-0.1-0.2-0.1-0.4V692
		c-0.2-0.2-0.2-0.5,0-0.7c0.2-0.2,0.5-0.2,0.7,0l0.1,0.1c0.1,0.1,0.1,0.2,0.1,0.4v0.2l0.1,0.1c0.1,0.1,0.2,0.3,0.1,0.4l-0.1,0.9
		c0,0.2-0.2,0.3-0.3,0.4l-0.1,0l-0.3,2.4c0.1,0.1,0.2,0.2,0.2,0.4v0.6c0,0.2-0.1,0.3-0.2,0.4l-0.4,0.2
		C304.7,697.9,304.6,697.9,304.5,697.9z"/>
	<path fill="#715D4B" d="M305.1,692.2c-0.1,0-0.3,0-0.4-0.1c0,0,0,0-0.1-0.1c-0.2,0.2-0.5,0.1-0.7,0c-0.2-0.2-0.2-0.5,0-0.7
		c0.3-0.3,0.6-0.3,0.7-0.3c0.3,0,0.6,0.2,0.7,0.4c0.2,0.2,0.2,0.5,0,0.7C305.4,692.1,305.3,692.2,305.1,692.2z"/>
	<path fill="#715D4B" d="M304.4,692.1h-0.2c-0.3,0-0.5-0.2-0.5-0.5s0.2-0.5,0.5-0.5h0.2c0.3,0,0.5,0.2,0.5,0.5
		S304.7,692.1,304.4,692.1z"/>
	<path fill="#715D4B" d="M304.1,692.1c-0.2,0-0.4-0.2-0.5-0.4c0,0,0,0,0,0c-0.1,0.2-0.3,0.4-0.5,0.4c-0.3,0-0.5-0.2-0.5-0.5
		c0-0.5,0.4-0.9,1-0.9s1,0.4,1,0.9C304.6,691.8,304.4,692.1,304.1,692.1z"/>
	<path fill="#715D4B" d="M303.1,692.1h-0.2c-0.3,0-0.5-0.2-0.5-0.5s0.2-0.5,0.5-0.5h0.2c0.3,0,0.5,0.2,0.5,0.5
		S303.4,692.1,303.1,692.1z"/>
	<path fill="#715D4B" d="M302.9,692.1c-0.2,0-0.4-0.1-0.4-0.3c0,0,0-0.1,0-0.1c0,0,0,0,0,0.1c0,0.1-0.1,0.1-0.1,0.1
		c-0.2,0.2-0.5,0.2-0.7,0s-0.2-0.5,0-0.7c0.2-0.2,0.4-0.5,0.9-0.5c0.6,0,0.9,0.5,0.9,0.7c0.1,0.2,0,0.5-0.2,0.7
		C303,692,303,692.1,302.9,692.1z"/>
	<path fill="#715D4B" d="M301.9,692.2h-0.2c-0.3,0-0.5-0.2-0.5-0.5s0.2-0.5,0.5-0.5h0.2c0.3,0,0.5,0.2,0.5,0.5
		S302.2,692.2,301.9,692.2z"/>
	<path fill="#715D4B" d="M300.9,692.2c-0.1,0-0.3,0-0.4-0.1c-0.2-0.2-0.2-0.5,0-0.7c0.2-0.2,0.4-0.4,0.7-0.4c0.2,0,0.5,0,0.7,0.3
		c0.2,0.2,0.2,0.5,0,0.7c-0.2,0.2-0.5,0.2-0.7,0c0,0-0.1,0.1-0.1,0.1C301.1,692.1,301,692.2,300.9,692.2z"/>
	<path fill="#715D4B" d="M302.1,697.9c-0.3,0-0.5-0.2-0.5-0.5l-0.4-5.7c0-0.3,0.2-0.5,0.5-0.5c0.3,0,0.5,0.2,0.5,0.5l0.4,5.7
		C302.6,697.7,302.4,697.9,302.1,697.9C302.1,697.9,302.1,697.9,302.1,697.9z"/>
	<path fill="#715D4B" d="M303,697.9c-0.3,0-0.5-0.2-0.5-0.5v-5.9c0-0.3,0.2-0.5,0.5-0.5s0.5,0.2,0.5,0.5v5.9
		C303.5,697.7,303.3,697.9,303,697.9z"/>
	<path fill="#715D4B" d="M303.9,697.9C303.9,697.9,303.9,697.9,303.9,697.9c-0.3,0-0.5-0.3-0.5-0.5l0.4-5.9c0-0.3,0.3-0.5,0.5-0.5
		c0.3,0,0.5,0.3,0.5,0.5l-0.4,5.9C304.4,697.7,304.1,697.9,303.9,697.9z"/>
	<path fill="#715D4B" d="M301.1,693.9c-0.2,0-0.4-0.1-0.5-0.4l-0.4-1.2c-0.1-0.3,0.1-0.5,0.3-0.6c0.3-0.1,0.5,0.1,0.6,0.3l0.4,1.2
		c0.1,0.3-0.1,0.5-0.3,0.6C301.2,693.9,301.2,693.9,301.1,693.9z"/>
	<path fill="#715D4B" d="M301.5,697.9c-0.2,0-0.5-0.2-0.5-0.4l-0.1-0.9c0-0.3,0.2-0.5,0.4-0.6c0.3,0,0.5,0.2,0.6,0.4l0.1,0.9
		C302,697.6,301.8,697.9,301.5,697.9C301.5,697.9,301.5,697.9,301.5,697.9z"/>
	<path fill="#715D4B" d="M304.5,697.9C304.5,697.9,304.5,697.9,304.5,697.9c-0.3,0-0.5-0.3-0.5-0.6l0.1-0.9c0-0.3,0.3-0.5,0.6-0.4
		c0.3,0,0.5,0.3,0.4,0.6l-0.1,0.9C305,697.8,304.7,697.9,304.5,697.9z"/>
	<path fill="#715D4B" d="M305,693.9C305,693.9,304.9,693.9,305,693.9c-0.4-0.1-0.5-0.3-0.5-0.6l0.2-1.2c0.1-0.3,0.3-0.5,0.6-0.4
		c0.3,0.1,0.4,0.3,0.4,0.6l-0.2,1.2C305.4,693.8,305.2,693.9,305,693.9z"/>
	<path fill="#715D4B" d="M241,697.9c-0.1,0-0.3,0-0.4-0.1l-0.2-0.2c-0.1-0.1-0.1-0.2-0.1-0.4v-0.6c0-0.1,0-0.2,0.1-0.3l-0.3-2.5
		c-0.1-0.1-0.2-0.2-0.3-0.4l-0.1-0.9c0-0.1,0-0.2,0-0.3l0.1-0.1v-0.3c0-0.3,0.2-0.5,0.5-0.5h0.1c0.3,0,0.5,0.2,0.5,0.5
		c0,0.1,0,0.2-0.1,0.3v0c0,0.1,0,0.2-0.1,0.2l-0.1,0.1l0.1,0.5c0.2,0.1,0.3,0.2,0.3,0.4l0.4,3.1c0,0.1,0,0.3-0.1,0.4v0.1l0.1,0.1
		c0.2,0.2,0.2,0.5,0,0.7C241.3,697.9,241.2,697.9,241,697.9z"/>
	<path fill="#715D4B" d="M241.2,697.9c-0.2,0-0.4-0.1-0.5-0.2c-0.2-0.2-0.2-0.5,0-0.7c0.1-0.1,0.4-0.2,0.5-0.1
		c0.2-0.1,0.4,0,0.5,0.1c0.2,0.2,0.2,0.5,0,0.7C241.6,697.8,241.4,697.9,241.2,697.9z"/>
	<path fill="#715D4B" d="M241.8,697.9h-0.2c-0.3,0-0.5-0.2-0.5-0.5s0.2-0.5,0.5-0.5h0.2c0.3,0,0.5,0.2,0.5,0.5
		S242.1,697.9,241.8,697.9z"/>
	<path fill="#715D4B" d="M242,698.1c-0.2,0-0.5,0-0.7-0.3c-0.2-0.2-0.2-0.5,0-0.7c0.2-0.2,0.5-0.2,0.7,0c0,0,0.1-0.1,0.1-0.1
		l0.7,0.7C242.6,697.8,242.4,698.1,242,698.1z"/>
	<path fill="#715D4B" d="M242.7,697.9h-0.2c-0.3,0-0.5-0.2-0.5-0.5s0.2-0.5,0.5-0.5h0.2c0.3,0,0.5,0.2,0.5,0.5
		S242.9,697.9,242.7,697.9z"/>
	<path fill="#715D4B" d="M242.9,698.1c-0.4,0-0.8-0.4-0.8-0.8c0-0.4,0.5-0.6,0.7-0.4c0.3-0.2,0.8,0.1,0.8,0.4
		C243.7,697.7,243.3,698.1,242.9,698.1z"/>
	<path fill="#715D4B" d="M243.5,697.9h-0.2c-0.3,0-0.5-0.2-0.5-0.5s0.2-0.5,0.5-0.5h0.2c0.3,0,0.5,0.2,0.5,0.5
		S243.8,697.9,243.5,697.9z"/>
	<path fill="#715D4B" d="M243.8,697.9c-0.7,0-0.7-0.5-0.7-0.6c0-0.4,0.5-0.6,0.8-0.4c0.3-0.2,0.8,0.1,0.7,0.4
		C244.5,697.4,244.5,697.9,243.8,697.9z"/>
	<path fill="#715D4B" d="M244,697.9c-0.1,0-0.3,0-0.4-0.1c-0.2-0.2-0.2-0.5,0-0.7l0.1-0.1v-0.1c-0.1-0.1-0.1-0.2-0.1-0.4l0.4-3.1
		c0-0.2,0.2-0.4,0.3-0.4l0.1,0l0-0.3l-0.1-0.1c-0.1-0.1-0.1-0.2-0.1-0.4V692c-0.2-0.2-0.2-0.5,0-0.7c0.2-0.2,0.5-0.2,0.7,0l0.1,0.1
		c0.1,0.1,0.1,0.2,0.1,0.4v0.2l0.1,0.1c0.1,0.1,0.2,0.3,0.1,0.4l-0.1,0.9c0,0.2-0.2,0.3-0.3,0.4l-0.1,0l-0.3,2.5
		c0.1,0.1,0.1,0.2,0.1,0.3v0.6c0,0.1-0.1,0.3-0.1,0.4l-0.2,0.2C244.3,697.9,244.2,697.9,244,697.9z"/>
	<path fill="#715D4B" d="M244.7,692.2c-0.1,0-0.3,0-0.4-0.1l0,0c0,0,0,0-0.1-0.1c-0.2,0.2-0.5,0.1-0.7,0c-0.2-0.2-0.2-0.5,0-0.7
		c0.3-0.3,0.6-0.3,0.7-0.3c0.3,0,0.6,0.2,0.7,0.4c0.2,0.2,0.2,0.5,0,0.7C244.9,692.1,244.8,692.2,244.7,692.2z"/>
	<path fill="#715D4B" d="M243.9,692.1h-0.2c-0.3,0-0.5-0.2-0.5-0.5s0.2-0.5,0.5-0.5h0.2c0.3,0,0.5,0.2,0.5,0.5
		S244.2,692.1,243.9,692.1z"/>
	<path fill="#715D4B" d="M243.7,692.1c-0.2,0-0.4-0.2-0.5-0.4c0,0,0,0,0,0c-0.1,0.2-0.3,0.4-0.5,0.4c-0.3,0-0.5-0.2-0.5-0.5
		c0-0.5,0.4-0.9,1-0.9c0.6,0,1,0.4,1,0.9C244.2,691.8,243.9,692.1,243.7,692.1z"/>
	<path fill="#715D4B" d="M242.7,692.1h-0.2c-0.3,0-0.5-0.2-0.5-0.5s0.2-0.5,0.5-0.5h0.2c0.3,0,0.5,0.2,0.5,0.5
		S242.9,692.1,242.7,692.1z"/>
	<path fill="#715D4B" d="M242.3,692.1c-0.2,0-0.4-0.1-0.5-0.4c0,0,0,0,0,0c-0.1,0.2-0.3,0.3-0.5,0.3c-0.3,0-0.5-0.2-0.5-0.5
		c0-0.4,0.5-0.9,1-0.9c0.6,0,1,0.4,1,0.9C242.8,691.8,242.6,692.1,242.3,692.1z"/>
	<path fill="#715D4B" d="M241.4,692.2h-0.2c-0.3,0-0.5-0.2-0.5-0.5s0.2-0.5,0.5-0.5h0.2c0.3,0,0.5,0.2,0.5,0.5
		S241.7,692.2,241.4,692.2z"/>
	<path fill="#715D4B" d="M241.2,692.1c-0.1,0-0.2,0-0.3-0.1c0,0-0.1,0.1-0.1,0.1l-0.7-0.7c0.2-0.2,0.4-0.4,0.7-0.4
		c0.2,0,0.5,0,0.7,0.3c0.2,0.2,0.2,0.5,0,0.7C241.4,692,241.3,692.1,241.2,692.1z"/>
	<path fill="#715D4B" d="M241.7,697.9c-0.3,0-0.5-0.2-0.5-0.5l-0.4-5.7c0-0.3,0.2-0.5,0.5-0.5c0.3,0,0.5,0.2,0.5,0.5l0.4,5.7
		C242.2,697.7,242,697.9,241.7,697.9C241.7,697.9,241.7,697.9,241.7,697.9z"/>
	<path fill="#715D4B" d="M242.5,697.9c-0.3,0-0.5-0.2-0.5-0.5v-5.9c0-0.3,0.2-0.5,0.5-0.5s0.5,0.2,0.5,0.5v5.9
		C243,697.7,242.8,697.9,242.5,697.9z"/>
	<path fill="#715D4B" d="M243.4,697.9C243.4,697.9,243.4,697.9,243.4,697.9c-0.3,0-0.5-0.3-0.5-0.5l0.4-5.9c0-0.3,0.3-0.5,0.5-0.5
		c0.3,0,0.5,0.3,0.5,0.5l-0.4,5.9C243.9,697.7,243.7,697.9,243.4,697.9z"/>
	<path fill="#715D4B" d="M240.5,693.9c-0.2,0-0.4-0.2-0.5-0.4l-0.2-1.2c-0.1-0.3,0.1-0.5,0.4-0.6c0.3-0.1,0.5,0.1,0.6,0.4l0.2,1.2
		C241.1,693.6,240.9,693.9,240.5,693.9C240.6,693.9,240.6,693.9,240.5,693.9z"/>
	<path fill="#715D4B" d="M241,697.9c-0.2,0-0.5-0.2-0.5-0.4l-0.1-0.9c0-0.3,0.2-0.5,0.4-0.6c0.3,0,0.5,0.2,0.6,0.4l0.1,0.9
		C241.6,697.6,241.4,697.9,241,697.9C241.1,697.9,241.1,697.9,241,697.9z"/>
	<path fill="#715D4B" d="M244,697.9C244,697.9,244,697.9,244,697.9c-0.3,0-0.5-0.3-0.5-0.6l0.1-0.9c0-0.3,0.3-0.5,0.6-0.4
		c0.3,0,0.5,0.3,0.4,0.6l-0.1,0.9C244.5,697.8,244.3,697.9,244,697.9z"/>
	<path fill="#715D4B" d="M244.5,693.9C244.5,693.9,244.5,693.9,244.5,693.9c-0.4-0.1-0.5-0.3-0.5-0.6l0.2-1.2
		c0.1-0.3,0.3-0.5,0.6-0.4c0.3,0.1,0.4,0.3,0.4,0.6l-0.2,1.2C245,693.8,244.8,693.9,244.5,693.9z"/>
	<path fill="#715D4B" d="M189.4,708.4C189.4,708.4,189.4,708.4,189.4,708.4c-0.4-0.1-0.5-0.3-0.5-0.6c1-5.9,5.8-10.5,11.5-11.3
		c0.3,0,0.5,0.2,0.6,0.4c0,0.3-0.2,0.5-0.4,0.6c-5.3,0.7-9.7,5-10.7,10.5C189.9,708.3,189.7,708.4,189.4,708.4z"/>
	<path fill="#715D4B" d="M215.4,709.6c-0.3,0-0.5-0.2-0.5-0.5c-0.5-5.8-5.1-10.7-10.9-11.5c-0.3,0-0.5-0.3-0.4-0.6
		c0-0.3,0.3-0.5,0.6-0.4c6.3,0.9,11.3,6.1,11.8,12.4C216,709.3,215.7,709.5,215.4,709.6C215.5,709.6,215.4,709.6,215.4,709.6z"/>
	<path fill="#715D4B" d="M188.9,700.7c-0.1,0-0.2,0-0.3-0.1c-0.2-0.2-0.3-0.5-0.1-0.7c2.9-3.8,7.2-6.3,11.7-6.8
		c0.3,0,0.5,0.2,0.6,0.4s-0.2,0.5-0.4,0.6c-4.3,0.5-8.3,2.8-11,6.4C189.2,700.6,189.1,700.7,188.9,700.7z"/>
	<path fill="#715D4B" d="M215.7,700.6c-0.2,0-0.3-0.1-0.4-0.2c-2.7-3.5-6.6-5.8-11.2-6.4c-0.3,0-0.5-0.3-0.4-0.6
		c0-0.3,0.3-0.5,0.6-0.4c4.8,0.6,9,3.1,11.8,6.8c0.2,0.2,0.1,0.5-0.1,0.7C215.9,700.5,215.8,700.6,215.7,700.6z"/>
	<path fill="#715D4B" d="M188.9,700.2c-0.1,0-0.2,0-0.3-0.1c-0.2-0.2-0.3-0.5-0.1-0.7c2.8-3.7,6.8-6,11.4-6.7c0.3,0,0.5,0.2,0.6,0.4
		s-0.2,0.5-0.4,0.6c-4.3,0.6-8.2,2.9-10.8,6.3C189.2,700.1,189.1,700.2,188.9,700.2z"/>
	<path fill="#715D4B" d="M215.8,700.1c-0.1,0-0.3-0.1-0.4-0.2c-2.7-3.4-6.5-5.6-10.8-6.2c-0.3,0-0.5-0.3-0.4-0.6
		c0-0.3,0.3-0.5,0.6-0.4c4.6,0.7,8.6,3,11.4,6.6c0.2,0.2,0.1,0.5-0.1,0.7C216,700,215.9,700.1,215.8,700.1z"/>
	<path fill="#715D4B" d="M200.8,697.9c-0.1,0-0.3,0-0.4-0.1l-0.2-0.2c-0.1-0.1-0.1-0.2-0.1-0.4v-0.6c0-0.1,0-0.2,0.1-0.3l-0.3-2.5
		c-0.1-0.1-0.2-0.2-0.3-0.4l-0.1-0.9c0-0.1,0-0.2,0-0.3l0.1-0.1v-0.3c0-0.3,0.2-0.5,0.5-0.5h0.1c0.3,0,0.5,0.2,0.5,0.5
		c0,0.1,0,0.2-0.1,0.3v0c0,0.1,0,0.2-0.1,0.2l-0.1,0.1l0.1,0.5c0.2,0.1,0.3,0.2,0.3,0.4l0.4,3.1c0,0.1,0,0.3-0.1,0.4v0.1l0.1,0.1
		c0.2,0.2,0.2,0.5,0,0.7C201.1,697.9,200.9,697.9,200.8,697.9z"/>
	<path fill="#715D4B" d="M201,697.9c-0.2,0-0.4-0.1-0.5-0.2c-0.2-0.2-0.2-0.5,0-0.7c0.1-0.1,0.4-0.2,0.5-0.1c0.2-0.1,0.4,0,0.5,0.1
		c0.2,0.2,0.2,0.5,0,0.7C201.4,697.8,201.2,697.9,201,697.9z"/>
	<path fill="#715D4B" d="M201.6,697.9h-0.2c-0.3,0-0.5-0.2-0.5-0.5s0.2-0.5,0.5-0.5h0.2c0.3,0,0.5,0.2,0.5,0.5
		S201.8,697.9,201.6,697.9z"/>
	<path fill="#715D4B" d="M201.9,698.1c-0.2,0-0.5,0-0.7-0.3c-0.2-0.2-0.2-0.5,0-0.7c0.2-0.2,0.5-0.2,0.7,0c0,0,0.1-0.1,0.1-0.1
		c0.2-0.2,0.5-0.2,0.7,0s0.2,0.5,0,0.7C202.5,697.8,202.3,698.1,201.9,698.1z"/>
	<path fill="#715D4B" d="M202.4,697.9h-0.2c-0.3,0-0.5-0.2-0.5-0.5s0.2-0.5,0.5-0.5h0.2c0.3,0,0.5,0.2,0.5,0.5
		S202.7,697.9,202.4,697.9z"/>
	<path fill="#715D4B" d="M202.7,698.1c-0.4,0-0.5-0.3-0.6-0.4c-0.2-0.2-0.2-0.5,0-0.7c0.2-0.2,0.4-0.2,0.6-0.1
		c0.3-0.2,0.8,0.1,0.8,0.4C203.4,697.7,203.1,698.1,202.7,698.1z"/>
	<path fill="#715D4B" d="M203.3,697.9h-0.2c-0.3,0-0.5-0.2-0.5-0.5s0.2-0.5,0.5-0.5h0.2c0.3,0,0.5,0.2,0.5,0.5
		S203.6,697.9,203.3,697.9z"/>
	<path fill="#715D4B" d="M203.6,697.9c-0.7,0-0.7-0.5-0.7-0.6c0-0.4,0.5-0.6,0.8-0.4c0.2-0.1,0.4,0,0.6,0.1c0.2,0.2,0.2,0.5,0,0.7
		C204,697.8,203.9,697.9,203.6,697.9z"/>
	<path fill="#715D4B" d="M203.8,697.9c-0.2,0-0.3-0.1-0.4-0.2c-0.2-0.2-0.1-0.5,0.1-0.7l0.1-0.1c0,0-0.1,0-0.1-0.1
		c-0.1-0.1-0.1-0.3-0.1-0.4l0.5-3.1c0-0.2,0.1-0.3,0.3-0.4l0,0l0.1-0.4l-0.1-0.1c-0.1-0.1-0.1-0.2-0.1-0.4V692
		c-0.2-0.2-0.2-0.5,0-0.7c0.2-0.2,0.5-0.2,0.7,0l0.1,0.1c0.1,0.1,0.1,0.2,0.1,0.4v0.2l0.1,0.1c0.1,0.1,0.2,0.3,0.1,0.4l-0.1,0.9
		c0,0.2-0.1,0.3-0.3,0.4l0,0l-0.4,2.4c0.1,0.1,0.2,0.2,0.2,0.4v0.6c0,0.2-0.1,0.3-0.2,0.4l-0.4,0.2
		C204,697.9,203.9,697.9,203.8,697.9z"/>
	<path fill="#715D4B" d="M204.4,692.2c-0.1,0-0.3,0-0.4-0.1l0,0c0,0,0,0-0.1-0.1c-0.2,0.2-0.5,0.1-0.7,0c-0.2-0.2-0.2-0.5,0-0.7
		c0.3-0.3,0.6-0.3,0.7-0.3c0.3,0,0.6,0.2,0.7,0.4c0.2,0.2,0.2,0.5,0,0.7C204.7,692.1,204.6,692.2,204.4,692.2z"/>
	<path fill="#715D4B" d="M203.7,692.1h-0.2c-0.3,0-0.5-0.2-0.5-0.5s0.2-0.5,0.5-0.5h0.2c0.3,0,0.5,0.2,0.5,0.5
		S204,692.1,203.7,692.1z"/>
	<path fill="#715D4B" d="M202.4,692.1c-0.1,0-0.2,0-0.2-0.1c-0.2-0.1-0.3-0.4-0.2-0.7c0.1-0.2,0.3-0.7,0.9-0.7c0.6,0,1,0.4,1,0.9
		c0,0.3-0.2,0.5-0.5,0.5c-0.2,0-0.4-0.2-0.5-0.4c0,0,0,0-0.1,0.1C202.8,692,202.6,692.1,202.4,692.1z"/>
	<path fill="#715D4B" d="M202.4,692.1h-0.2c-0.3,0-0.5-0.2-0.5-0.5s0.2-0.5,0.5-0.5h0.2c0.3,0,0.5,0.2,0.5,0.5
		S202.7,692.1,202.4,692.1z"/>
	<path fill="#715D4B" d="M202.2,692.1c-0.2,0-0.4-0.1-0.4-0.3c0,0,0-0.1,0-0.1c0,0,0,0,0,0.1c0,0.1-0.1,0.1-0.1,0.1
		c-0.2,0.2-0.5,0.2-0.7,0s-0.2-0.5,0-0.7c0.2-0.2,0.4-0.5,0.9-0.5c0.6,0,0.9,0.5,0.9,0.7c0.1,0.2,0,0.5-0.2,0.7
		C202.3,692,202.3,692.1,202.2,692.1z"/>
	<path fill="#715D4B" d="M201.2,692.2h-0.2c-0.3,0-0.5-0.2-0.5-0.5s0.2-0.5,0.5-0.5h0.2c0.3,0,0.5,0.2,0.5,0.5
		S201.5,692.2,201.2,692.2z"/>
	<path fill="#715D4B" d="M200.9,692.1c-0.1,0-0.2,0-0.3-0.1c0,0-0.1,0.1-0.1,0.1l-0.7-0.7c0.2-0.2,0.4-0.4,0.7-0.4
		c0.2,0,0.5,0,0.7,0.3c0.2,0.2,0.2,0.5,0,0.7C201.2,692,201.1,692.1,200.9,692.1z"/>
	<path fill="#715D4B" d="M201.4,697.9c-0.3,0-0.5-0.2-0.5-0.5l-0.4-5.7c0-0.3,0.2-0.5,0.5-0.5c0.3,0,0.5,0.2,0.5,0.5l0.4,5.7
		C202,697.7,201.7,697.9,201.4,697.9C201.5,697.9,201.5,697.9,201.4,697.9z"/>
	<path fill="#715D4B" d="M202.3,697.9c-0.3,0-0.5-0.2-0.5-0.5v-5.9c0-0.3,0.2-0.5,0.5-0.5s0.5,0.2,0.5,0.5v5.9
		C202.8,697.7,202.6,697.9,202.3,697.9z"/>
	<path fill="#715D4B" d="M203.2,697.9C203.2,697.9,203.2,697.9,203.2,697.9c-0.3,0-0.5-0.3-0.5-0.5l0.4-5.9c0-0.3,0.3-0.5,0.5-0.5
		c0.3,0,0.5,0.3,0.5,0.5l-0.4,5.9C203.7,697.7,203.5,697.9,203.2,697.9z"/>
	<path fill="#715D4B" d="M200.3,693.9c-0.2,0-0.4-0.2-0.5-0.4l-0.2-1.2c-0.1-0.3,0.1-0.5,0.4-0.6c0.3-0.1,0.5,0.1,0.6,0.4l0.2,1.2
		C200.9,693.6,200.7,693.9,200.3,693.9C200.4,693.9,200.3,693.9,200.3,693.9z"/>
	<path fill="#715D4B" d="M200.8,697.9c-0.2,0-0.5-0.2-0.5-0.4l-0.1-0.9c0-0.3,0.2-0.5,0.4-0.6c0.3,0,0.5,0.2,0.6,0.4l0.1,0.9
		C201.4,697.6,201.2,697.9,200.8,697.9C200.9,697.9,200.8,697.9,200.8,697.9z"/>
	<path fill="#715D4B" d="M203.8,697.9C203.8,697.9,203.8,697.9,203.8,697.9c-0.3,0-0.5-0.3-0.5-0.6l0.1-0.9c0-0.3,0.3-0.5,0.6-0.4
		c0.3,0,0.5,0.3,0.4,0.6l-0.1,0.9C204.3,697.8,204.1,697.9,203.8,697.9z"/>
	<path fill="#715D4B" d="M204.3,693.9C204.3,693.9,204.2,693.9,204.3,693.9c-0.4-0.1-0.5-0.3-0.5-0.6l0.2-1.2
		c0.1-0.3,0.3-0.5,0.6-0.4c0.3,0.1,0.4,0.3,0.4,0.6l-0.2,1.2C204.8,693.8,204.5,693.9,204.3,693.9z"/>
	<g>
		<path fill="#715D4B" d="M301.6,612h-13.7c-0.3,0-0.5-0.2-0.5-0.5v-7.9c0-0.3,0.2-0.5,0.5-0.5s0.5,0.2,0.5,0.5v7.4h13.2
			c0.3,0,0.5,0.2,0.5,0.5S301.9,612,301.6,612z"/>
		<path fill="#715D4B" d="M316.5,612h-13.7c-0.3,0-0.5-0.2-0.5-0.5v-7.9c0-0.3,0.2-0.5,0.5-0.5s0.5,0.2,0.5,0.5v7.4H316v-7.4
			c0-0.3,0.2-0.5,0.5-0.5s0.5,0.2,0.5,0.5v7.9C317,611.8,316.8,612,316.5,612z"/>
		<path fill="#715D4B" d="M301.6,612c-0.3,0-0.5-0.2-0.5-0.5v-7.4h-13.2c-0.3,0-0.5-0.2-0.5-0.5s0.2-0.5,0.5-0.5h13.7
			c0.3,0,0.5,0.2,0.5,0.5v7.9C302.1,611.8,301.9,612,301.6,612z"/>
		<path fill="#715D4B" d="M316.5,604.1h-13.7c-0.3,0-0.5-0.2-0.5-0.5s0.2-0.5,0.5-0.5h13.7c0.3,0,0.5,0.2,0.5,0.5
			S316.8,604.1,316.5,604.1z"/>
		<path fill="#715D4B" d="M300.6,602.1h-12c-0.3,0-0.5-0.2-0.5-0.5v-28.5c0-0.3,0.2-0.5,0.5-0.5h12c0.3,0,0.5,0.2,0.5,0.5v28.5
			C301.1,601.9,300.9,602.1,300.6,602.1z M289.1,601.1h11v-27.5h-11V601.1z"/>
		<path fill="#715D4B" d="M315.6,602.1h-12c-0.3,0-0.5-0.2-0.5-0.5v-28.5c0-0.3,0.2-0.5,0.5-0.5h12c0.3,0,0.5,0.2,0.5,0.5v28.5
			C316.1,601.9,315.9,602.1,315.6,602.1z M304.1,601.1h11v-27.5h-11V601.1z"/>
		<path fill="#715D4B" d="M363.7,612h-13.6c-0.3,0-0.5-0.2-0.5-0.5v-7.9c0-0.3,0.2-0.5,0.5-0.5s0.5,0.2,0.5,0.5v7.4h13.1
			c0.3,0,0.5,0.2,0.5,0.5S364,612,363.7,612z"/>
		<path fill="#715D4B" d="M378.7,612H365c-0.3,0-0.5-0.2-0.5-0.5v-7.9c0-0.3,0.2-0.5,0.5-0.5s0.5,0.2,0.5,0.5v7.4h12.7v-7.4
			c0-0.3,0.2-0.5,0.5-0.5s0.5,0.2,0.5,0.5v7.9C379.2,611.8,379,612,378.7,612z"/>
		<path fill="#715D4B" d="M363.7,612c-0.3,0-0.5-0.2-0.5-0.5v-7.4h-13.1c-0.3,0-0.5-0.2-0.5-0.5s0.2-0.5,0.5-0.5h13.6
			c0.3,0,0.5,0.2,0.5,0.5v7.9C364.2,611.8,364,612,363.7,612z"/>
		<path fill="#715D4B" d="M378.7,604.1H365c-0.3,0-0.5-0.2-0.5-0.5s0.2-0.5,0.5-0.5h13.7c0.3,0,0.5,0.2,0.5,0.5
			S379,604.1,378.7,604.1z"/>
		<path fill="#715D4B" d="M363,602.1h-12c-0.3,0-0.5-0.2-0.5-0.5v-28.5c0-0.3,0.2-0.5,0.5-0.5h12c0.3,0,0.5,0.2,0.5,0.5v28.5
			C363.5,601.9,363.2,602.1,363,602.1z M351.5,601.1h11v-27.5h-11V601.1z"/>
		<path fill="#715D4B" d="M377.8,602.1h-12c-0.3,0-0.5-0.2-0.5-0.5v-28.5c0-0.3,0.2-0.5,0.5-0.5h12c0.3,0,0.5,0.2,0.5,0.5v28.5
			C378.3,601.9,378.1,602.1,377.8,602.1z M366.3,601.1h11v-27.5h-11V601.1z"/>
		<path fill="#715D4B" d="M381,614.2h-33.1c-0.3,0-0.5-0.2-0.5-0.5V570c0-0.3,0.2-0.5,0.5-0.5H381c0.3,0,0.5,0.2,0.5,0.5v43.7
			C381.5,614,381.2,614.2,381,614.2z M348.3,613.2h32.1v-42.7h-32.1V613.2z"/>
		<path fill="#715D4B" d="M318.7,614.2h-33.1c-0.3,0-0.5-0.2-0.5-0.5V570c0-0.3,0.2-0.5,0.5-0.5h33.1c0.3,0,0.5,0.2,0.5,0.5v43.7
			C319.2,614,319,614.2,318.7,614.2z M286.1,613.2h32.1v-42.7h-32.1V613.2z"/>
	</g>
	<g>
		<path fill="#715D4B" d="M240.8,659.3h-39.7c-0.3,0-0.5-0.2-0.5-0.5v-34.7c0-0.3,0.2-0.5,0.5-0.5h39.7c0.3,0,0.5,0.2,0.5,0.5v34.7
			C241.3,659.1,241.1,659.3,240.8,659.3z M201.6,658.3h38.7v-33.7h-38.7V658.3z"/>
		<path fill="#715D4B" d="M213.1,658.6h-11.1c-0.3,0-0.5-0.2-0.5-0.5v-33c0-0.3,0.2-0.5,0.5-0.5h11.1c0.3,0,0.5,0.2,0.5,0.5v33
			C213.6,658.4,213.3,658.6,213.1,658.6z M202.4,657.6h10.1v-32h-10.1V657.6z"/>
		<path fill="#715D4B" d="M239.9,658.6h-11.1c-0.3,0-0.5-0.2-0.5-0.5v-33c0-0.3,0.2-0.5,0.5-0.5h11.1c0.3,0,0.5,0.2,0.5,0.5v33
			C240.4,658.4,240.2,658.6,239.9,658.6z M229.3,657.6h10.1v-32h-10.1V657.6z"/>
		<path fill="#715D4B" d="M226.4,658.6h-11.1c-0.3,0-0.5-0.2-0.5-0.5v-33c0-0.3,0.2-0.5,0.5-0.5h11.1c0.3,0,0.5,0.2,0.5,0.5v33
			C226.9,658.4,226.7,658.6,226.4,658.6z M215.8,657.6h10.1v-32h-10.1V657.6z"/>
		<path fill="#715D4B" d="M242.8,661.2h-43.6c-0.3,0-0.5-0.2-0.5-0.5v-38.5c0-0.3,0.2-0.5,0.5-0.5h43.6c0.3,0,0.5,0.2,0.5,0.5v38.5
			C243.3,661,243.1,661.2,242.8,661.2z M199.7,660.2h42.6v-37.5h-42.6V660.2z"/>
	</g>
	<g>
		<path fill="#715D4B" d="M240.8,596.7h-39.7c-0.3,0-0.5-0.2-0.5-0.5v-34.7c0-0.3,0.2-0.5,0.5-0.5h39.7c0.3,0,0.5,0.2,0.5,0.5v34.7
			C241.3,596.5,241.1,596.7,240.8,596.7z M201.6,595.7h38.7V562h-38.7V595.7z"/>
		<path fill="#715D4B" d="M213.1,595.9h-11.1c-0.3,0-0.5-0.2-0.5-0.5v-33c0-0.3,0.2-0.5,0.5-0.5h11.1c0.3,0,0.5,0.2,0.5,0.5v33
			C213.6,595.7,213.3,595.9,213.1,595.9z M202.4,594.9h10.1v-32h-10.1V594.9z"/>
		<path fill="#715D4B" d="M239.9,595.9h-11.1c-0.3,0-0.5-0.2-0.5-0.5v-33c0-0.3,0.2-0.5,0.5-0.5h11.1c0.3,0,0.5,0.2,0.5,0.5v33
			C240.4,595.7,240.2,595.9,239.9,595.9z M229.3,594.9h10.1v-32h-10.1V594.9z"/>
		<path fill="#715D4B" d="M226.4,595.9h-11.1c-0.3,0-0.5-0.2-0.5-0.5v-33c0-0.3,0.2-0.5,0.5-0.5h11.1c0.3,0,0.5,0.2,0.5,0.5v33
			C226.9,595.7,226.7,595.9,226.4,595.9z M215.8,594.9h10.1v-32h-10.1V594.9z"/>
		<path fill="#715D4B" d="M242.8,598.6h-43.6c-0.3,0-0.5-0.2-0.5-0.5v-38.5c0-0.3,0.2-0.5,0.5-0.5h43.6c0.3,0,0.5,0.2,0.5,0.5v38.5
			C243.3,598.4,243.1,598.6,242.8,598.6z M199.7,597.6h42.6v-37.5h-42.6V597.6z"/>
	</g>
	<g>
		<path fill="#715D4B" d="M240.8,534.3h-39.7c-0.3,0-0.5-0.2-0.5-0.5v-34.7c0-0.3,0.2-0.5,0.5-0.5h39.7c0.3,0,0.5,0.2,0.5,0.5v34.7
			C241.3,534.1,241.1,534.3,240.8,534.3z M201.6,533.3h38.7v-33.7h-38.7V533.3z"/>
		<path fill="#715D4B" d="M213.1,533.4h-11.1c-0.3,0-0.5-0.2-0.5-0.5v-33c0-0.3,0.2-0.5,0.5-0.5h11.1c0.3,0,0.5,0.2,0.5,0.5v33
			C213.6,533.2,213.3,533.4,213.1,533.4z M202.4,532.4h10.1v-32h-10.1V532.4z"/>
		<path fill="#715D4B" d="M239.9,533.4h-11.1c-0.3,0-0.5-0.2-0.5-0.5v-33c0-0.3,0.2-0.5,0.5-0.5h11.1c0.3,0,0.5,0.2,0.5,0.5v33
			C240.4,533.2,240.2,533.4,239.9,533.4z M229.3,532.4h10.1v-32h-10.1V532.4z"/>
		<path fill="#715D4B" d="M226.4,533.4h-11.1c-0.3,0-0.5-0.2-0.5-0.5v-33c0-0.3,0.2-0.5,0.5-0.5h11.1c0.3,0,0.5,0.2,0.5,0.5v33
			C226.9,533.2,226.7,533.4,226.4,533.4z M215.8,532.4h10.1v-32h-10.1V532.4z"/>
		<path fill="#715D4B" d="M242.8,536.2h-43.6c-0.3,0-0.5-0.2-0.5-0.5v-38.5c0-0.3,0.2-0.5,0.5-0.5h43.6c0.3,0,0.5,0.2,0.5,0.5v38.5
			C243.3,535.9,243.1,536.2,242.8,536.2z M199.7,535.2h42.6v-37.5h-42.6V535.2z"/>
	</g>
	<g>
		<path fill="#715D4B" d="M240.8,472h-39.7c-0.3,0-0.5-0.2-0.5-0.5v-34.7c0-0.3,0.2-0.5,0.5-0.5h39.7c0.3,0,0.5,0.2,0.5,0.5v34.7
			C241.3,471.7,241.1,472,240.8,472z M201.6,471h38.7v-33.7h-38.7V471z"/>
		<path fill="#715D4B" d="M213.1,471.2h-11.1c-0.3,0-0.5-0.2-0.5-0.5v-33c0-0.3,0.2-0.5,0.5-0.5h11.1c0.3,0,0.5,0.2,0.5,0.5v33
			C213.6,471,213.3,471.2,213.1,471.2z M202.4,470.2h10.1v-32h-10.1V470.2z"/>
		<path fill="#715D4B" d="M239.9,471.2h-11.1c-0.3,0-0.5-0.2-0.5-0.5v-33c0-0.3,0.2-0.5,0.5-0.5h11.1c0.3,0,0.5,0.2,0.5,0.5v33
			C240.4,471,240.2,471.2,239.9,471.2z M229.3,470.2h10.1v-32h-10.1V470.2z"/>
		<path fill="#715D4B" d="M226.4,471.2h-11.1c-0.3,0-0.5-0.2-0.5-0.5v-33c0-0.3,0.2-0.5,0.5-0.5h11.1c0.3,0,0.5,0.2,0.5,0.5v33
			C226.9,471,226.7,471.2,226.4,471.2z M215.8,470.2h10.1v-32h-10.1V470.2z"/>
		<path fill="#715D4B" d="M242.8,473.8h-43.6c-0.3,0-0.5-0.2-0.5-0.5v-38.5c0-0.3,0.2-0.5,0.5-0.5h43.6c0.3,0,0.5,0.2,0.5,0.5v38.5
			C243.3,473.6,243.1,473.8,242.8,473.8z M199.7,472.8h42.6v-37.5h-42.6V472.8z"/>
	</g>
	<g>
		<path fill="#715D4B" d="M240.8,409.4h-39.7c-0.3,0-0.5-0.2-0.5-0.5v-34.7c0-0.3,0.2-0.5,0.5-0.5h39.7c0.3,0,0.5,0.2,0.5,0.5v34.7
			C241.3,409.1,241.1,409.4,240.8,409.4z M201.6,408.4h38.7v-33.7h-38.7V408.4z"/>
		<path fill="#715D4B" d="M213.1,408.5h-11.1c-0.3,0-0.5-0.2-0.5-0.5v-33c0-0.3,0.2-0.5,0.5-0.5h11.1c0.3,0,0.5,0.2,0.5,0.5v33
			C213.6,408.3,213.3,408.5,213.1,408.5z M202.4,407.5h10.1v-32h-10.1V407.5z"/>
		<path fill="#715D4B" d="M239.9,408.5h-11.1c-0.3,0-0.5-0.2-0.5-0.5v-33c0-0.3,0.2-0.5,0.5-0.5h11.1c0.3,0,0.5,0.2,0.5,0.5v33
			C240.4,408.3,240.2,408.5,239.9,408.5z M229.3,407.5h10.1v-32h-10.1V407.5z"/>
		<path fill="#715D4B" d="M226.4,408.5h-11.1c-0.3,0-0.5-0.2-0.5-0.5v-33c0-0.3,0.2-0.5,0.5-0.5h11.1c0.3,0,0.5,0.2,0.5,0.5v33
			C226.9,408.3,226.7,408.5,226.4,408.5z M215.8,407.5h10.1v-32h-10.1V407.5z"/>
		<path fill="#715D4B" d="M242.8,411.2h-43.6c-0.3,0-0.5-0.2-0.5-0.5v-38.5c0-0.3,0.2-0.5,0.5-0.5h43.6c0.3,0,0.5,0.2,0.5,0.5v38.5
			C243.3,411,243.1,411.2,242.8,411.2z M199.7,410.2h42.6v-37.5h-42.6V410.2z"/>
	</g>
	<g>
		<path fill="#715D4B" d="M240.8,346.9h-39.7c-0.3,0-0.5-0.2-0.5-0.5v-34.7c0-0.3,0.2-0.5,0.5-0.5h39.7c0.3,0,0.5,0.2,0.5,0.5v34.7
			C241.3,346.7,241.1,346.9,240.8,346.9z M201.6,345.9h38.7v-33.7h-38.7V345.9z"/>
		<path fill="#715D4B" d="M213.1,346.2h-11.1c-0.3,0-0.5-0.2-0.5-0.5v-33c0-0.3,0.2-0.5,0.5-0.5h11.1c0.3,0,0.5,0.2,0.5,0.5v33
			C213.6,345.9,213.3,346.2,213.1,346.2z M202.4,345.2h10.1v-32h-10.1V345.2z"/>
		<path fill="#715D4B" d="M239.9,346.2h-11.1c-0.3,0-0.5-0.2-0.5-0.5v-33c0-0.3,0.2-0.5,0.5-0.5h11.1c0.3,0,0.5,0.2,0.5,0.5v33
			C240.4,345.9,240.2,346.2,239.9,346.2z M229.3,345.2h10.1v-32h-10.1V345.2z"/>
		<path fill="#715D4B" d="M226.4,346.2h-11.1c-0.3,0-0.5-0.2-0.5-0.5v-33c0-0.3,0.2-0.5,0.5-0.5h11.1c0.3,0,0.5,0.2,0.5,0.5v33
			C226.9,345.9,226.7,346.2,226.4,346.2z M215.8,345.2h10.1v-32h-10.1V345.2z"/>
		<path fill="#715D4B" d="M242.8,348.8h-43.6c-0.3,0-0.5-0.2-0.5-0.5v-38.5c0-0.3,0.2-0.5,0.5-0.5h43.6c0.3,0,0.5,0.2,0.5,0.5v38.5
			C243.3,348.6,243.1,348.8,242.8,348.8z M199.7,347.8h42.6v-37.5h-42.6V347.8z"/>
	</g>
	<g>
		<path fill="#715D4B" d="M240.8,284.7h-39.7c-0.3,0-0.5-0.2-0.5-0.5v-34.7c0-0.3,0.2-0.5,0.5-0.5h39.7c0.3,0,0.5,0.2,0.5,0.5v34.7
			C241.3,284.5,241.1,284.7,240.8,284.7z M201.6,283.7h38.7V250h-38.7V283.7z"/>
		<path fill="#715D4B" d="M213.1,283.8h-11.1c-0.3,0-0.5-0.2-0.5-0.5v-33c0-0.3,0.2-0.5,0.5-0.5h11.1c0.3,0,0.5,0.2,0.5,0.5v33
			C213.6,283.6,213.3,283.8,213.1,283.8z M202.4,282.8h10.1v-32h-10.1V282.8z"/>
		<path fill="#715D4B" d="M239.9,283.8h-11.1c-0.3,0-0.5-0.2-0.5-0.5v-33c0-0.3,0.2-0.5,0.5-0.5h11.1c0.3,0,0.5,0.2,0.5,0.5v33
			C240.4,283.6,240.2,283.8,239.9,283.8z M229.3,282.8h10.1v-32h-10.1V282.8z"/>
		<path fill="#715D4B" d="M226.4,283.8h-11.1c-0.3,0-0.5-0.2-0.5-0.5v-33c0-0.3,0.2-0.5,0.5-0.5h11.1c0.3,0,0.5,0.2,0.5,0.5v33
			C226.9,283.6,226.7,283.8,226.4,283.8z M215.8,282.8h10.1v-32h-10.1V282.8z"/>
		<path fill="#715D4B" d="M242.8,286.4h-43.6c-0.3,0-0.5-0.2-0.5-0.5v-38.5c0-0.3,0.2-0.5,0.5-0.5h43.6c0.3,0,0.5,0.2,0.5,0.5v38.5
			C243.3,286.2,243.1,286.4,242.8,286.4z M199.7,285.4h42.6V248h-42.6V285.4z"/>
	</g>
	<g>
		<path fill="#715D4B" d="M240.8,222h-39.7c-0.3,0-0.5-0.2-0.5-0.5v-34.7c0-0.3,0.2-0.5,0.5-0.5h39.7c0.3,0,0.5,0.2,0.5,0.5v34.7
			C241.3,221.8,241.1,222,240.8,222z M201.6,221h38.7v-33.7h-38.7V221z"/>
		<path fill="#715D4B" d="M213.1,221.2h-11.1c-0.3,0-0.5-0.2-0.5-0.5v-33c0-0.3,0.2-0.5,0.5-0.5h11.1c0.3,0,0.5,0.2,0.5,0.5v33
			C213.6,221,213.3,221.2,213.1,221.2z M202.4,220.2h10.1v-32h-10.1V220.2z"/>
		<path fill="#715D4B" d="M239.9,221.2h-11.1c-0.3,0-0.5-0.2-0.5-0.5v-33c0-0.3,0.2-0.5,0.5-0.5h11.1c0.3,0,0.5,0.2,0.5,0.5v33
			C240.4,221,240.2,221.2,239.9,221.2z M229.3,220.2h10.1v-32h-10.1V220.2z"/>
		<path fill="#715D4B" d="M226.4,221.2h-11.1c-0.3,0-0.5-0.2-0.5-0.5v-33c0-0.3,0.2-0.5,0.5-0.5h11.1c0.3,0,0.5,0.2,0.5,0.5v33
			C226.9,221,226.7,221.2,226.4,221.2z M215.8,220.2h10.1v-32h-10.1V220.2z"/>
		<path fill="#715D4B" d="M242.8,223.9h-43.6c-0.3,0-0.5-0.2-0.5-0.5v-38.5c0-0.3,0.2-0.5,0.5-0.5h43.6c0.3,0,0.5,0.2,0.5,0.5v38.5
			C243.3,223.6,243.1,223.9,242.8,223.9z M199.7,222.9h42.6v-37.5h-42.6V222.9z"/>
	</g>
	<g>
		<path fill="#715D4B" d="M240.8,159.6h-39.7c-0.3,0-0.5-0.2-0.5-0.5v-34.7c0-0.3,0.2-0.5,0.5-0.5h39.7c0.3,0,0.5,0.2,0.5,0.5v34.7
			C241.3,159.4,241.1,159.6,240.8,159.6z M201.6,158.6h38.7v-33.7h-38.7V158.6z"/>
		<path fill="#715D4B" d="M213.1,158.8h-11.1c-0.3,0-0.5-0.2-0.5-0.5v-33c0-0.3,0.2-0.5,0.5-0.5h11.1c0.3,0,0.5,0.2,0.5,0.5v33
			C213.6,158.6,213.3,158.8,213.1,158.8z M202.4,157.8h10.1v-32h-10.1V157.8z"/>
		<path fill="#715D4B" d="M239.9,158.8h-11.1c-0.3,0-0.5-0.2-0.5-0.5v-33c0-0.3,0.2-0.5,0.5-0.5h11.1c0.3,0,0.5,0.2,0.5,0.5v33
			C240.4,158.6,240.2,158.8,239.9,158.8z M229.3,157.8h10.1v-32h-10.1V157.8z"/>
		<path fill="#715D4B" d="M226.4,158.8h-11.1c-0.3,0-0.5-0.2-0.5-0.5v-33c0-0.3,0.2-0.5,0.5-0.5h11.1c0.3,0,0.5,0.2,0.5,0.5v33
			C226.9,158.6,226.7,158.8,226.4,158.8z M215.8,157.8h10.1v-32h-10.1V157.8z"/>
		<path fill="#715D4B" d="M242.8,161.4h-43.6c-0.3,0-0.5-0.2-0.5-0.5v-38.5c0-0.3,0.2-0.5,0.5-0.5h43.6c0.3,0,0.5,0.2,0.5,0.5v38.5
			C243.3,161.2,243.1,161.4,242.8,161.4z M199.7,160.4h42.6v-37.5h-42.6V160.4z"/>
	</g>
	<g>
		<rect x="259" y="71.6" fill="#FFFFFF" width="148.5" height="554.3"/>
		<path fill="#715D4B" d="M407.6,627.4H259c-0.8,0-1.5-0.7-1.5-1.5V71.6c0-0.8,0.7-1.5,1.5-1.5h148.5c0.8,0,1.5,0.7,1.5,1.5v554.3
			C409.1,626.7,408.4,627.4,407.6,627.4z M260.5,624.4h145.5V73.1H260.5V624.4z"/>
	</g>
	<g>
		<rect x="418.1" y="71.8" fill="#FFFFFF" width="33.7" height="237.4"/>
		<path fill="#715D4B" d="M451.8,310.2h-33.7c-0.6,0-1-0.4-1-1V71.8c0-0.6,0.4-1,1-1h33.7c0.6,0,1,0.4,1,1v237.4
			C452.8,309.7,452.3,310.2,451.8,310.2z M419.1,308.2h31.7V72.8h-31.7V308.2z"/>
	</g>
	<g>
		<rect x="419.3" y="434.1" fill="#FFFFFF" width="33.7" height="126.2"/>
		<path fill="#715D4B" d="M453,561.3h-33.7c-0.6,0-1-0.4-1-1V434.1c0-0.6,0.4-1,1-1H453c0.6,0,1,0.4,1,1v126.2
			C454,560.8,453.6,561.3,453,561.3z M420.3,559.3H452V435.1h-31.7V559.3z"/>
	</g>
	<path fill="#715D4B" d="M259,682.2h-81.2c-0.8,0-1.5-0.7-1.5-1.5V86.9c0-0.8,0.7-1.5,1.5-1.5H259c0.8,0,1.5,0.7,1.5,1.5v593.8
		C260.5,681.5,259.9,682.2,259,682.2z M179.3,679.2h78.2V88.4h-78.2V679.2z"/>
	<g>
		<path fill="#715D4B" d="M380,675.6h-31.1c-0.3,0-0.5-0.2-0.5-0.5v-41.6c0-0.3,0.2-0.5,0.5-0.5H380c0.3,0,0.5,0.2,0.5,0.5v41.6
			C380.5,675.4,380.2,675.6,380,675.6z M349.3,674.6h30.1V634h-30.1V674.6z"/>
		<path fill="#715D4B" d="M363.7,674.4h-13.6c-0.3,0-0.5-0.2-0.5-0.5v-7.9c0-0.3,0.2-0.5,0.5-0.5s0.5,0.2,0.5,0.5v7.4h13.1
			c0.3,0,0.5,0.2,0.5,0.5S364,674.4,363.7,674.4z"/>
		<path fill="#715D4B" d="M378.7,674.4H365c-0.3,0-0.5-0.2-0.5-0.5v-7.9c0-0.3,0.2-0.5,0.5-0.5s0.5,0.2,0.5,0.5v7.4h12.7v-7.4
			c0-0.3,0.2-0.5,0.5-0.5s0.5,0.2,0.5,0.5v7.9C379.2,674.2,379,674.4,378.7,674.4z"/>
		<path fill="#715D4B" d="M363.7,674.4c-0.3,0-0.5-0.2-0.5-0.5v-7.4h-13.1c-0.3,0-0.5-0.2-0.5-0.5s0.2-0.5,0.5-0.5h13.6
			c0.3,0,0.5,0.2,0.5,0.5v7.9C364.2,674.2,364,674.4,363.7,674.4z"/>
		<path fill="#715D4B" d="M378.7,666.6H365c-0.3,0-0.5-0.2-0.5-0.5s0.2-0.5,0.5-0.5h13.7c0.3,0,0.5,0.2,0.5,0.5
			S379,666.6,378.7,666.6z"/>
		<path fill="#715D4B" d="M363,664.6h-12c-0.3,0-0.5-0.2-0.5-0.5v-28.5c0-0.3,0.2-0.5,0.5-0.5h12c0.3,0,0.5,0.2,0.5,0.5v28.5
			C363.5,664.4,363.2,664.6,363,664.6z M351.5,663.6h11v-27.5h-11V663.6z"/>
		<path fill="#715D4B" d="M377.8,664.6h-12c-0.3,0-0.5-0.2-0.5-0.5v-28.5c0-0.3,0.2-0.5,0.5-0.5h12c0.3,0,0.5,0.2,0.5,0.5v28.5
			C378.3,664.4,378.1,664.6,377.8,664.6z M366.3,663.6h11v-27.5h-11V663.6z"/>
		<path fill="#715D4B" d="M383,675.6h-37.1c-0.3,0-0.5-0.2-0.5-0.5v-44.6c0-0.3,0.2-0.5,0.5-0.5H383c0.3,0,0.5,0.2,0.5,0.5v44.6
			C383.5,675.4,383.2,675.6,383,675.6z M346.3,674.6h36.1V631h-36.1V674.6z"/>
		<path fill="#715D4B" d="M381.7,675.7H347c-0.3,0-0.5-0.2-0.5-0.5v-43.5c0-0.3,0.2-0.5,0.5-0.5h34.7c0.3,0,0.5,0.2,0.5,0.5v43.5
			C382.2,675.5,382,675.7,381.7,675.7z M347.5,674.7h33.7v-42.5h-33.7V674.7z"/>
		<path fill="#715D4B" d="M341,626.9c-0.3,0-0.5-0.2-0.5-0.5v-0.5c0-0.3,0.2-0.5,0.5-0.5s0.5,0.2,0.5,0.5v0.5
			C341.5,626.6,341.3,626.9,341,626.9z"/>
		<path fill="#715D4B" d="M341.4,627.2c-0.2,0-0.4-0.2-0.5-0.4c-0.2-0.1-0.4-0.3-0.4-0.5c0-0.3,0.2-0.5,0.5-0.5
			c0.5,0,0.9,0.4,0.9,0.9C341.9,627,341.6,627.2,341.4,627.2z M340.9,626.7h0.5H340.9C340.9,626.7,340.9,626.7,340.9,626.7z"/>
		<path fill="#715D4B" d="M342,628c-0.6,0-1.1-0.6-1.1-1.2c0-0.3,0.2-0.5,0.5-0.5s0.5,0.2,0.5,0.5c0,0.1,0.1,0.2,0.1,0.2
			c0.3,0,0.5,0.2,0.5,0.5S342.3,628,342,628z"/>
		<path fill="#715D4B" d="M342.4,631c-0.1,0-0.3,0-0.4-0.1l-0.2-0.2c-0.1-0.1-0.1-0.2-0.1-0.4V630c0-0.1,0.1-0.3,0.1-0.4l0.1-0.1
			v-1.2c-0.1-0.1-0.2-0.2-0.2-0.4v-0.2c0-0.3,0.2-0.5,0.5-0.5c0.2,0,0.4,0.1,0.5,0.3c0.2,0.1,0.3,0.3,0.3,0.5v1.9
			c0,0.1-0.1,0.3-0.1,0.4l0,0l0,0c0.2,0.2,0.2,0.5,0,0.7C342.6,630.9,342.5,631,342.4,631z"/>
		<path fill="#715D4B" d="M342.9,631.5c-0.3,0-0.4-0.1-0.6-0.3c-0.3-0.3-0.3-0.6-0.3-0.7c0-0.3,0.2-0.5,0.5-0.5s0.5,0.2,0.5,0.5
			c0,0,0,0,0,0c0.2,0.1,0.4,0.3,0.3,0.5C343.3,631.3,343.1,631.5,342.9,631.5z"/>
		<path fill="#715D4B" d="M345.5,636.8h-2.6c-0.3,0-0.5-0.2-0.5-0.5v-5.1c0-0.3,0.2-0.5,0.5-0.5h2.6c0.3,0,0.5,0.2,0.5,0.5v5.1
			C346,636.6,345.8,636.8,345.5,636.8z M343.4,635.8h1.6v-4.1h-1.6V635.8z"/>
		<path fill="#715D4B" d="M387.8,626.9c-0.3,0-0.5-0.2-0.5-0.5v-0.5c0-0.3,0.2-0.5,0.5-0.5s0.5,0.2,0.5,0.5v0.5
			C388.3,626.6,388.1,626.9,387.8,626.9z"/>
		<path fill="#715D4B" d="M387.3,627.2c-0.3,0-0.5-0.2-0.5-0.5c0-0.5,0.4-0.9,0.9-0.9c0.3,0,0.5,0.2,0.5,0.5c0,0.2-0.2,0.4-0.4,0.5
			C387.8,627.1,387.6,627.2,387.3,627.2z"/>
		<path fill="#715D4B" d="M386.7,628.1c-0.2,0-0.4-0.1-0.5-0.3c-0.1-0.3,0.1-0.5,0.3-0.6c0.3-0.1,0.3-0.2,0.3-0.3
			c0-0.3,0.2-0.5,0.5-0.5s0.5,0.2,0.5,0.5c0,0.6-0.4,1-1,1.2C386.8,628.1,386.8,628.1,386.7,628.1z"/>
		<path fill="#715D4B" d="M386.4,631c-0.1,0-0.3,0-0.4-0.1c-0.2-0.2-0.2-0.5,0-0.7l0,0l0,0c-0.1-0.1-0.1-0.2-0.1-0.4v-1.9
			c0-0.2,0.1-0.4,0.3-0.5c0.1-0.2,0.3-0.3,0.5-0.3c0.3,0,0.5,0.2,0.5,0.5v0.2c0,0.2-0.1,0.3-0.2,0.4v1.2l0.1,0.1
			c0.1,0.1,0.1,0.2,0.1,0.4v0.2c0,0.1-0.1,0.3-0.1,0.4l-0.2,0.2C386.7,630.9,386.6,631,386.4,631z"/>
		<path fill="#715D4B" d="M385.9,631.5c-0.3,0-0.5-0.2-0.5-0.5c0-0.2,0.2-0.4,0.4-0.5c0-0.3,0.2-0.5,0.5-0.5c0.3,0,0.5,0.2,0.5,0.5
			c0,0.2,0,0.5-0.3,0.7C386.5,631.3,386.3,631.5,385.9,631.5z"/>
		<path fill="#715D4B" d="M385.9,636.8h-2.6c-0.3,0-0.5-0.2-0.5-0.5v-5.1c0-0.3,0.2-0.5,0.5-0.5h2.6c0.3,0,0.5,0.2,0.5,0.5v5.1
			C386.4,636.6,386.2,636.8,385.9,636.8z M383.8,635.8h1.6v-4.1h-1.6V635.8z"/>
		<path fill="#715D4B" d="M385.5,675.7h-42.1c-0.3,0-0.5-0.2-0.5-0.5s0.2-0.5,0.5-0.5h42.1c0.3,0,0.5,0.2,0.5,0.5
			S385.7,675.7,385.5,675.7z"/>
		<path fill="#715D4B" d="M383,679.9h-37.1c-0.3,0-0.5-0.2-0.5-0.5v-0.4c-0.2-0.1-0.4-0.3-0.4-0.5c0-0.3,0.2-0.5,0.5-0.5h0.4
			c0.3,0,0.5,0.2,0.5,0.5v0.4H383c0.3,0,0.5,0.2,0.5,0.5S383.2,679.9,383,679.9z"/>
		<path fill="#715D4B" d="M345.4,679.1c-0.3,0-0.5-0.2-0.5-0.5c0-0.5-0.1-0.5-0.2-0.5c-0.3-0.1-0.4-0.3-0.4-0.6s0.3-0.4,0.6-0.4
			c0.7,0.2,1,0.7,1,1.5C345.9,678.8,345.6,679.1,345.4,679.1z"/>
		<path fill="#715D4B" d="M344.9,678.1c-0.1,0-0.1,0-0.2,0c-0.8-0.3-1.4-1.2-1.4-2c0-0.3,0.2-0.5,0.5-0.5s0.5,0.2,0.5,0.5
			c0,0.4,0.4,0.9,0.8,1c0.3,0.1,0.4,0.4,0.3,0.6C345.2,678,345,678.1,344.9,678.1z"/>
		<path fill="#715D4B" d="M343.9,676.6h-0.5c-0.3,0-0.5-0.2-0.5-0.5v-0.9c0-0.3,0.2-0.5,0.5-0.5s0.5,0.2,0.5,0.5v0.4
			c0.3,0,0.5,0.2,0.5,0.5S344.1,676.6,343.9,676.6z"/>
		<path fill="#715D4B" d="M383,679.9c-0.3,0-0.5-0.2-0.5-0.5v-0.9c0-0.3,0.2-0.5,0.5-0.5h0.4c0.3,0,0.5,0.2,0.5,0.5
			c0,0.2-0.2,0.4-0.4,0.5v0.4C383.5,679.7,383.2,679.9,383,679.9z"/>
		<path fill="#715D4B" d="M383.3,679.1c-0.3,0-0.5-0.2-0.5-0.5c0-0.6,0.4-1.3,1-1.5c0.3-0.1,0.5,0.1,0.6,0.3
			c0.1,0.3-0.1,0.5-0.3,0.6c-0.1,0-0.3,0.3-0.3,0.5C383.8,678.8,383.6,679.1,383.3,679.1z"/>
		<path fill="#715D4B" d="M384,678.1c-0.2,0-0.4-0.1-0.5-0.3c-0.1-0.3,0-0.5,0.3-0.6c0.4-0.2,0.7-0.6,0.7-1c0-0.3,0.2-0.5,0.5-0.5
			s0.5,0.2,0.5,0.5c0,0.9-0.5,1.6-1.3,2C384.1,678.1,384,678.1,384,678.1z"/>
		<path fill="#715D4B" d="M385.5,676.6H385c-0.3,0-0.5-0.2-0.5-0.5s0.2-0.5,0.5-0.5v-0.4c0-0.3,0.2-0.5,0.5-0.5s0.5,0.2,0.5,0.5v0.9
			C386,676.3,385.7,676.6,385.5,676.6z"/>
		<path fill="#715D4B" d="M383,679.1h-37.1c-0.3,0-0.5-0.2-0.5-0.5s0.2-0.5,0.5-0.5H383c0.3,0,0.5,0.2,0.5,0.5
			S383.2,679.1,383,679.1z"/>
		<path fill="#715D4B" d="M385,676.6h-41.1c-0.3,0-0.5-0.2-0.5-0.5s0.2-0.5,0.5-0.5H385c0.3,0,0.5,0.2,0.5,0.5
			S385.2,676.6,385,676.6z"/>
		<path fill="#715D4B" d="M345.8,680.8c-0.3,0-0.5-0.2-0.5-0.5v-0.9c0-0.3,0.2-0.5,0.5-0.5s0.5,0.2,0.5,0.5v0.9
			C346.3,680.6,346.1,680.8,345.8,680.8z"/>
		<path fill="#715D4B" d="M383,680.8c-0.3,0-0.5-0.2-0.5-0.5v-0.9c0-0.3,0.2-0.5,0.5-0.5s0.5,0.2,0.5,0.5v0.9
			C383.5,680.6,383.2,680.8,383,680.8z"/>
		<path fill="#715D4B" d="M386.2,631h-43.8c-0.2,0-0.4-0.1-0.4-0.3l-0.1-0.2c-0.1-0.2,0-0.5,0.2-0.7c0.2-0.1,0.5,0,0.7,0.2h43.5
			c0.3,0,0.5,0.2,0.5,0.5S386.5,631,386.2,631z"/>
		<path fill="#715D4B" d="M342.2,630.6c-0.1,0-0.6,0-0.6-0.8c0-0.2,0.1-0.4,0.3-0.5c0.1-0.1,0.2-0.2,0.4-0.2c0.3,0,0.5,0.2,0.5,0.5
			c0,0.1,0,0.2-0.1,0.3c0,0,0,0,0,0C342.7,630.4,342.5,630.6,342.2,630.6z"/>
		<path fill="#715D4B" d="M342.4,630.2c-0.3,0-0.5-0.2-0.5-0.5v-1.4c-0.1-0.1-0.2-0.2-0.2-0.4v-0.4c0-0.3,0.2-0.5,0.5-0.5
			c0.3,0,0.5,0.2,0.5,0.4c0.2,0.1,0.3,0.2,0.3,0.4v1.9C342.9,630,342.6,630.2,342.4,630.2z"/>
		<path fill="#715D4B" d="M342,628c-0.1,0-0.1,0-0.2,0c-0.6-0.2-1-0.7-1-1.2c0-0.3,0.2-0.5,0.5-0.5s0.5,0.2,0.5,0.5
			c0,0.1,0,0.2,0.3,0.3c0.3,0.1,0.4,0.4,0.3,0.6C342.4,627.8,342.2,628,342,628z"/>
		<path fill="#715D4B" d="M341.4,627.2c-0.2,0-0.4-0.2-0.5-0.4c-0.2-0.1-0.4-0.2-0.4-0.5c0-0.3,0.2-0.5,0.5-0.5
			c0.4,0,0.9,0.4,0.9,0.9C341.9,627,341.6,627.2,341.4,627.2z"/>
	</g>
	<g>
		<path fill="#715D4B" d="M318.7,675.6h-31.1c-0.3,0-0.5-0.2-0.5-0.5v-41.6c0-0.3,0.2-0.5,0.5-0.5h31.1c0.3,0,0.5,0.2,0.5,0.5v41.6
			C319.2,675.4,319,675.6,318.7,675.6z M288.1,674.6h30.1V634h-30.1V674.6z"/>
		<path fill="#715D4B" d="M302.5,674.4h-13.6c-0.3,0-0.5-0.2-0.5-0.5v-7.9c0-0.3,0.2-0.5,0.5-0.5s0.5,0.2,0.5,0.5v7.4h13.1
			c0.3,0,0.5,0.2,0.5,0.5S302.8,674.4,302.5,674.4z"/>
		<path fill="#715D4B" d="M317.5,674.4h-13.7c-0.3,0-0.5-0.2-0.5-0.5v-7.9c0-0.3,0.2-0.5,0.5-0.5s0.5,0.2,0.5,0.5v7.4H317v-7.4
			c0-0.3,0.2-0.5,0.5-0.5s0.5,0.2,0.5,0.5v7.9C318,674.2,317.8,674.4,317.5,674.4z"/>
		<path fill="#715D4B" d="M302.5,674.4c-0.3,0-0.5-0.2-0.5-0.5v-7.4h-13.1c-0.3,0-0.5-0.2-0.5-0.5s0.2-0.5,0.5-0.5h13.6
			c0.3,0,0.5,0.2,0.5,0.5v7.9C303,674.2,302.8,674.4,302.5,674.4z"/>
		<path fill="#715D4B" d="M317.5,666.6h-13.7c-0.3,0-0.5-0.2-0.5-0.5s0.2-0.5,0.5-0.5h13.7c0.3,0,0.5,0.2,0.5,0.5
			S317.8,666.6,317.5,666.6z"/>
		<path fill="#715D4B" d="M301.6,664.6h-12c-0.3,0-0.5-0.2-0.5-0.5v-28.5c0-0.3,0.2-0.5,0.5-0.5h12c0.3,0,0.5,0.2,0.5,0.5v28.5
			C302.1,664.4,301.9,664.6,301.6,664.6z M290.1,663.6h11v-27.5h-11V663.6z"/>
		<path fill="#715D4B" d="M316.6,664.6h-12c-0.3,0-0.5-0.2-0.5-0.5v-28.5c0-0.3,0.2-0.5,0.5-0.5h12c0.3,0,0.5,0.2,0.5,0.5v28.5
			C317.1,664.4,316.9,664.6,316.6,664.6z M305.1,663.6h11v-27.5h-11V663.6z"/>
		<path fill="#715D4B" d="M321.7,675.6h-37.1c-0.3,0-0.5-0.2-0.5-0.5v-44.6c0-0.3,0.2-0.5,0.5-0.5h37.1c0.3,0,0.5,0.2,0.5,0.5v44.6
			C322.2,675.4,322,675.6,321.7,675.6z M285.1,674.6h36.1V631h-36.1V674.6z"/>
		<path fill="#715D4B" d="M320.5,675.7h-34.7c-0.3,0-0.5-0.2-0.5-0.5v-43.5c0-0.3,0.2-0.5,0.5-0.5h34.7c0.3,0,0.5,0.2,0.5,0.5v43.5
			C321,675.5,320.8,675.7,320.5,675.7z M286.3,674.7H320v-42.5h-33.7V674.7z"/>
		<path fill="#715D4B" d="M279.8,626.9c-0.3,0-0.5-0.2-0.5-0.5v-0.5c0-0.3,0.2-0.5,0.5-0.5s0.5,0.2,0.5,0.5v0.5
			C280.3,626.6,280,626.9,279.8,626.9z"/>
		<path fill="#715D4B" d="M280.1,627.2c-0.2,0-0.4-0.2-0.5-0.4c-0.2-0.1-0.4-0.2-0.4-0.5c0-0.3,0.2-0.5,0.5-0.5
			c0.4,0,0.9,0.4,0.9,0.9C280.6,627,280.4,627.2,280.1,627.2z"/>
		<path fill="#715D4B" d="M280.8,628c-0.6,0-1.1-0.6-1.1-1.2c0-0.3,0.2-0.5,0.5-0.5s0.5,0.2,0.5,0.5c0,0.1,0.1,0.2,0.1,0.2
			c0.3,0,0.5,0.2,0.5,0.5S281,628,280.8,628z"/>
		<path fill="#715D4B" d="M281.1,631c-0.1,0-0.2,0-0.3-0.1l-0.4-0.2c-0.1-0.1-0.2-0.2-0.2-0.4V630c0-0.2,0.1-0.3,0.2-0.4l0.2-0.1
			v-1.1c-0.2-0.1-0.4-0.3-0.4-0.5v-0.2c0-0.3,0.2-0.5,0.5-0.5c0.2,0,0.3,0.1,0.4,0.3c0.2,0,0.4,0.2,0.4,0.5v1.9
			c0,0.1-0.1,0.3-0.2,0.4c0.2,0.2,0.2,0.4,0.1,0.7C281.5,630.9,281.3,631,281.1,631z"/>
		<path fill="#715D4B" d="M281.5,631.5c-0.3,0-0.4-0.1-0.6-0.3c-0.3-0.3-0.3-0.6-0.3-0.7c0-0.3,0.2-0.5,0.5-0.5s0.5,0.2,0.5,0.5
			c0,0,0,0,0,0c0.2,0.1,0.4,0.3,0.3,0.5C282,631.3,281.8,631.5,281.5,631.5z"/>
		<path fill="#715D4B" d="M284.1,636.8h-2.5c-0.3,0-0.5-0.2-0.5-0.5v-5.1c0-0.3,0.2-0.5,0.5-0.5h2.5c0.3,0,0.5,0.2,0.5,0.5v5.1
			C284.6,636.6,284.4,636.8,284.1,636.8z M282.1,635.8h1.5v-4.1h-1.5V635.8z"/>
		<path fill="#715D4B" d="M326.5,626.9c-0.3,0-0.5-0.2-0.5-0.5v-0.5c0-0.3,0.2-0.5,0.5-0.5s0.5,0.2,0.5,0.5v0.5
			C327,626.6,326.8,626.9,326.5,626.9z"/>
		<path fill="#715D4B" d="M326.1,627.2c-0.3,0-0.5-0.2-0.5-0.5c0-0.5,0.5-0.9,0.9-0.9c0.3,0,0.5,0.2,0.5,0.5c0,0.2-0.2,0.4-0.4,0.5
			C326.5,627.1,326.3,627.2,326.1,627.2z"/>
		<path fill="#715D4B" d="M325.5,628.1c-0.2,0-0.4-0.1-0.5-0.3c-0.1-0.3,0.1-0.5,0.3-0.6c0.3-0.1,0.3-0.2,0.3-0.3
			c0-0.3,0.2-0.5,0.5-0.5s0.5,0.2,0.5,0.5c0,0.6-0.4,1-1,1.2C325.6,628.1,325.5,628.1,325.5,628.1z"/>
		<path fill="#715D4B" d="M325.1,631c-0.2,0-0.3-0.1-0.4-0.2c-0.1-0.2-0.1-0.5,0.1-0.7c-0.1-0.1-0.2-0.2-0.2-0.4v-1.9
			c0-0.3,0.2-0.5,0.4-0.5c0.1-0.2,0.2-0.3,0.4-0.3c0.3,0,0.5,0.2,0.5,0.5v0.2c0,0.2-0.2,0.4-0.4,0.5v1.1l0.2,0.1
			c0.1,0.1,0.2,0.2,0.2,0.4v0.2c0,0.2-0.1,0.3-0.2,0.4l-0.4,0.2C325.3,630.9,325.2,631,325.1,631z"/>
		<path fill="#715D4B" d="M324.6,631.5c-0.3,0-0.5-0.2-0.5-0.5c0-0.2,0.2-0.4,0.4-0.5c0-0.3,0.2-0.5,0.5-0.5c0.3,0,0.5,0.2,0.5,0.5
			c0,0.2,0,0.5-0.3,0.7C325.2,631.3,324.9,631.5,324.6,631.5z"/>
		<path fill="#715D4B" d="M324.7,636.8h-2.6c-0.3,0-0.5-0.2-0.5-0.5v-5.1c0-0.3,0.2-0.5,0.5-0.5h2.6c0.3,0,0.5,0.2,0.5,0.5v5.1
			C325.2,636.6,325,636.8,324.7,636.8z M322.6,635.8h1.6v-4.1h-1.6V635.8z"/>
		<path fill="#715D4B" d="M324.1,675.7h-42c-0.3,0-0.5-0.2-0.5-0.5s0.2-0.5,0.5-0.5h42c0.3,0,0.5,0.2,0.5,0.5
			S324.4,675.7,324.1,675.7z"/>
		<path fill="#715D4B" d="M321.7,679.9h-37.1c-0.3,0-0.5-0.2-0.5-0.5v-0.4c-0.2-0.1-0.4-0.3-0.4-0.5c0-0.3,0.2-0.5,0.5-0.5h0.4
			c0.3,0,0.5,0.2,0.5,0.5v0.4h36.6c0.3,0,0.5,0.2,0.5,0.5S322,679.9,321.7,679.9z"/>
		<path fill="#715D4B" d="M284.1,679.1c-0.3,0-0.5-0.2-0.5-0.5c0-0.3-0.1-0.5-0.3-0.5c-0.3-0.1-0.4-0.4-0.3-0.6
			c0.1-0.3,0.4-0.4,0.6-0.3c0.6,0.2,1,0.8,1,1.5C284.6,678.8,284.4,679.1,284.1,679.1z"/>
		<path fill="#715D4B" d="M283.5,678.1c-0.1,0-0.2,0-0.2-0.1c-0.6-0.3-1.3-1.1-1.3-1.9c0-0.3,0.2-0.5,0.5-0.5s0.5,0.2,0.5,0.5
			c0,0.4,0.4,0.9,0.7,1.1c0.2,0.1,0.3,0.4,0.2,0.7C283.9,678,283.7,678.1,283.5,678.1z"/>
		<path fill="#715D4B" d="M282.5,676.6h-0.4c-0.3,0-0.5-0.2-0.5-0.5v-0.9c0-0.3,0.2-0.5,0.5-0.5s0.5,0.2,0.5,0.5v0.4
			c0.2,0.1,0.4,0.3,0.4,0.5C283,676.3,282.8,676.6,282.5,676.6z"/>
		<path fill="#715D4B" d="M321.7,679.9c-0.3,0-0.5-0.2-0.5-0.5v-0.9c0-0.3,0.2-0.5,0.5-0.5h0.2c0.3,0,0.5,0.2,0.5,0.5
			c0,0.2-0.1,0.3-0.2,0.4v0.4C322.2,679.7,322,679.9,321.7,679.9z"/>
		<path fill="#715D4B" d="M322,679.1c-0.3,0-0.5-0.2-0.5-0.5c0-0.6,0.4-1.3,1-1.5c0.3-0.1,0.5,0.1,0.6,0.3c0.1,0.3-0.1,0.5-0.3,0.6
			c-0.1,0-0.3,0.3-0.3,0.5C322.5,678.8,322.3,679.1,322,679.1z"/>
		<path fill="#715D4B" d="M322.6,678.1c-0.2,0-0.4-0.1-0.5-0.3c-0.1-0.3,0-0.5,0.3-0.6c0.4-0.2,0.7-0.6,0.8-1.1
			c0.1-0.3,0.3-0.4,0.6-0.4c0.3,0.1,0.4,0.3,0.4,0.6c-0.2,0.9-0.7,1.6-1.4,1.9C322.7,678.1,322.7,678.1,322.6,678.1z"/>
		<path fill="#715D4B" d="M324.1,676.6h-0.4c-0.3,0-0.5-0.2-0.5-0.5c0-0.2,0.2-0.4,0.4-0.5v-0.4c0-0.3,0.2-0.5,0.5-0.5
			s0.5,0.2,0.5,0.5v0.9C324.6,676.3,324.4,676.6,324.1,676.6z"/>
		<path fill="#715D4B" d="M321.7,679.1h-37.1c-0.3,0-0.5-0.2-0.5-0.5s0.2-0.5,0.5-0.5h37.1c0.3,0,0.5,0.2,0.5,0.5
			S322,679.1,321.7,679.1z"/>
		<path fill="#715D4B" d="M323.7,676.6h-41.2c-0.3,0-0.5-0.2-0.5-0.5s0.2-0.5,0.5-0.5h41.2c0.3,0,0.5,0.2,0.5,0.5
			S324,676.6,323.7,676.6z"/>
		<path fill="#715D4B" d="M284.6,680.8c-0.3,0-0.5-0.2-0.5-0.5v-0.9c0-0.3,0.2-0.5,0.5-0.5s0.5,0.2,0.5,0.5v0.9
			C285.1,680.6,284.9,680.8,284.6,680.8z"/>
		<path fill="#715D4B" d="M321.7,680.8c-0.3,0-0.5-0.2-0.5-0.5v-0.9c0-0.3,0.2-0.5,0.5-0.5s0.5,0.2,0.5,0.5v0.9
			C322.2,680.6,322,680.8,321.7,680.8z"/>
		<path fill="#715D4B" d="M325,631h-43.8c-0.1,0-0.3-0.1-0.4-0.1l-0.2-0.2c-0.2-0.2-0.2-0.5,0-0.7c0.2-0.2,0.5-0.2,0.7,0l0.1,0.1
			H325c0.3,0,0.5,0.2,0.5,0.5S325.3,631,325,631z"/>
		<path fill="#715D4B" d="M281,630.6c-0.1,0-0.6,0-0.6-0.8c0-0.2,0.1-0.4,0.3-0.5c0.1-0.1,0.2-0.2,0.4-0.2c0.3,0,0.5,0.2,0.5,0.5
			c0,0.1,0,0.2-0.1,0.3c0,0,0,0,0,0C281.5,630.4,281.3,630.6,281,630.6z"/>
		<path fill="#715D4B" d="M281.1,630.2c-0.3,0-0.5-0.2-0.5-0.5v-1.4c-0.2-0.1-0.4-0.3-0.4-0.5v-0.4c0-0.3,0.2-0.5,0.5-0.5
			c0.2,0,0.4,0.2,0.5,0.4c0.2,0.1,0.4,0.2,0.4,0.5v1.9C281.6,630,281.4,630.2,281.1,630.2z"/>
		<path fill="#715D4B" d="M280.8,628c-0.1,0-0.1,0-0.2,0c-0.6-0.2-1-0.7-1-1.2c0-0.3,0.2-0.5,0.5-0.5s0.5,0.2,0.5,0.5
			c0,0.1,0,0.2,0.3,0.3c0.3,0.1,0.4,0.4,0.3,0.6C281.2,627.8,281,628,280.8,628z"/>
		<path fill="#715D4B" d="M280.1,627.2c-0.2,0-0.4-0.2-0.5-0.4c-0.2-0.1-0.4-0.2-0.4-0.5c0-0.3,0.2-0.5,0.5-0.5
			c0.4,0,0.9,0.4,0.9,0.9C280.6,627,280.4,627.2,280.1,627.2z"/>
	</g>
	<rect x="406.3" y="70.6" fill="#715D4B" width="12.6" height="2"/>
	<g>
		<path fill="#715D4B" d="M301.6,549.5h-13.7c-0.3,0-0.5-0.2-0.5-0.5v-7.7c0-0.3,0.2-0.5,0.5-0.5s0.5,0.2,0.5,0.5v7.2h13.2
			c0.3,0,0.5,0.2,0.5,0.5S301.9,549.5,301.6,549.5z"/>
		<path fill="#715D4B" d="M316.5,549.5h-13.7c-0.3,0-0.5-0.2-0.5-0.5v-7.7c0-0.3,0.2-0.5,0.5-0.5s0.5,0.2,0.5,0.5v7.2H316v-7.2
			c0-0.3,0.2-0.5,0.5-0.5s0.5,0.2,0.5,0.5v7.7C317,549.3,316.8,549.5,316.5,549.5z"/>
		<path fill="#715D4B" d="M301.6,549.5c-0.3,0-0.5-0.2-0.5-0.5v-7.2h-13.2c-0.3,0-0.5-0.2-0.5-0.5s0.2-0.5,0.5-0.5h13.7
			c0.3,0,0.5,0.2,0.5,0.5v7.7C302.1,549.3,301.9,549.5,301.6,549.5z"/>
		<path fill="#715D4B" d="M316.5,541.8h-13.7c-0.3,0-0.5-0.2-0.5-0.5s0.2-0.5,0.5-0.5h13.7c0.3,0,0.5,0.2,0.5,0.5
			S316.8,541.8,316.5,541.8z"/>
		<path fill="#715D4B" d="M300.6,539.7h-12c-0.3,0-0.5-0.2-0.5-0.5v-28.5c0-0.3,0.2-0.5,0.5-0.5h12c0.3,0,0.5,0.2,0.5,0.5v28.5
			C301.1,539.4,300.9,539.7,300.6,539.7z M289.1,538.7h11v-27.5h-11V538.7z"/>
		<path fill="#715D4B" d="M315.6,539.7h-12c-0.3,0-0.5-0.2-0.5-0.5v-28.5c0-0.3,0.2-0.5,0.5-0.5h12c0.3,0,0.5,0.2,0.5,0.5v28.5
			C316.1,539.4,315.9,539.7,315.6,539.7z M304.1,538.7h11v-27.5h-11V538.7z"/>
		<path fill="#715D4B" d="M363.7,549.5h-13.6c-0.3,0-0.5-0.2-0.5-0.5v-7.7c0-0.3,0.2-0.5,0.5-0.5s0.5,0.2,0.5,0.5v7.2h13.1
			c0.3,0,0.5,0.2,0.5,0.5S364,549.5,363.7,549.5z"/>
		<path fill="#715D4B" d="M378.7,549.5H365c-0.3,0-0.5-0.2-0.5-0.5v-7.7c0-0.3,0.2-0.5,0.5-0.5s0.5,0.2,0.5,0.5v7.2h12.7v-7.2
			c0-0.3,0.2-0.5,0.5-0.5s0.5,0.2,0.5,0.5v7.7C379.2,549.3,379,549.5,378.7,549.5z"/>
		<path fill="#715D4B" d="M363.7,549.5c-0.3,0-0.5-0.2-0.5-0.5v-7.2h-13.1c-0.3,0-0.5-0.2-0.5-0.5s0.2-0.5,0.5-0.5h13.6
			c0.3,0,0.5,0.2,0.5,0.5v7.7C364.2,549.3,364,549.5,363.7,549.5z"/>
		<path fill="#715D4B" d="M378.7,541.8H365c-0.3,0-0.5-0.2-0.5-0.5s0.2-0.5,0.5-0.5h13.7c0.3,0,0.5,0.2,0.5,0.5
			S379,541.8,378.7,541.8z"/>
		<path fill="#715D4B" d="M363,539.7h-12c-0.3,0-0.5-0.2-0.5-0.5v-28.5c0-0.3,0.2-0.5,0.5-0.5h12c0.3,0,0.5,0.2,0.5,0.5v28.5
			C363.5,539.4,363.2,539.7,363,539.7z M351.5,538.7h11v-27.5h-11V538.7z"/>
		<path fill="#715D4B" d="M377.8,539.7h-12c-0.3,0-0.5-0.2-0.5-0.5v-28.5c0-0.3,0.2-0.5,0.5-0.5h12c0.3,0,0.5,0.2,0.5,0.5v28.5
			C378.3,539.4,378.1,539.7,377.8,539.7z M366.3,538.7h11v-27.5h-11V538.7z"/>
		<path fill="#715D4B" d="M381,551.8h-33.1c-0.3,0-0.5-0.2-0.5-0.5v-43.7c0-0.3,0.2-0.5,0.5-0.5H381c0.3,0,0.5,0.2,0.5,0.5v43.7
			C381.5,551.6,381.2,551.8,381,551.8z M348.3,550.8h32.1v-42.7h-32.1V550.8z"/>
		<path fill="#715D4B" d="M318.7,551.8h-33.1c-0.3,0-0.5-0.2-0.5-0.5v-43.7c0-0.3,0.2-0.5,0.5-0.5h33.1c0.3,0,0.5,0.2,0.5,0.5v43.7
			C319.2,551.6,319,551.8,318.7,551.8z M286.1,550.8h32.1v-42.7h-32.1V550.8z"/>
	</g>
	<g>
		<path fill="#715D4B" d="M301.6,609.5h-13.7c-0.3,0-0.5-0.2-0.5-0.5v-7.7c0-0.3,0.2-0.5,0.5-0.5s0.5,0.2,0.5,0.5v7.2h13.2
			c0.3,0,0.5,0.2,0.5,0.5S301.9,609.5,301.6,609.5z"/>
		<path fill="#715D4B" d="M316.5,609.5h-13.7c-0.3,0-0.5-0.2-0.5-0.5v-7.7c0-0.3,0.2-0.5,0.5-0.5s0.5,0.2,0.5,0.5v7.2H316v-7.2
			c0-0.3,0.2-0.5,0.5-0.5s0.5,0.2,0.5,0.5v7.7C317,609.3,316.8,609.5,316.5,609.5z"/>
		<path fill="#715D4B" d="M301.6,609.5c-0.3,0-0.5-0.2-0.5-0.5v-7.2h-13.2c-0.3,0-0.5-0.2-0.5-0.5s0.2-0.5,0.5-0.5h13.7
			c0.3,0,0.5,0.2,0.5,0.5v7.7C302.1,609.3,301.9,609.5,301.6,609.5z"/>
		<path fill="#715D4B" d="M316.5,601.7h-13.7c-0.3,0-0.5-0.2-0.5-0.5s0.2-0.5,0.5-0.5h13.7c0.3,0,0.5,0.2,0.5,0.5
			S316.8,601.7,316.5,601.7z"/>
		<path fill="#715D4B" d="M300.6,599.6h-12c-0.3,0-0.5-0.2-0.5-0.5v-28.5c0-0.3,0.2-0.5,0.5-0.5h12c0.3,0,0.5,0.2,0.5,0.5v28.5
			C301.1,599.4,300.9,599.6,300.6,599.6z M289.1,598.6h11v-27.5h-11V598.6z"/>
		<path fill="#715D4B" d="M315.6,599.6h-12c-0.3,0-0.5-0.2-0.5-0.5v-28.5c0-0.3,0.2-0.5,0.5-0.5h12c0.3,0,0.5,0.2,0.5,0.5v28.5
			C316.1,599.4,315.9,599.6,315.6,599.6z M304.1,598.6h11v-27.5h-11V598.6z"/>
		<path fill="#715D4B" d="M363.7,609.5h-13.6c-0.3,0-0.5-0.2-0.5-0.5v-7.7c0-0.3,0.2-0.5,0.5-0.5s0.5,0.2,0.5,0.5v7.2h13.1
			c0.3,0,0.5,0.2,0.5,0.5S364,609.5,363.7,609.5z"/>
		<path fill="#715D4B" d="M378.7,609.5H365c-0.3,0-0.5-0.2-0.5-0.5v-7.7c0-0.3,0.2-0.5,0.5-0.5s0.5,0.2,0.5,0.5v7.2h12.7v-7.2
			c0-0.3,0.2-0.5,0.5-0.5s0.5,0.2,0.5,0.5v7.7C379.2,609.3,379,609.5,378.7,609.5z"/>
		<path fill="#715D4B" d="M363.7,609.5c-0.3,0-0.5-0.2-0.5-0.5v-7.2h-13.1c-0.3,0-0.5-0.2-0.5-0.5s0.2-0.5,0.5-0.5h13.6
			c0.3,0,0.5,0.2,0.5,0.5v7.7C364.2,609.3,364,609.5,363.7,609.5z"/>
		<path fill="#715D4B" d="M378.7,601.7H365c-0.3,0-0.5-0.2-0.5-0.5s0.2-0.5,0.5-0.5h13.7c0.3,0,0.5,0.2,0.5,0.5
			S379,601.7,378.7,601.7z"/>
		<path fill="#715D4B" d="M363,599.6h-12c-0.3,0-0.5-0.2-0.5-0.5v-28.5c0-0.3,0.2-0.5,0.5-0.5h12c0.3,0,0.5,0.2,0.5,0.5v28.5
			C363.5,599.4,363.2,599.6,363,599.6z M351.5,598.6h11v-27.5h-11V598.6z"/>
		<path fill="#715D4B" d="M377.8,599.6h-12c-0.3,0-0.5-0.2-0.5-0.5v-28.5c0-0.3,0.2-0.5,0.5-0.5h12c0.3,0,0.5,0.2,0.5,0.5v28.5
			C378.3,599.4,378.1,599.6,377.8,599.6z M366.3,598.6h11v-27.5h-11V598.6z"/>
		<path fill="#715D4B" d="M381,611.7h-33.1c-0.3,0-0.5-0.2-0.5-0.5v-43.7c0-0.3,0.2-0.5,0.5-0.5H381c0.3,0,0.5,0.2,0.5,0.5v43.7
			C381.5,611.5,381.2,611.7,381,611.7z M348.3,610.7h32.1V568h-32.1V610.7z"/>
		<path fill="#715D4B" d="M318.7,611.7h-33.1c-0.3,0-0.5-0.2-0.5-0.5v-43.7c0-0.3,0.2-0.5,0.5-0.5h33.1c0.3,0,0.5,0.2,0.5,0.5v43.7
			C319.2,611.5,319,611.7,318.7,611.7z M286.1,610.7h32.1V568h-32.1V610.7z"/>
	</g>
	<g>
		<path fill="#715D4B" d="M301.6,487.2h-13.7c-0.3,0-0.5-0.2-0.5-0.5v-7.9c0-0.3,0.2-0.5,0.5-0.5s0.5,0.2,0.5,0.5v7.4h13.2
			c0.3,0,0.5,0.2,0.5,0.5S301.9,487.2,301.6,487.2z"/>
		<path fill="#715D4B" d="M316.5,487.2h-13.7c-0.3,0-0.5-0.2-0.5-0.5v-7.9c0-0.3,0.2-0.5,0.5-0.5s0.5,0.2,0.5,0.5v7.4H316v-7.4
			c0-0.3,0.2-0.5,0.5-0.5s0.5,0.2,0.5,0.5v7.9C317,487,316.8,487.2,316.5,487.2z"/>
		<path fill="#715D4B" d="M301.6,487.2c-0.3,0-0.5-0.2-0.5-0.5v-7.4h-13.2c-0.3,0-0.5-0.2-0.5-0.5s0.2-0.5,0.5-0.5h13.7
			c0.3,0,0.5,0.2,0.5,0.5v7.9C302.1,487,301.9,487.2,301.6,487.2z"/>
		<path fill="#715D4B" d="M316.5,479.3h-13.7c-0.3,0-0.5-0.2-0.5-0.5s0.2-0.5,0.5-0.5h13.7c0.3,0,0.5,0.2,0.5,0.5
			S316.8,479.3,316.5,479.3z"/>
		<path fill="#715D4B" d="M300.6,477.3h-12c-0.3,0-0.5-0.2-0.5-0.5v-28.5c0-0.3,0.2-0.5,0.5-0.5h12c0.3,0,0.5,0.2,0.5,0.5v28.5
			C301.1,477.1,300.9,477.3,300.6,477.3z M289.1,476.3h11v-27.5h-11V476.3z"/>
		<path fill="#715D4B" d="M315.6,477.3h-12c-0.3,0-0.5-0.2-0.5-0.5v-28.5c0-0.3,0.2-0.5,0.5-0.5h12c0.3,0,0.5,0.2,0.5,0.5v28.5
			C316.1,477.1,315.9,477.3,315.6,477.3z M304.1,476.3h11v-27.5h-11V476.3z"/>
		<path fill="#715D4B" d="M363.7,487.2h-13.6c-0.3,0-0.5-0.2-0.5-0.5v-7.9c0-0.3,0.2-0.5,0.5-0.5s0.5,0.2,0.5,0.5v7.4h13.1
			c0.3,0,0.5,0.2,0.5,0.5S364,487.2,363.7,487.2z"/>
		<path fill="#715D4B" d="M378.7,487.2H365c-0.3,0-0.5-0.2-0.5-0.5v-7.9c0-0.3,0.2-0.5,0.5-0.5s0.5,0.2,0.5,0.5v7.4h12.7v-7.4
			c0-0.3,0.2-0.5,0.5-0.5s0.5,0.2,0.5,0.5v7.9C379.2,487,379,487.2,378.7,487.2z"/>
		<path fill="#715D4B" d="M363.7,487.2c-0.3,0-0.5-0.2-0.5-0.5v-7.4h-13.1c-0.3,0-0.5-0.2-0.5-0.5s0.2-0.5,0.5-0.5h13.6
			c0.3,0,0.5,0.2,0.5,0.5v7.9C364.2,487,364,487.2,363.7,487.2z"/>
		<path fill="#715D4B" d="M378.7,479.3H365c-0.3,0-0.5-0.2-0.5-0.5s0.2-0.5,0.5-0.5h13.7c0.3,0,0.5,0.2,0.5,0.5
			S379,479.3,378.7,479.3z"/>
		<path fill="#715D4B" d="M363,477.3h-12c-0.3,0-0.5-0.2-0.5-0.5v-28.5c0-0.3,0.2-0.5,0.5-0.5h12c0.3,0,0.5,0.2,0.5,0.5v28.5
			C363.5,477.1,363.2,477.3,363,477.3z M351.5,476.3h11v-27.5h-11V476.3z"/>
		<path fill="#715D4B" d="M377.8,477.3h-12c-0.3,0-0.5-0.2-0.5-0.5v-28.5c0-0.3,0.2-0.5,0.5-0.5h12c0.3,0,0.5,0.2,0.5,0.5v28.5
			C378.3,477.1,378.1,477.3,377.8,477.3z M366.3,476.3h11v-27.5h-11V476.3z"/>
		<path fill="#715D4B" d="M381,489.4h-33.1c-0.3,0-0.5-0.2-0.5-0.5v-43.7c0-0.3,0.2-0.5,0.5-0.5H381c0.3,0,0.5,0.2,0.5,0.5v43.7
			C381.5,489.2,381.2,489.4,381,489.4z M348.3,488.4h32.1v-42.7h-32.1V488.4z"/>
		<path fill="#715D4B" d="M318.7,489.4h-33.1c-0.3,0-0.5-0.2-0.5-0.5v-43.7c0-0.3,0.2-0.5,0.5-0.5h33.1c0.3,0,0.5,0.2,0.5,0.5v43.7
			C319.2,489.2,319,489.4,318.7,489.4z M286.1,488.4h32.1v-42.7h-32.1V488.4z"/>
	</g>
	<g>
		<path fill="#715D4B" d="M301.6,424.6h-13.7c-0.3,0-0.5-0.2-0.5-0.5v-7.7c0-0.3,0.2-0.5,0.5-0.5s0.5,0.2,0.5,0.5v7.2h13.2
			c0.3,0,0.5,0.2,0.5,0.5S301.9,424.6,301.6,424.6z"/>
		<path fill="#715D4B" d="M316.5,424.6h-13.7c-0.3,0-0.5-0.2-0.5-0.5v-7.7c0-0.3,0.2-0.5,0.5-0.5s0.5,0.2,0.5,0.5v7.2H316v-7.2
			c0-0.3,0.2-0.5,0.5-0.5s0.5,0.2,0.5,0.5v7.7C317,424.4,316.8,424.6,316.5,424.6z"/>
		<path fill="#715D4B" d="M301.6,424.6c-0.3,0-0.5-0.2-0.5-0.5v-7.2h-13.2c-0.3,0-0.5-0.2-0.5-0.5s0.2-0.5,0.5-0.5h13.7
			c0.3,0,0.5,0.2,0.5,0.5v7.7C302.1,424.4,301.9,424.6,301.6,424.6z"/>
		<path fill="#715D4B" d="M316.5,416.9h-13.7c-0.3,0-0.5-0.2-0.5-0.5s0.2-0.5,0.5-0.5h13.7c0.3,0,0.5,0.2,0.5,0.5
			S316.8,416.9,316.5,416.9z"/>
		<path fill="#715D4B" d="M300.6,414.7h-12c-0.3,0-0.5-0.2-0.5-0.5v-28.5c0-0.3,0.2-0.5,0.5-0.5h12c0.3,0,0.5,0.2,0.5,0.5v28.5
			C301.1,414.5,300.9,414.7,300.6,414.7z M289.1,413.7h11v-27.5h-11V413.7z"/>
		<path fill="#715D4B" d="M315.6,414.7h-12c-0.3,0-0.5-0.2-0.5-0.5v-28.5c0-0.3,0.2-0.5,0.5-0.5h12c0.3,0,0.5,0.2,0.5,0.5v28.5
			C316.1,414.5,315.9,414.7,315.6,414.7z M304.1,413.7h11v-27.5h-11V413.7z"/>
		<path fill="#715D4B" d="M363.7,424.6h-13.6c-0.3,0-0.5-0.2-0.5-0.5v-7.7c0-0.3,0.2-0.5,0.5-0.5s0.5,0.2,0.5,0.5v7.2h13.1
			c0.3,0,0.5,0.2,0.5,0.5S364,424.6,363.7,424.6z"/>
		<path fill="#715D4B" d="M378.7,424.6H365c-0.3,0-0.5-0.2-0.5-0.5v-7.7c0-0.3,0.2-0.5,0.5-0.5s0.5,0.2,0.5,0.5v7.2h12.7v-7.2
			c0-0.3,0.2-0.5,0.5-0.5s0.5,0.2,0.5,0.5v7.7C379.2,424.4,379,424.6,378.7,424.6z"/>
		<path fill="#715D4B" d="M363.7,424.6c-0.3,0-0.5-0.2-0.5-0.5v-7.2h-13.1c-0.3,0-0.5-0.2-0.5-0.5s0.2-0.5,0.5-0.5h13.6
			c0.3,0,0.5,0.2,0.5,0.5v7.7C364.2,424.4,364,424.6,363.7,424.6z"/>
		<path fill="#715D4B" d="M378.7,416.9H365c-0.3,0-0.5-0.2-0.5-0.5s0.2-0.5,0.5-0.5h13.7c0.3,0,0.5,0.2,0.5,0.5
			S379,416.9,378.7,416.9z"/>
		<path fill="#715D4B" d="M363,414.7h-12c-0.3,0-0.5-0.2-0.5-0.5v-28.5c0-0.3,0.2-0.5,0.5-0.5h12c0.3,0,0.5,0.2,0.5,0.5v28.5
			C363.5,414.5,363.2,414.7,363,414.7z M351.5,413.7h11v-27.5h-11V413.7z"/>
		<path fill="#715D4B" d="M377.8,414.7h-12c-0.3,0-0.5-0.2-0.5-0.5v-28.5c0-0.3,0.2-0.5,0.5-0.5h12c0.3,0,0.5,0.2,0.5,0.5v28.5
			C378.3,414.5,378.1,414.7,377.8,414.7z M366.3,413.7h11v-27.5h-11V413.7z"/>
		<path fill="#715D4B" d="M381,426.9h-33.1c-0.3,0-0.5-0.2-0.5-0.5v-43.7c0-0.3,0.2-0.5,0.5-0.5H381c0.3,0,0.5,0.2,0.5,0.5v43.7
			C381.5,426.6,381.2,426.9,381,426.9z M348.3,425.9h32.1v-42.7h-32.1V425.9z"/>
		<path fill="#715D4B" d="M318.7,426.9h-33.1c-0.3,0-0.5-0.2-0.5-0.5v-43.7c0-0.3,0.2-0.5,0.5-0.5h33.1c0.3,0,0.5,0.2,0.5,0.5v43.7
			C319.2,426.6,319,426.9,318.7,426.9z M286.1,425.9h32.1v-42.7h-32.1V425.9z"/>
	</g>
	<g>
		<path fill="#715D4B" d="M301.6,362.1h-13.7c-0.3,0-0.5-0.2-0.5-0.5v-7.7c0-0.3,0.2-0.5,0.5-0.5s0.5,0.2,0.5,0.5v7.2h13.2
			c0.3,0,0.5,0.2,0.5,0.5S301.9,362.1,301.6,362.1z"/>
		<path fill="#715D4B" d="M316.5,362.1h-13.7c-0.3,0-0.5-0.2-0.5-0.5v-7.7c0-0.3,0.2-0.5,0.5-0.5s0.5,0.2,0.5,0.5v7.2H316v-7.2
			c0-0.3,0.2-0.5,0.5-0.5s0.5,0.2,0.5,0.5v7.7C317,361.9,316.8,362.1,316.5,362.1z"/>
		<path fill="#715D4B" d="M301.6,362.1c-0.3,0-0.5-0.2-0.5-0.5v-7.2h-13.2c-0.3,0-0.5-0.2-0.5-0.5s0.2-0.5,0.5-0.5h13.7
			c0.3,0,0.5,0.2,0.5,0.5v7.7C302.1,361.9,301.9,362.1,301.6,362.1z"/>
		<path fill="#715D4B" d="M316.5,354.4h-13.7c-0.3,0-0.5-0.2-0.5-0.5s0.2-0.5,0.5-0.5h13.7c0.3,0,0.5,0.2,0.5,0.5
			S316.8,354.4,316.5,354.4z"/>
		<path fill="#715D4B" d="M300.6,352.3h-12c-0.3,0-0.5-0.2-0.5-0.5v-28.5c0-0.3,0.2-0.5,0.5-0.5h12c0.3,0,0.5,0.2,0.5,0.5v28.5
			C301.1,352.1,300.9,352.3,300.6,352.3z M289.1,351.3h11v-27.5h-11V351.3z"/>
		<path fill="#715D4B" d="M315.6,352.3h-12c-0.3,0-0.5-0.2-0.5-0.5v-28.5c0-0.3,0.2-0.5,0.5-0.5h12c0.3,0,0.5,0.2,0.5,0.5v28.5
			C316.1,352.1,315.9,352.3,315.6,352.3z M304.1,351.3h11v-27.5h-11V351.3z"/>
		<path fill="#715D4B" d="M363.7,362.1h-13.6c-0.3,0-0.5-0.2-0.5-0.5v-7.7c0-0.3,0.2-0.5,0.5-0.5s0.5,0.2,0.5,0.5v7.2h13.1
			c0.3,0,0.5,0.2,0.5,0.5S364,362.1,363.7,362.1z"/>
		<path fill="#715D4B" d="M378.7,362.1H365c-0.3,0-0.5-0.2-0.5-0.5v-7.7c0-0.3,0.2-0.5,0.5-0.5s0.5,0.2,0.5,0.5v7.2h12.7v-7.2
			c0-0.3,0.2-0.5,0.5-0.5s0.5,0.2,0.5,0.5v7.7C379.2,361.9,379,362.1,378.7,362.1z"/>
		<path fill="#715D4B" d="M363.7,362.1c-0.3,0-0.5-0.2-0.5-0.5v-7.2h-13.1c-0.3,0-0.5-0.2-0.5-0.5s0.2-0.5,0.5-0.5h13.6
			c0.3,0,0.5,0.2,0.5,0.5v7.7C364.2,361.9,364,362.1,363.7,362.1z"/>
		<path fill="#715D4B" d="M378.7,354.4H365c-0.3,0-0.5-0.2-0.5-0.5s0.2-0.5,0.5-0.5h13.7c0.3,0,0.5,0.2,0.5,0.5
			S379,354.4,378.7,354.4z"/>
		<path fill="#715D4B" d="M363,352.3h-12c-0.3,0-0.5-0.2-0.5-0.5v-28.5c0-0.3,0.2-0.5,0.5-0.5h12c0.3,0,0.5,0.2,0.5,0.5v28.5
			C363.5,352.1,363.2,352.3,363,352.3z M351.5,351.3h11v-27.5h-11V351.3z"/>
		<path fill="#715D4B" d="M377.8,352.3h-12c-0.3,0-0.5-0.2-0.5-0.5v-28.5c0-0.3,0.2-0.5,0.5-0.5h12c0.3,0,0.5,0.2,0.5,0.5v28.5
			C378.3,352.1,378.1,352.3,377.8,352.3z M366.3,351.3h11v-27.5h-11V351.3z"/>
		<path fill="#715D4B" d="M381,364.4h-33.1c-0.3,0-0.5-0.2-0.5-0.5v-43.7c0-0.3,0.2-0.5,0.5-0.5H381c0.3,0,0.5,0.2,0.5,0.5v43.7
			C381.5,364.2,381.2,364.4,381,364.4z M348.3,363.4h32.1v-42.7h-32.1V363.4z"/>
		<path fill="#715D4B" d="M318.7,364.4h-33.1c-0.3,0-0.5-0.2-0.5-0.5v-43.7c0-0.3,0.2-0.5,0.5-0.5h33.1c0.3,0,0.5,0.2,0.5,0.5v43.7
			C319.2,364.2,319,364.4,318.7,364.4z M286.1,363.4h32.1v-42.7h-32.1V363.4z"/>
	</g>
	<g>
		<path fill="#715D4B" d="M301.6,299.8h-13.7c-0.3,0-0.5-0.2-0.5-0.5v-7.9c0-0.3,0.2-0.5,0.5-0.5s0.5,0.2,0.5,0.5v7.4h13.2
			c0.3,0,0.5,0.2,0.5,0.5S301.9,299.8,301.6,299.8z"/>
		<path fill="#715D4B" d="M316.5,299.8h-13.7c-0.3,0-0.5-0.2-0.5-0.5v-7.9c0-0.3,0.2-0.5,0.5-0.5s0.5,0.2,0.5,0.5v7.4H316v-7.4
			c0-0.3,0.2-0.5,0.5-0.5s0.5,0.2,0.5,0.5v7.9C317,299.6,316.8,299.8,316.5,299.8z"/>
		<path fill="#715D4B" d="M301.6,299.8c-0.3,0-0.5-0.2-0.5-0.5v-7.4h-13.2c-0.3,0-0.5-0.2-0.5-0.5s0.2-0.5,0.5-0.5h13.7
			c0.3,0,0.5,0.2,0.5,0.5v7.9C302.1,299.6,301.9,299.8,301.6,299.8z"/>
		<path fill="#715D4B" d="M316.5,291.9h-13.7c-0.3,0-0.5-0.2-0.5-0.5s0.2-0.5,0.5-0.5h13.7c0.3,0,0.5,0.2,0.5,0.5
			S316.8,291.9,316.5,291.9z"/>
		<path fill="#715D4B" d="M300.6,289.9h-12c-0.3,0-0.5-0.2-0.5-0.5V261c0-0.3,0.2-0.5,0.5-0.5h12c0.3,0,0.5,0.2,0.5,0.5v28.5
			C301.1,289.7,300.9,289.9,300.6,289.9z M289.1,288.9h11v-27.5h-11V288.9z"/>
		<path fill="#715D4B" d="M315.6,289.9h-12c-0.3,0-0.5-0.2-0.5-0.5V261c0-0.3,0.2-0.5,0.5-0.5h12c0.3,0,0.5,0.2,0.5,0.5v28.5
			C316.1,289.7,315.9,289.9,315.6,289.9z M304.1,288.9h11v-27.5h-11V288.9z"/>
		<path fill="#715D4B" d="M363.7,299.8h-13.6c-0.3,0-0.5-0.2-0.5-0.5v-7.9c0-0.3,0.2-0.5,0.5-0.5s0.5,0.2,0.5,0.5v7.4h13.1
			c0.3,0,0.5,0.2,0.5,0.5S364,299.8,363.7,299.8z"/>
		<path fill="#715D4B" d="M378.7,299.8H365c-0.3,0-0.5-0.2-0.5-0.5v-7.9c0-0.3,0.2-0.5,0.5-0.5s0.5,0.2,0.5,0.5v7.4h12.7v-7.4
			c0-0.3,0.2-0.5,0.5-0.5s0.5,0.2,0.5,0.5v7.9C379.2,299.6,379,299.8,378.7,299.8z"/>
		<path fill="#715D4B" d="M363.7,299.8c-0.3,0-0.5-0.2-0.5-0.5v-7.4h-13.1c-0.3,0-0.5-0.2-0.5-0.5s0.2-0.5,0.5-0.5h13.6
			c0.3,0,0.5,0.2,0.5,0.5v7.9C364.2,299.6,364,299.8,363.7,299.8z"/>
		<path fill="#715D4B" d="M378.7,291.9H365c-0.3,0-0.5-0.2-0.5-0.5s0.2-0.5,0.5-0.5h13.7c0.3,0,0.5,0.2,0.5,0.5
			S379,291.9,378.7,291.9z"/>
		<path fill="#715D4B" d="M363,289.9h-12c-0.3,0-0.5-0.2-0.5-0.5V261c0-0.3,0.2-0.5,0.5-0.5h12c0.3,0,0.5,0.2,0.5,0.5v28.5
			C363.5,289.7,363.2,289.9,363,289.9z M351.5,288.9h11v-27.5h-11V288.9z"/>
		<path fill="#715D4B" d="M377.8,289.9h-12c-0.3,0-0.5-0.2-0.5-0.5V261c0-0.3,0.2-0.5,0.5-0.5h12c0.3,0,0.5,0.2,0.5,0.5v28.5
			C378.3,289.7,378.1,289.9,377.8,289.9z M366.3,288.9h11v-27.5h-11V288.9z"/>
		<path fill="#715D4B" d="M381,302.1h-33.1c-0.3,0-0.5-0.2-0.5-0.5v-43.7c0-0.3,0.2-0.5,0.5-0.5H381c0.3,0,0.5,0.2,0.5,0.5v43.7
			C381.5,301.8,381.2,302.1,381,302.1z M348.3,301.1h32.1v-42.7h-32.1V301.1z"/>
		<path fill="#715D4B" d="M318.7,302.1h-33.1c-0.3,0-0.5-0.2-0.5-0.5v-43.7c0-0.3,0.2-0.5,0.5-0.5h33.1c0.3,0,0.5,0.2,0.5,0.5v43.7
			C319.2,301.8,319,302.1,318.7,302.1z M286.1,301.1h32.1v-42.7h-32.1V301.1z"/>
	</g>
	<g>
		<path fill="#715D4B" d="M301.6,237.1h-13.7c-0.3,0-0.5-0.2-0.5-0.5v-7.7c0-0.3,0.2-0.5,0.5-0.5s0.5,0.2,0.5,0.5v7.2h13.2
			c0.3,0,0.5,0.2,0.5,0.5S301.9,237.1,301.6,237.1z"/>
		<path fill="#715D4B" d="M316.5,237.1h-13.7c-0.3,0-0.5-0.2-0.5-0.5v-7.7c0-0.3,0.2-0.5,0.5-0.5s0.5,0.2,0.5,0.5v7.2H316v-7.2
			c0-0.3,0.2-0.5,0.5-0.5s0.5,0.2,0.5,0.5v7.7C317,236.9,316.8,237.1,316.5,237.1z"/>
		<path fill="#715D4B" d="M301.6,237.1c-0.3,0-0.5-0.2-0.5-0.5v-7.2h-13.2c-0.3,0-0.5-0.2-0.5-0.5s0.2-0.5,0.5-0.5h13.7
			c0.3,0,0.5,0.2,0.5,0.5v7.7C302.1,236.9,301.9,237.1,301.6,237.1z"/>
		<path fill="#715D4B" d="M316.5,229.4h-13.7c-0.3,0-0.5-0.2-0.5-0.5s0.2-0.5,0.5-0.5h13.7c0.3,0,0.5,0.2,0.5,0.5
			S316.8,229.4,316.5,229.4z"/>
		<path fill="#715D4B" d="M300.6,227.2h-12c-0.3,0-0.5-0.2-0.5-0.5v-28.5c0-0.3,0.2-0.5,0.5-0.5h12c0.3,0,0.5,0.2,0.5,0.5v28.5
			C301.1,227,300.9,227.2,300.6,227.2z M289.1,226.2h11v-27.5h-11V226.2z"/>
		<path fill="#715D4B" d="M315.6,227.2h-12c-0.3,0-0.5-0.2-0.5-0.5v-28.5c0-0.3,0.2-0.5,0.5-0.5h12c0.3,0,0.5,0.2,0.5,0.5v28.5
			C316.1,227,315.9,227.2,315.6,227.2z M304.1,226.2h11v-27.5h-11V226.2z"/>
		<path fill="#715D4B" d="M363.7,237.1h-13.6c-0.3,0-0.5-0.2-0.5-0.5v-7.7c0-0.3,0.2-0.5,0.5-0.5s0.5,0.2,0.5,0.5v7.2h13.1
			c0.3,0,0.5,0.2,0.5,0.5S364,237.1,363.7,237.1z"/>
		<path fill="#715D4B" d="M378.7,237.1H365c-0.3,0-0.5-0.2-0.5-0.5v-7.7c0-0.3,0.2-0.5,0.5-0.5s0.5,0.2,0.5,0.5v7.2h12.7v-7.2
			c0-0.3,0.2-0.5,0.5-0.5s0.5,0.2,0.5,0.5v7.7C379.2,236.9,379,237.1,378.7,237.1z"/>
		<path fill="#715D4B" d="M363.7,237.1c-0.3,0-0.5-0.2-0.5-0.5v-7.2h-13.1c-0.3,0-0.5-0.2-0.5-0.5s0.2-0.5,0.5-0.5h13.6
			c0.3,0,0.5,0.2,0.5,0.5v7.7C364.2,236.9,364,237.1,363.7,237.1z"/>
		<path fill="#715D4B" d="M378.7,229.4H365c-0.3,0-0.5-0.2-0.5-0.5s0.2-0.5,0.5-0.5h13.7c0.3,0,0.5,0.2,0.5,0.5
			S379,229.4,378.7,229.4z"/>
		<path fill="#715D4B" d="M363,227.2h-12c-0.3,0-0.5-0.2-0.5-0.5v-28.5c0-0.3,0.2-0.5,0.5-0.5h12c0.3,0,0.5,0.2,0.5,0.5v28.5
			C363.5,227,363.2,227.2,363,227.2z M351.5,226.2h11v-27.5h-11V226.2z"/>
		<path fill="#715D4B" d="M377.8,227.2h-12c-0.3,0-0.5-0.2-0.5-0.5v-28.5c0-0.3,0.2-0.5,0.5-0.5h12c0.3,0,0.5,0.2,0.5,0.5v28.5
			C378.3,227,378.1,227.2,377.8,227.2z M366.3,226.2h11v-27.5h-11V226.2z"/>
		<path fill="#715D4B" d="M381,239.3h-33.1c-0.3,0-0.5-0.2-0.5-0.5v-43.7c0-0.3,0.2-0.5,0.5-0.5H381c0.3,0,0.5,0.2,0.5,0.5v43.7
			C381.5,239.1,381.2,239.3,381,239.3z M348.3,238.3h32.1v-42.7h-32.1V238.3z"/>
		<path fill="#715D4B" d="M318.7,239.3h-33.1c-0.3,0-0.5-0.2-0.5-0.5v-43.7c0-0.3,0.2-0.5,0.5-0.5h33.1c0.3,0,0.5,0.2,0.5,0.5v43.7
			C319.2,239.1,319,239.3,318.7,239.3z M286.1,238.3h32.1v-42.7h-32.1V238.3z"/>
	</g>
	<g>
		<path fill="#715D4B" d="M301.6,174.8h-13.7c-0.3,0-0.5-0.2-0.5-0.5v-7.9c0-0.3,0.2-0.5,0.5-0.5s0.5,0.2,0.5,0.5v7.4h13.2
			c0.3,0,0.5,0.2,0.5,0.5S301.9,174.8,301.6,174.8z"/>
		<path fill="#715D4B" d="M316.5,174.8h-13.7c-0.3,0-0.5-0.2-0.5-0.5v-7.9c0-0.3,0.2-0.5,0.5-0.5s0.5,0.2,0.5,0.5v7.4H316v-7.4
			c0-0.3,0.2-0.5,0.5-0.5s0.5,0.2,0.5,0.5v7.9C317,174.5,316.8,174.8,316.5,174.8z"/>
		<path fill="#715D4B" d="M301.6,174.8c-0.3,0-0.5-0.2-0.5-0.5v-7.4h-13.2c-0.3,0-0.5-0.2-0.5-0.5s0.2-0.5,0.5-0.5h13.7
			c0.3,0,0.5,0.2,0.5,0.5v7.9C302.1,174.5,301.9,174.8,301.6,174.8z"/>
		<path fill="#715D4B" d="M316.5,166.9h-13.7c-0.3,0-0.5-0.2-0.5-0.5s0.2-0.5,0.5-0.5h13.7c0.3,0,0.5,0.2,0.5,0.5
			S316.8,166.9,316.5,166.9z"/>
		<path fill="#715D4B" d="M300.6,164.9h-12c-0.3,0-0.5-0.2-0.5-0.5v-28.5c0-0.3,0.2-0.5,0.5-0.5h12c0.3,0,0.5,0.2,0.5,0.5v28.5
			C301.1,164.7,300.9,164.9,300.6,164.9z M289.1,163.9h11v-27.5h-11V163.9z"/>
		<path fill="#715D4B" d="M315.6,164.9h-12c-0.3,0-0.5-0.2-0.5-0.5v-28.5c0-0.3,0.2-0.5,0.5-0.5h12c0.3,0,0.5,0.2,0.5,0.5v28.5
			C316.1,164.7,315.9,164.9,315.6,164.9z M304.1,163.9h11v-27.5h-11V163.9z"/>
		<path fill="#715D4B" d="M363.7,174.8h-13.6c-0.3,0-0.5-0.2-0.5-0.5v-7.9c0-0.3,0.2-0.5,0.5-0.5s0.5,0.2,0.5,0.5v7.4h13.1
			c0.3,0,0.5,0.2,0.5,0.5S364,174.8,363.7,174.8z"/>
		<path fill="#715D4B" d="M378.7,174.8H365c-0.3,0-0.5-0.2-0.5-0.5v-7.9c0-0.3,0.2-0.5,0.5-0.5s0.5,0.2,0.5,0.5v7.4h12.7v-7.4
			c0-0.3,0.2-0.5,0.5-0.5s0.5,0.2,0.5,0.5v7.9C379.2,174.5,379,174.8,378.7,174.8z"/>
		<path fill="#715D4B" d="M363.7,174.8c-0.3,0-0.5-0.2-0.5-0.5v-7.4h-13.1c-0.3,0-0.5-0.2-0.5-0.5s0.2-0.5,0.5-0.5h13.6
			c0.3,0,0.5,0.2,0.5,0.5v7.9C364.2,174.5,364,174.8,363.7,174.8z"/>
		<path fill="#715D4B" d="M378.7,166.9H365c-0.3,0-0.5-0.2-0.5-0.5s0.2-0.5,0.5-0.5h13.7c0.3,0,0.5,0.2,0.5,0.5
			S379,166.9,378.7,166.9z"/>
		<path fill="#715D4B" d="M363,164.9h-12c-0.3,0-0.5-0.2-0.5-0.5v-28.5c0-0.3,0.2-0.5,0.5-0.5h12c0.3,0,0.5,0.2,0.5,0.5v28.5
			C363.5,164.7,363.2,164.9,363,164.9z M351.5,163.9h11v-27.5h-11V163.9z"/>
		<path fill="#715D4B" d="M377.8,164.9h-12c-0.3,0-0.5-0.2-0.5-0.5v-28.5c0-0.3,0.2-0.5,0.5-0.5h12c0.3,0,0.5,0.2,0.5,0.5v28.5
			C378.3,164.7,378.1,164.9,377.8,164.9z M366.3,163.9h11v-27.5h-11V163.9z"/>
		<path fill="#715D4B" d="M381,177h-33.1c-0.3,0-0.5-0.2-0.5-0.5v-43.7c0-0.3,0.2-0.5,0.5-0.5H381c0.3,0,0.5,0.2,0.5,0.5v43.7
			C381.5,176.8,381.2,177,381,177z M348.3,176h32.1v-42.7h-32.1V176z"/>
		<path fill="#715D4B" d="M318.7,177h-33.1c-0.3,0-0.5-0.2-0.5-0.5v-43.7c0-0.3,0.2-0.5,0.5-0.5h33.1c0.3,0,0.5,0.2,0.5,0.5v43.7
			C319.2,176.8,319,177,318.7,177z M286.1,176h32.1v-42.7h-32.1V176z"/>
	</g>
</g>
</svg>
